<svg viewBox="0 0 1650 975" xmlns="http://www.w3.org/2000/svg">
<defs>
  <clipPath id="canvasClip"><rect x="0" y="0" width="1650" height="975"/></clipPath>
</defs>
<rect x="0" y="0" width="1650" height="975" fill="#0a0c0f"/>
<g clip-path="url(#canvasClip)">
<rect x="0" y="0" width="150" height="150" fill="#0e1c2e"/>
<path d="M 0 24.132174358237535 L 7.2885203287005424 114.01979348156601 L 26.213603354458296 57.0877879508771 L 45.40495366496699 87.80155858257785 L 58.27992892850723 30.791343154851347 L 90.70449590470109 116.35487617459148 L 100.80176251115543 57.76868986431509 L 135.7844262836235 19.402817089576274 L 150 116.92236397764646 L 150 150 L 0 150 Z" fill="#1c3a55" opacity="0.55"/>
<path d="M -10 61.96792590315454 Q 10.714285714285714 66.02296466007829, 21.428571428571427 42.96196239301935 Q 32.14285714285714 87.56355955847539, 42.857142857142854 84.14921230869368 Q 53.57142857142858 33.47702430328354, 64.28571428571429 13.5036236140877 Q 75 155.91215725871734, 85.71428571428571 139.95728959562257 Q 96.42857142857143 169.3075985298492, 107.14285714285714 147.58893406251445 Q 117.85714285714288 57.935118628665805, 128.57142857142858 65.61380624771118 Q 139.28571428571428 56.670309050241485, 150 73.87006559874862" fill="none" stroke="#7fa8c2" stroke-width="1.39" opacity="0.31"/><path d="M -10 102.57170139695518 Q 12.5 156.43011022475548, 25 128.266700275708 Q 37.5 132.4881046602968, 50 126.6347678611055 Q 62.5 131.47894719731994, 75 146.8299654778093 Q 87.5 83.90615293756127, 100 52.21270675538108 Q 112.5 85.77125545707531, 125 107.29181778151542 Q 137.5 84.30092709604651, 150 84.46777359349653" fill="none" stroke="#7fa8c2" stroke-width="1.15" opacity="0.51"/><path d="M -10 118.24023592751473 Q 10.714285714285714 47.85616169683635, 21.428571428571427 25.07423779461533 Q 32.14285714285714 158.38395333266817, 42.857142857142854 144.70707988366485 Q 53.57142857142858 153.43139677424915, 64.28571428571429 139.69008929561824 Q 75 23.668584635015577, 85.71428571428571 21.419778966810554 Q 96.42857142857143 9.519714850466698, 107.14285714285714 33.533299528062344 Q 117.85714285714288 25.177442718995735, 128.57142857142858 35.176596441306174 Q 139.28571428571428 158.36544635239989, 150 131.7695670062676" fill="none" stroke="#7fa8c2" stroke-width="1.56" opacity="0.32"/><path d="M -10 72.96970021678135 Q 10.714285714285714 15.638972277520224, 21.428571428571427 8.699621027335525 Q 32.14285714285714 106.20574837666936, 42.857142857142854 143.33338101860136 Q 53.57142857142858 89.28776471293531, 64.28571428571429 74.85462200129405 Q 75 101.5925696818158, 85.71428571428571 87.53645693650469 Q 96.42857142857143 129.5293578878045, 107.14285714285714 116.38871768955141 Q 117.85714285714288 49.521177483256906, 128.57142857142858 30.541540577542037 Q 139.28571428571428 106.98116560815834, 150 96.65204887278378" fill="none" stroke="#7fa8c2" stroke-width="0.84" opacity="0.33"/><path d="M -10 84.93676146143116 Q 10.714285714285714 138.16430624574423, 21.428571428571427 136.9851195369847 Q 32.14285714285714 89.98228119453415, 42.857142857142854 97.25841355975717 Q 53.57142857142858 33.90820723143406, 64.28571428571429 58.09057558653876 Q 75 29.272734140977263, 85.71428571428571 13.825889909639955 Q 96.42857142857143 122.87266463390552, 107.14285714285714 111.60685481736436 Q 117.85714285714288 75.75821140198968, 128.57142857142858 75.59261546703056 Q 139.28571428571428 88.82736816303805, 150 72.37966706743464" fill="none" stroke="#7fa8c2" stroke-width="1.44" opacity="0.51"/><path d="M -10 -4.245197743875906 Q 10.714285714285714 131.98239711346105, 21.428571428571427 144.24712895415723 Q 32.14285714285714 93.66147852852009, 42.857142857142854 59.469258366152644 Q 53.57142857142858 49.05458735302091, 64.28571428571429 12.376129569020122 Q 75 83.91231814166531, 85.71428571428571 59.806226030923426 Q 96.42857142857143 103.73666040832177, 107.14285714285714 131.96333670057356 Q 117.85714285714288 84.88492804463021, 128.57142857142858 81.314769142773 Q 139.28571428571428 73.16161504131742, 150 37.56750739412382" fill="none" stroke="#7fa8c2" stroke-width="0.99" opacity="0.28"/><path d="M -10 74.22584739513695 Q 15 67.76710646809079, 30 58.402882574591786 Q 45 70.79743160284124, 60 46.824389963876456 Q 75 47.16103958780877, 90 51.39900748617947 Q 105 36.27319049555808, 120 56.77972077392042 Q 135 20.712280209409073, 150 50.43324453290552" fill="none" stroke="#7fa8c2" stroke-width="0.71" opacity="0.41"/><path d="M -10 114.6967899100855 Q 10.714285714285714 84.45037173223682, 21.428571428571427 102.80911079607904 Q 32.14285714285714 12.099048332311213, 42.857142857142854 33.928041730541736 Q 53.57142857142858 148.77374530769885, 64.28571428571429 143.2637856574729 Q 75 98.78070126869716, 85.71428571428571 133.8908708654344 Q 96.42857142857143 30.834410578245297, 107.14285714285714 62.31186885852367 Q 117.85714285714288 2.037018339615315, 128.57142857142858 10.811022960115224 Q 139.28571428571428 19.698804896324873, 150 10.933100630063564" fill="none" stroke="#7fa8c2" stroke-width="0.72" opacity="0.41"/>
<rect x="375" y="75" width="300" height="150" fill="#c7ccd1"/>
<path d="M 365 142.52932497882284 Q 405 68.86014687479474, 435 106.0585574596189 Q 465 131.898723175982, 495 98.80388444289565 Q 525 181.06955690891482, 555 151.56121461186558 Q 585 131.46871560020372, 615 125.11297051096335 Q 645 79.90383276483044, 675 86.05691583361477" fill="none" stroke="#4a5058" stroke-width="0.66" opacity="0.50"/><path d="M 365 81.66130068479106 Q 412.5 166.53851686860435, 450 202.01806268887594 Q 487.5 83.30503623001277, 525 108.37597993668169 Q 562.5 59.631335927406326, 600 83.89948282856494 Q 637.5 170.5409308662638, 675 179.90888748317957" fill="none" stroke="#4a5058" stroke-width="1.21" opacity="0.58"/><path d="M 365 205.5970772425644 Q 405 226.8928944307845, 435 189.71151552395895 Q 465 132.70349376252852, 495 122.05794467590749 Q 525 168.31058757961728, 555 168.44102900940925 Q 585 221.09206564491615, 615 219.47829709388316 Q 645 133.92515861196443, 675 164.15997461881489" fill="none" stroke="#4a5058" stroke-width="1.29" opacity="0.38"/><path d="M 365 174.01026720413938 Q 412.5 145.94186010654084, 450 164.3969076918438 Q 487.5 105.44100251281634, 525 114.97079894179478 Q 562.5 129.1192222677637, 600 152.78028597822413 Q 637.5 187.30709641822614, 675 161.80121654178947" fill="none" stroke="#4a5058" stroke-width="1.23" opacity="0.43"/><path d="M 365 129.17930923984386 Q 412.5 144.18135333107784, 450 176.16446788888425 Q 487.5 187.0068020769395, 525 194.40318974666297 Q 562.5 185.11402422445826, 600 202.3697787662968 Q 637.5 234.15698554599658, 675 215.85826448863372" fill="none" stroke="#4a5058" stroke-width="1.56" opacity="0.40"/><path d="M 365 178.41989592765458 Q 400 168.86318707256578, 425 131.47313939407468 Q 450 140.37850008462556, 475 137.089953571558 Q 500 116.85197865008377, 525 135.6581757310778 Q 550 138.74636865220964, 575 126.30109917372465 Q 600 146.4695803821087, 625 120.42626469628885 Q 650 232.2654951713048, 675 208.4038042346947" fill="none" stroke="#4a5058" stroke-width="0.74" opacity="0.47"/><path d="M 365 213.8993467076216 Q 412.5 114.83973316499032, 450 115.5830638948828 Q 487.5 85.2471093647182, 525 120.77922904863954 Q 562.5 123.14172632759437, 600 96.12002943176776 Q 637.5 197.69665084895678, 675 190.618996869307" fill="none" stroke="#4a5058" stroke-width="1.34" opacity="0.60"/><path d="M 365 187.57141329115257 Q 412.5 72.01151762274094, 450 75.39844043785706 Q 487.5 106.52369334711693, 525 143.72996437596157 Q 562.5 131.7485735169612, 600 133.40140159707516 Q 637.5 235.99610839155503, 675 202.8838836005889" fill="none" stroke="#4a5058" stroke-width="1.36" opacity="0.54"/><path d="M 365 161.655507782707 Q 405 127.46156100765802, 435 91.47945118602365 Q 465 149.66898404527456, 495 163.99477097438648 Q 525 172.96615418745205, 555 189.24920232966542 Q 585 167.9026874131523, 615 177.87616137648 Q 645 123.43521449365653, 675 149.9537904630415" fill="none" stroke="#4a5058" stroke-width="1.39" opacity="0.67"/><path d="M 365 204.78670415002853 Q 396.4285714285714 105.68200625712052, 417.85714285714283 78.73996440321207 Q 439.2857142857143 117.29358007432893, 460.7142857142857 93.29266321146861 Q 482.1428571428571 178.74574302113615, 503.57142857142856 150.9016573545523 Q 525 106.48542232811451, 546.4285714285714 123.13417175319046 Q 567.8571428571428 109.0258595882915, 589.2857142857142 110.59155111433938 Q 610.7142857142857 84.84052423154935, 632.1428571428571 78.88184417970479 Q 653.5714285714286 185.53853831836022, 675 162.04876847332343" fill="none" stroke="#4a5058" stroke-width="1.09" opacity="0.48"/><path d="M 365 185.20419825799763 Q 405 119.86500273342244, 435 134.2766074114479 Q 465 63.78537301789038, 495 75.49601200735196 Q 525 128.81146206054837, 555 123.78763421438634 Q 585 90.99669246934354, 615 100.7559796446003 Q 645 165.5274488555733, 675 164.6720455144532" fill="none" stroke="#4a5058" stroke-width="0.64" opacity="0.53"/><path d="M 365 166.70510833966546 Q 396.4285714285714 157.01614488498308, 417.85714285714283 178.52943402249366 Q 439.2857142857143 233.64122505881824, 460.7142857142857 196.83196709956974 Q 482.1428571428571 216.28787029185332, 503.57142857142856 201.31640617037192 Q 525 55.427074123872444, 546.4285714285714 79.23093501012772 Q 567.8571428571428 183.22704650927335, 589.2857142857142 155.1579590770416 Q 610.7142857142857 106.97655261028558, 632.1428571428571 114.56408497178927 Q 653.5714285714286 158.39461156865582, 675 123.06725399103016" fill="none" stroke="#4a5058" stroke-width="1.15" opacity="0.56"/><path d="M 365 106.04033122421242 Q 405 238.51010549697094, 435 212.23186163697392 Q 465 205.0553414155729, 495 192.95576411532238 Q 525 136.3579789060168, 555 102.71503647090867 Q 585 115.91315644327551, 615 136.87738449079916 Q 645 71.18920682114549, 675 95.3642167034559" fill="none" stroke="#4a5058" stroke-width="1.19" opacity="0.59"/><path d="M 365 160.3830997995101 Q 396.4285714285714 219.52766604954377, 417.85714285714283 209.34700516518205 Q 439.2857142857143 93.9253099146299, 460.7142857142857 104.70691431546584 Q 482.1428571428571 125.62914969166741, 503.57142857142856 159.58778942003846 Q 525 212.04582793288864, 546.4285714285714 178.70888407342136 Q 567.8571428571428 181.9971353164874, 589.2857142857142 201.0220819967799 Q 610.7142857142857 61.03728592861444, 632.1428571428571 97.65464313095436 Q 653.5714285714286 171.6325391025748, 675 203.12913417583331" fill="none" stroke="#4a5058" stroke-width="0.89" opacity="0.46"/>
<path d="M 365 145.3364314197097 Q 405 161.89826033078134, 435 145.9002241375856 Q 465 77.2669475118164, 495 89.86194035969675 Q 525 165.78326773596928, 555 157.5246299849823 Q 585 143.33934409660287, 615 176.50525979697704 Q 645 78.15667932154611, 675 114.08251613611355" fill="none" stroke="#20242a" stroke-width="0.68" opacity="0.40"/><path d="M 365 186.8285070452839 Q 400 186.86349519412033, 425 156.19325889274478 Q 450 156.37016236432828, 475 180.5303985835053 Q 500 61.69532263884321, 525 97.54509060876444 Q 550 107.04629276879132, 575 134.13444897159934 Q 600 86.97781224036589, 625 87.71835310617462 Q 650 162.29933469439857, 675 177.15633607003838" fill="none" stroke="#20242a" stroke-width="1.09" opacity="0.45"/><path d="M 365 131.60950283054262 Q 400 116.68602243298665, 425 81.47548389388248 Q 450 52.20560436719097, 475 76.17176407948136 Q 500 162.48622307321057, 525 183.93988406751305 Q 550 124.0294930699747, 575 104.26884001353756 Q 600 98.45818124595098, 625 131.48850433062762 Q 650 113.92710599466227, 675 148.20788564393297" fill="none" stroke="#20242a" stroke-width="1.25" opacity="0.37"/><path d="M 365 187.0023105852306 Q 405 109.74420190905221, 435 75.41388035751879 Q 465 187.9169489722699, 495 182.49491566093639 Q 525 204.5988555648364, 555 193.47025374881923 Q 585 204.64609951595776, 615 183.58737638918683 Q 645 154.60714189102873, 675 191.65242724120617" fill="none" stroke="#20242a" stroke-width="1.39" opacity="0.37"/><path d="M 365 189.84728223877028 Q 412.5 236.49838973069564, 450 201.27761943731457 Q 487.5 138.32205518265255, 525 109.98424873687327 Q 562.5 193.34632980753668, 600 167.26730132941157 Q 637.5 165.69319220725447, 675 186.42784320982173" fill="none" stroke="#20242a" stroke-width="1.42" opacity="0.33"/><path d="M 365 170.25992295937613 Q 396.4285714285714 101.18394634919241, 417.85714285714283 115.99519054871053 Q 439.2857142857143 194.1490919678472, 460.7142857142857 158.68900531204417 Q 482.1428571428571 89.85343648237176, 503.57142857142856 115.1287441374734 Q 525 149.77798716863617, 546.4285714285714 172.047893574927 Q 567.8571428571428 227.33109784894623, 589.2857142857142 223.26564160175622 Q 610.7142857142857 101.21519333333708, 632.1428571428571 131.45818922203034 Q 653.5714285714286 77.50422708922997, 675 112.92038541287184" fill="none" stroke="#20242a" stroke-width="0.96" opacity="0.45"/>
<rect x="225" y="300" width="150" height="150" fill="#123a52"/>
<path d="M 225 320.54587284335867 L 223.8249489851296 427.17119806911796 L 247.09310556203127 431.3888708478771 L 283.1942878216505 316.2823971826583 L 315.085042078048 414.0141237876378 L 341.89270762354136 448.66118871141225 L 375 421.6915393725503 L 375 450 L 225 450 Z" fill="#3f6f8f" opacity="0.80"/>
<path d="M 215 358.8816582632717 Q 243.75 408.3319069817662, 262.5 439.9843026534654 Q 281.25 396.4895708835684, 300 359.2338380869478 Q 318.75 354.1086501558311, 337.5 368.39559524087235 Q 356.25 392.3815451154951, 375 403.41302063316107" fill="none" stroke="#7fa8c2" stroke-width="0.79" opacity="0.40"/><path d="M 215 443.34861978306435 Q 237.5 431.51472322060727, 250 408.67806494934484 Q 262.5 452.17347287689336, 275 426.9851358840242 Q 287.5 328.85571655933745, 300 309.35256419470534 Q 312.5 404.41853067604825, 325 371.94113057339564 Q 337.5 290.82123743137345, 350 312.3884162167087 Q 362.5 443.6654979013838, 375 417.9184206412174" fill="none" stroke="#7fa8c2" stroke-width="0.64" opacity="0.44"/><path d="M 215 323.2060773752164 Q 237.5 368.65582883474417, 250 400.8732035988942 Q 262.5 352.5311946810689, 275 360.2787100360729 Q 287.5 276.05782330501825, 300 308.7512452737428 Q 312.5 338.7715673830826, 325 337.1967669110745 Q 337.5 282.0386447827332, 350 302.364836493507 Q 362.5 366.5334247634746, 375 345.07192375604063" fill="none" stroke="#7fa8c2" stroke-width="0.67" opacity="0.45"/><path d="M 215 333.62712710746564 Q 240 408.8678506028373, 255 407.44658906478435 Q 270 443.11208936269395, 285 435.70838479790837 Q 300 291.645937145222, 315 315.32247407594696 Q 330 384.8913418769371, 345 364.7600679541938 Q 360 421.1277755093761, 375 403.77570663113147" fill="none" stroke="#7fa8c2" stroke-width="1.49" opacity="0.38"/><path d="M 215 412.56432660855353 Q 237.5 338.6658246279694, 250 356.9090085220523 Q 262.5 381.6093962523155, 275 377.9978770762682 Q 287.5 451.53183198999614, 300 441.6468746261671 Q 312.5 374.53075067605823, 325 370.28839483391494 Q 337.5 351.8168890674133, 350 352.07295975415036 Q 362.5 461.9122349715326, 375 431.75094828475267" fill="none" stroke="#7fa8c2" stroke-width="0.94" opacity="0.34"/><path d="M 215 301.4196142705623 Q 235.7142857142857 415.1703044772148, 246.42857142857142 385.9213317395188 Q 257.1428571428571 423.63657662062906, 267.85714285714283 433.40943697839975 Q 278.57142857142856 338.7666461057961, 289.2857142857143 357.0718521019444 Q 300 460.4394804511685, 310.7142857142857 423.20103283273056 Q 321.4285714285714 373.04779471596703, 332.1428571428571 337.7651406219229 Q 342.85714285714283 365.0101449515205, 353.57142857142856 356.39414289034903 Q 364.2857142857143 331.479926611064, 375 312.9483662894927" fill="none" stroke="#7fa8c2" stroke-width="0.97" opacity="0.39"/><path d="M 215 428.29393584514037 Q 237.5 384.977536322549, 250 368.32284877309576 Q 262.5 399.5136753539555, 275 385.74177178088576 Q 287.5 419.17958929552697, 300 383.2869853125885 Q 312.5 304.9136035842821, 325 306.19713636115193 Q 337.5 429.8178557481151, 350 407.26956023136154 Q 362.5 361.31814518594183, 375 357.66277058282867" fill="none" stroke="#7fa8c2" stroke-width="0.83" opacity="0.55"/><path d="M 215 364.5092190883588 Q 235.7142857142857 401.3308356399648, 246.42857142857142 372.19955404289067 Q 257.1428571428571 367.52195708686486, 267.85714285714283 364.81779342284426 Q 278.57142857142856 373.932572506601, 289.2857142857143 348.98164439946413 Q 300 321.5395722712856, 310.7142857142857 308.43748681945726 Q 321.4285714285714 434.88424644456245, 332.1428571428571 401.6242040321231 Q 342.85714285714283 416.85422791633755, 353.57142857142856 432.237970456481 Q 364.2857142857143 444.8744236549828, 375 435.5368131073192" fill="none" stroke="#7fa8c2" stroke-width="1.17" opacity="0.47"/>
<rect x="375" y="450" width="150" height="225" fill="#0d1b28"/>
<path d="M 375 491.3026038638782 L 374.64744314551353 605.9411354712211 L 398.2343411371112 631.9652794918511 L 407.1034199409187 671.7691114987247 L 432.46910167485476 660.7126460177824 L 446.19221091642976 614.903468254488 L 470.74050476029515 529.4520601630211 L 493.5171859934926 456.27887711743824 L 502.54041528329253 533.3488030184526 L 525 626.0545785241993 L 525 675 L 375 675 Z" fill="#3f6f8f" opacity="0.74"/>
<path d="M 365 648.7279511871748 Q 387.5 605.1395021437202, 400 576.9223598297685 Q 412.5 549.280092047411, 425 593.8168259512167 Q 437.5 544.9918777740095, 450 595.1261141162831 Q 462.5 487.40139140572865, 475 482.48862680629827 Q 487.5 499.9753971293103, 500 480.97811512998305 Q 512.5 485.2085099875694, 525 458.99931237800047" fill="none" stroke="#7fa8c2" stroke-width="1.50" opacity="0.43"/><path d="M 365 593.6469321971526 Q 387.5 693.453315316583, 400 666.8886834173463 Q 412.5 573.0812848603819, 425 527.9645369038917 Q 437.5 521.1807653191499, 450 465.7352402689867 Q 462.5 560.5426918395096, 475 548.496494453866 Q 487.5 625.407934281975, 500 604.9775284656789 Q 512.5 567.2241678228602, 525 521.4535087288823" fill="none" stroke="#7fa8c2" stroke-width="0.63" opacity="0.47"/><path d="M 365 510.2399233309552 Q 385.7142857142857 563.1420237390557, 396.42857142857144 519.9670422181953 Q 407.1428571428571 625.0192929350305, 417.85714285714283 668.9259221660905 Q 428.57142857142856 427.0522100297967, 439.2857142857143 472.556055203313 Q 450 543.2842311478453, 460.7142857142857 495.9323234274052 Q 471.4285714285714 606.9144262990449, 482.1428571428571 567.778353067115 Q 492.85714285714283 552.3469017294701, 503.57142857142856 562.1421382064 Q 514.2857142857143 516.504786000587, 525 509.0199221740477" fill="none" stroke="#7fa8c2" stroke-width="1.50" opacity="0.51"/><path d="M 365 565.7019262126414 Q 393.75 411.1512901552487, 412.5 450.5258087825496 Q 431.25 410.07671644329093, 450 454.15044221444987 Q 468.75 420.19148138933815, 487.5 463.1501292111352 Q 506.25 657.3133936850354, 525 605.5947816115804" fill="none" stroke="#7fa8c2" stroke-width="0.92" opacity="0.45"/><path d="M 365 578.6998187878635 Q 387.5 480.11954256508034, 400 529.6155489224475 Q 412.5 641.9592701189686, 425 585.7734123186674 Q 437.5 519.5933432376478, 450 490.29250780586153 Q 462.5 544.23020160757, 475 492.2364419850055 Q 487.5 561.4863230672199, 500 505.82347156014293 Q 512.5 653.1603066396201, 525 609.014003619086" fill="none" stroke="#7fa8c2" stroke-width="1.31" opacity="0.54"/><path d="M 365 569.162833483424 Q 387.5 554.1143397975247, 400 571.006651193602 Q 412.5 501.75897329463623, 425 470.73607658967376 Q 437.5 608.6149976035813, 450 556.4097301103175 Q 462.5 676.7734401131747, 475 664.4108348933514 Q 487.5 547.0005709299585, 500 561.3289682369214 Q 512.5 544.1076970280847, 525 524.279205291532" fill="none" stroke="#7fa8c2" stroke-width="1.21" opacity="0.29"/><path d="M 365 617.0720182493096 Q 387.5 634.0246909676353, 400 627.0858638396021 Q 412.5 543.1990230514202, 425 538.5882001428399 Q 437.5 549.9082216818351, 450 517.3439463658724 Q 462.5 568.3231375878677, 475 581.3496690883767 Q 487.5 595.5648386967368, 500 644.2148786096368 Q 512.5 703.1297474575695, 525 672.6116828795057" fill="none" stroke="#7fa8c2" stroke-width="1.10" opacity="0.38"/><path d="M 365 559.4151977926958 Q 387.5 585.6531597732101, 400 622.5009801972192 Q 412.5 505.1883089065086, 425 538.3659933751915 Q 437.5 487.2533855144866, 450 531.3439458666835 Q 462.5 528.6766947770957, 475 484.6737370477058 Q 487.5 503.12489148345776, 500 541.609697858803 Q 512.5 658.7623904692009, 525 616.5668818750419" fill="none" stroke="#7fa8c2" stroke-width="1.29" opacity="0.27"/>
<rect x="825" y="450" width="150" height="150" fill="#0e2a24"/>
<path d="M 825 485.3811199706979 L 825.4878805987537 475.1962230540812 L 851.1087485285742 519.1582303843461 L 863.4085391339447 456.695492612198 L 893.4745885378549 577.4985180934891 L 906.9653095805219 516.8275624047965 L 931.4777160372053 454.0983490180224 L 950.4375989703195 520.8881594357081 L 975 567.7934910252225 L 975 600 L 825 600 Z" fill="#1f7a6a" opacity="0.84"/>
<path d="M 815 571.2144032190554 Q 837.5 496.46848983247764, 850 486.1747524817474 Q 862.5 563.2951893901918, 875 534.9141384009272 Q 887.5 581.7395899677649, 900 556.5460841869935 Q 912.5 500.2456805726979, 925 506.0561355901882 Q 937.5 544.4118410814553, 950 579.6649647527374 Q 962.5 518.6101945408154, 975 501.68719383655116" fill="none" stroke="#5fcbb0" stroke-width="1.00" opacity="0.29"/><path d="M 815 483.83569437777624 Q 843.75 598.4945282223634, 862.5 564.8716577212326 Q 881.25 524.93913177168, 900 553.03391298512 Q 918.75 525.129676196957, 937.5 497.1480233129114 Q 956.25 592.1795347414445, 975 558.4890917642042" fill="none" stroke="#5fcbb0" stroke-width="1.44" opacity="0.27"/><path d="M 815 480.2274595736526 Q 840 493.6178412695881, 855 469.8967461590655 Q 870 615.2964169566985, 885 591.3729206426069 Q 900 558.1090565363411, 915 594.4506548345089 Q 930 518.3035887836013, 945 536.1193428165279 Q 960 533.4888162498828, 975 526.4673170750029" fill="none" stroke="#5fcbb0" stroke-width="0.91" opacity="0.46"/><path d="M 815 498.68342435220256 Q 835.7142857142858 607.4678711942397, 846.4285714285714 579.6420346247032 Q 857.1428571428572 539.9089527782053, 867.8571428571429 505.08917458355427 Q 878.5714285714287 465.9628123801667, 889.2857142857143 478.0071532703005 Q 900 450.6921736523509, 910.7142857142857 487.1873044408858 Q 921.4285714285714 536.6154266288504, 932.1428571428571 564.6766541758552 Q 942.8571428571429 600.2495212596841, 953.5714285714286 575.3565002116375 Q 964.2857142857143 549.9416590668261, 975 579.6876746462658" fill="none" stroke="#5fcbb0" stroke-width="1.57" opacity="0.34"/><path d="M 815 575.9817680774722 Q 843.75 543.0582454777323, 862.5 542.9478567559272 Q 881.25 563.429191801697, 900 579.3852799921297 Q 918.75 501.39861596398987, 937.5 509.94689762592316 Q 956.25 463.98945456021465, 975 495.68661062512547" fill="none" stroke="#5fcbb0" stroke-width="1.35" opacity="0.25"/><path d="M 815 513.9008556457702 Q 843.75 578.5011507337913, 862.5 585.9138787491247 Q 881.25 475.3178103128448, 900 454.5432636514306 Q 918.75 483.6287124257069, 937.5 462.84252094337717 Q 956.25 539.7660714690574, 975 553.215654718224" fill="none" stroke="#5fcbb0" stroke-width="0.63" opacity="0.29"/><path d="M 815 501.8631383450702 Q 835.7142857142858 468.7597037118394, 846.4285714285714 479.8987605376169 Q 857.1428571428572 589.6585564536508, 867.8571428571429 587.1369681903161 Q 878.5714285714287 532.5260723358952, 889.2857142857143 502.49794892733917 Q 900 489.0394904999994, 910.7142857142857 493.7836903729476 Q 921.4285714285714 601.245219813427, 932.1428571428571 599.2002688581124 Q 942.8571428571429 544.9257680622395, 953.5714285714286 567.0946321450174 Q 964.2857142857143 563.94571106066, 975 561.3178042229265" fill="none" stroke="#5fcbb0" stroke-width="0.88" opacity="0.27"/>
<rect x="1200" y="150" width="150" height="150" fill="#0e1c2e"/>
<path d="M 1200 170.2107268734835 L 1207.8491916507483 242.92797219241038 L 1233.6604319810867 154.28167496575043 L 1265.5703225769103 263.2176665822044 L 1289.53218190372 209.06725093955174 L 1319.8849575519562 240.67199231358245 L 1350 249.305026140064 L 1350 300 L 1200 300 Z" fill="#1c3a55" opacity="0.63"/>
<path d="M 1190 175.0761173281353 Q 1210.7142857142856 221.15538760554045, 1221.4285714285713 209.34075464028865 Q 1232.142857142857 329.7466933610849, 1242.857142857143 293.11587234260514 Q 1253.5714285714284 231.81093237362802, 1264.2857142857142 218.1487495196052 Q 1275 176.4422213542275, 1285.7142857142858 203.21180635364726 Q 1296.4285714285713 210.95095751225017, 1307.142857142857 197.80197195941582 Q 1317.857142857143 236.48030795739032, 1328.5714285714287 273.9211830077693 Q 1339.2857142857142 267.30640387977473, 1350 291.22023404343054" fill="none" stroke="#7fa8c2" stroke-width="1.03" opacity="0.52"/><path d="M 1190 279.88728318479843 Q 1212.5 274.13785255048424, 1225 256.7166973021813 Q 1237.5 235.47968129860237, 1250 228.95312011241913 Q 1262.5 249.44803892285563, 1275 238.0543060018681 Q 1287.5 181.85150827048346, 1300 176.2628351454623 Q 1312.5 134.9071518459823, 1325 151.33160536643118 Q 1337.5 133.9276469720062, 1350 168.4770072461106" fill="none" stroke="#7fa8c2" stroke-width="1.51" opacity="0.39"/><path d="M 1190 249.7476719948463 Q 1212.5 232.27797069121152, 1225 269.3424927885644 Q 1237.5 192.2256224846933, 1250 213.11722858808935 Q 1262.5 278.8331991643645, 1275 269.30332377087325 Q 1287.5 322.1679584181402, 1300 286.00707513978705 Q 1312.5 241.13210187060758, 1325 266.3457776186988 Q 1337.5 266.78867076407187, 1350 251.88816318986937" fill="none" stroke="#7fa8c2" stroke-width="0.64" opacity="0.45"/><path d="M 1190 219.27570161875337 Q 1210.7142857142856 199.2959269147832, 1221.4285714285713 227.6784956571646 Q 1232.142857142857 243.58342610648833, 1242.857142857143 232.61314525734633 Q 1253.5714285714284 184.07189645804465, 1264.2857142857142 216.63228159304708 Q 1275 281.55823244014755, 1285.7142857142858 277.89825591025874 Q 1296.4285714285713 171.130557206925, 1307.142857142857 178.42101560672745 Q 1317.857142857143 256.433876225492, 1328.5714285714287 265.39371551480144 Q 1339.2857142857142 238.56222635367885, 1350 244.0950584365055" fill="none" stroke="#7fa8c2" stroke-width="1.55" opacity="0.31"/><path d="M 1190 219.59372603916563 Q 1210.7142857142856 257.36042620847, 1221.4285714285713 285.0415155175142 Q 1232.142857142857 315.33910111756995, 1242.857142857143 280.0405164482072 Q 1253.5714285714284 257.3433013691101, 1264.2857142857142 249.11771655315533 Q 1275 257.9786423128098, 1285.7142857142858 293.5767776565626 Q 1296.4285714285713 156.08307404327206, 1307.142857142857 170.54776983568445 Q 1317.857142857143 177.0659313595388, 1328.5714285714287 172.3734779166989 Q 1339.2857142857142 136.43502242630348, 1350 162.1762545313686" fill="none" stroke="#7fa8c2" stroke-width="0.65" opacity="0.35"/><path d="M 1190 197.43314350023866 Q 1210.7142857142856 271.4502852293663, 1221.4285714285713 251.13762519322336 Q 1232.142857142857 206.38300121063367, 1242.857142857143 219.40901807975024 Q 1253.5714285714284 203.56213812483475, 1264.2857142857142 216.8952295789495 Q 1275 163.2838414690923, 1285.7142857142858 182.3259126744233 Q 1296.4285714285713 212.6712976489216, 1307.142857142857 234.9141312763095 Q 1317.857142857143 239.51076811063103, 1328.5714285714287 245.05152327474207 Q 1339.2857142857142 310.7269553176593, 1350 297.6606592303142" fill="none" stroke="#7fa8c2" stroke-width="1.08" opacity="0.44"/><path d="M 1190 288.870271530468 Q 1215 225.45244147768244, 1230 231.20905626565218 Q 1245 237.8015823487658, 1260 216.1642657360062 Q 1275 186.32293492555618, 1290 164.4755719578825 Q 1305 171.5573384135496, 1320 172.1389373531565 Q 1335 196.93361155805178, 1350 231.75375469727442" fill="none" stroke="#7fa8c2" stroke-width="0.92" opacity="0.41"/><path d="M 1190 275.2283943677321 Q 1212.5 290.21024097455665, 1225 265.679256641306 Q 1237.5 225.44380485196598, 1250 198.0027812649496 Q 1262.5 242.18037355458364, 1275 265.56925212498754 Q 1287.5 201.74045230960473, 1300 170.1498583308421 Q 1312.5 167.62202378595248, 1325 166.44525640876964 Q 1337.5 174.96328867273405, 1350 153.34515664726496" fill="none" stroke="#7fa8c2" stroke-width="1.42" opacity="0.33"/>
<rect x="1350" y="450" width="150" height="150" fill="#123a33"/>
<path d="M 1350 485.3807394322939 L 1348.624903846532 455.97192192217335 L 1374.6420492194593 491.97464474709705 L 1387.6384525448084 489.03806809103116 L 1399.5273359753191 476.12858325010166 L 1428.5212231986225 495.2683381852694 L 1448.3318359777331 474.4398886570707 L 1456.2089718654752 481.8610769114457 L 1486.8065042756498 559.5235518179834 L 1500 546.704849669477 L 1500 600 L 1350 600 Z" fill="#1f7a6a" opacity="0.72"/>
<path d="M 1340 574.3211160774808 Q 1368.75 561.941288493108, 1387.5 556.4739727880806 Q 1406.25 516.144754900597, 1425 519.0565328928642 Q 1443.75 585.2516191662289, 1462.5 562.3801177251153 Q 1481.25 541.6629274841398, 1500 559.4807517598383" fill="none" stroke="#5fcbb0" stroke-width="1.25" opacity="0.37"/><path d="M 1340 495.3416395210661 Q 1362.5 598.7158507341519, 1375 586.4974220632575 Q 1387.5 490.0449658452999, 1400 497.43064111098647 Q 1412.5 503.48934826324694, 1425 522.0288354204968 Q 1437.5 546.5766639215872, 1450 542.9817387135699 Q 1462.5 462.6531474699732, 1475 485.6559040839784 Q 1487.5 517.0110704493709, 1500 493.56761161470786" fill="none" stroke="#5fcbb0" stroke-width="1.34" opacity="0.25"/><path d="M 1340 454.6188589569647 Q 1362.5 486.1061440373305, 1375 509.40888540353626 Q 1387.5 570.9399494924583, 1400 544.703668425791 Q 1412.5 472.8748328285292, 1425 505.9232966392301 Q 1437.5 560.1989960297942, 1450 554.6733424183913 Q 1462.5 503.33876220392995, 1475 477.02918151626363 Q 1487.5 508.89007441001013, 1500 515.5521887121722" fill="none" stroke="#5fcbb0" stroke-width="1.03" opacity="0.35"/><path d="M 1340 552.0606545254122 Q 1362.5 497.4147197732236, 1375 533.0337375635281 Q 1387.5 516.9642284803558, 1400 552.3531980928965 Q 1412.5 492.6696305454243, 1425 479.15949679445475 Q 1437.5 506.54077663784847, 1450 506.7090214113705 Q 1462.5 591.1006812646519, 1475 597.5370517931879 Q 1487.5 635.0929468462709, 1500 599.9496000353247" fill="none" stroke="#5fcbb0" stroke-width="1.06" opacity="0.34"/><path d="M 1340 515.7519320806023 Q 1368.75 489.81136845541187, 1387.5 498.3716162969358 Q 1406.25 462.6059505622834, 1425 493.20650378940627 Q 1443.75 529.6340271248482, 1462.5 524.5831419713795 Q 1481.25 531.318675581133, 1500 546.992203721311" fill="none" stroke="#5fcbb0" stroke-width="1.47" opacity="0.48"/><path d="M 1340 502.010218774667 Q 1360.7142857142856 466.67662508552894, 1371.4285714285713 475.8810232859105 Q 1382.142857142857 496.03914722101763, 1392.857142857143 487.9909853450954 Q 1403.5714285714284 498.87361602159217, 1414.2857142857142 512.9879380110651 Q 1425 460.81593272974715, 1435.7142857142858 455.99463754333556 Q 1446.4285714285713 519.9497118999716, 1457.142857142857 509.668056468945 Q 1467.857142857143 507.87132026162, 1478.5714285714287 520.7873980281875 Q 1489.2857142857142 563.4978518122807, 1500 591.2000728421845" fill="none" stroke="#5fcbb0" stroke-width="0.73" opacity="0.24"/><path d="M 1340 475.4756347357761 Q 1360.7142857142856 594.9502845411189, 1371.4285714285713 592.4320555874147 Q 1382.142857142857 545.2063935168553, 1392.857142857143 515.4502042452805 Q 1403.5714285714284 448.29086091485806, 1414.2857142857142 471.12906421534717 Q 1425 477.49413654673845, 1435.7142857142858 450.9995324537158 Q 1446.4285714285713 510.00666836625896, 1457.142857142857 539.844940812327 Q 1467.857142857143 531.1537557165138, 1478.5714285714287 500.8475031936541 Q 1489.2857142857142 530.6840229488444, 1500 537.4806632171385" fill="none" stroke="#5fcbb0" stroke-width="1.54" opacity="0.40"/>
<rect x="0" y="450" width="75" height="375" fill="#0c241f"/>
<path d="M 0 526.061236183159 L -4.500733595341444 563.4475308645051 L 2.739631073283297 525.2743711054791 L 15.760733626250708 795.2074516389985 L 27.54806037726147 504.8630010453053 L 47.67422317234533 583.4984824061394 L 59.134586539651664 752.4898440053221 L 62.86447746147003 629.336559958756 L 75 706.2524091394152 L 75 825 L 0 825 Z" fill="#1a6b5f" opacity="0.81"/>
<path d="M -10 573.6823494604323 Q 9.375 727.5274004379753, 18.75 719.2752035509329 Q 28.125 672.9614933312405, 37.5 759.1578321182169 Q 46.875 696.3659588538576, 56.25 644.5820400724187 Q 65.625 619.4612498686183, 75 573.6081636452582" fill="none" stroke="#8fe4cf" stroke-width="1.50" opacity="0.39"/><path d="M -10 568.3534504612908 Q 6.25 684.7425925545394, 12.5 640.1033064059447 Q 18.75 708.0118831247091, 25 716.4196801779326 Q 31.25 477.10430066508707, 37.5 476.62665167008527 Q 43.75 551.621554538724, 50 514.3556801369414 Q 56.25 583.1282833853038, 62.5 676.44571235287 Q 68.75 613.4084087563679, 75 540.9077968681231" fill="none" stroke="#8fe4cf" stroke-width="1.07" opacity="0.43"/><path d="M -10 622.5677605572855 Q 9.375 451.8987638759427, 18.75 456.6801688517444 Q 28.125 667.50526787946, 37.5 640.2647615934256 Q 46.875 591.4124982256908, 56.25 671.7881953110918 Q 65.625 451.23915074800607, 75 499.18138167704456" fill="none" stroke="#8fe4cf" stroke-width="1.29" opacity="0.42"/><path d="M -10 714.5078878384084 Q 7.5 764.439141395269, 15 813.3183290949091 Q 22.5 782.7556986623676, 30 774.1536452842411 Q 37.5 815.590533867362, 45 784.7352245764341 Q 52.5 682.7347689861199, 60 742.7868076076265 Q 67.5 512.1081237477483, 75 485.00338495359756" fill="none" stroke="#8fe4cf" stroke-width="0.83" opacity="0.43"/><path d="M -10 616.184993259958 Q 5.357142857142857 674.0818122663768, 10.714285714285714 720.539205725072 Q 16.07142857142857 708.1284435727866, 21.428571428571427 789.1630249097943 Q 26.78571428571429 633.0831070546992, 32.142857142857146 676.4814239752013 Q 37.5 733.2475152245024, 42.857142857142854 768.237967294408 Q 48.214285714285715 791.60198472091, 53.57142857142857 709.5864512259141 Q 58.92857142857144 791.6032699460629, 64.28571428571429 785.6474556494504 Q 69.64285714285714 585.7886540936306, 75 620.5958168604411" fill="none" stroke="#8fe4cf" stroke-width="1.20" opacity="0.50"/>
<rect x="75" y="450" width="75" height="375" fill="#123a33"/>
<path d="M 75 525.687846931396 L 71.78699962794781 459.745479299454 L 79.71457752212882 562.0682711480185 L 97.04910466820002 727.4336091242731 L 95.86880519241095 564.694961317582 L 107.32187411189079 795.8002412226051 L 114.79800970107317 543.0168482009321 L 132.2185575403273 457.9237500031013 L 139.04270200058818 787.7876951708458 L 150 747.1326853323262 L 150 825 L 75 825 Z" fill="#1a6b5f" opacity="0.64"/>
<path d="M 65 777.129248395795 Q 84.375 824.7656324703712, 93.75 765.6648221192881 Q 103.125 538.8128149090335, 112.5 586.811908450909 Q 121.875 751.779292174615, 131.25 694.9985306302551 Q 140.625 656.0681613511406, 150 653.1702374224551" fill="none" stroke="#8fe4cf" stroke-width="1.19" opacity="0.42"/><path d="M 65 791.7376437282655 Q 84.375 795.5161848542048, 93.75 800.0919621437788 Q 103.125 677.6510884403251, 112.5 720.545573614072 Q 121.875 751.2878522422398, 131.25 790.251973393606 Q 140.625 535.2651758759748, 150 462.7220342110377" fill="none" stroke="#8fe4cf" stroke-width="0.70" opacity="0.36"/><path d="M 65 761.7617214855272 Q 81.25 730.9863779693842, 87.5 708.7527077703271 Q 93.75 587.4299207527656, 100 651.6256316564977 Q 106.25 424.6027628862066, 112.5 496.93122414755635 Q 118.75 616.3794238411356, 125 587.367502815323 Q 131.25 587.0156614721054, 137.5 633.1799165520351 Q 143.75 480.5608058843063, 150 451.64365087402984" fill="none" stroke="#8fe4cf" stroke-width="1.20" opacity="0.45"/><path d="M 65 611.263742891606 Q 84.375 652.2547802771442, 93.75 671.890136890579 Q 103.125 751.9506188866217, 112.5 710.4765126889106 Q 121.875 499.9089409131557, 131.25 579.7397256712429 Q 140.625 703.0009380716365, 150 651.5547117625829" fill="none" stroke="#8fe4cf" stroke-width="1.06" opacity="0.33"/><path d="M 65 519.3474900646834 Q 84.375 640.9034321870422, 93.75 675.6600711552892 Q 103.125 777.7859874651767, 112.5 819.7735449532047 Q 121.875 718.8353396952152, 131.25 771.7909767699894 Q 140.625 533.160644659074, 150 487.7988339168951" fill="none" stroke="#8fe4cf" stroke-width="1.30" opacity="0.30"/>
<rect x="900" y="675" width="150" height="150" fill="#0d2620"/>
<path d="M 900 693.0602493952028 L 902.2534332759678 751.4324949122965 L 931.775500241667 734.9757254007272 L 948.5364423133433 753.2887454959564 L 967.5025353953242 764.1040392452851 L 1001.4210767000914 801.4129473245703 L 1018.6831071302295 799.2101295967586 L 1050 781.2061934871599 L 1050 825 L 900 825 Z" fill="#1f7a6a" opacity="0.83"/>
<path d="M 890 770.8402091322932 Q 915 695.9656084247399, 930 718.2942512794398 Q 945 785.049058223376, 960 797.540616011247 Q 975 725.0926537730265, 990 729.1840202989988 Q 1005 720.7822201657109, 1020 685.7849230058491 Q 1035 690.9387887455523, 1050 710.1982160238549" fill="none" stroke="#5fcbb0" stroke-width="1.08" opacity="0.40"/><path d="M 890 694.2366499034688 Q 915 710.989275353495, 930 701.5593192307279 Q 945 817.1519455499947, 960 805.3825480397791 Q 975 664.6746035723481, 990 689.615592523478 Q 1005 659.8873116541654, 1020 690.5458728899248 Q 1035 773.2177823432721, 1050 772.5637766998261" fill="none" stroke="#5fcbb0" stroke-width="1.16" opacity="0.44"/><path d="M 890 751.5987121907528 Q 915 778.6776716122404, 930 770.9482735488564 Q 945 755.5953680479433, 960 722.968749969732 Q 975 741.777378343977, 990 711.4185576676391 Q 1005 787.5728140119463, 1020 773.7201509415172 Q 1035 721.8685032916255, 1050 742.3241612152196" fill="none" stroke="#5fcbb0" stroke-width="1.60" opacity="0.23"/><path d="M 890 791.1635916028172 Q 912.5 799.7135815385263, 925 773.5002343193628 Q 937.5 678.8965087733231, 950 711.054881347809 Q 962.5 722.048159519909, 975 700.0045666471124 Q 987.5 786.2788971047848, 1000 808.2119744969532 Q 1012.5 686.4589416130912, 1025 695.0940325856209 Q 1037.5 704.7891239519231, 1050 734.9722683196887" fill="none" stroke="#5fcbb0" stroke-width="1.54" opacity="0.37"/><path d="M 890 780.668671389576 Q 918.75 792.6760737493169, 937.5 822.7107577258721 Q 956.25 683.8849129329901, 975 719.5186416967772 Q 993.75 746.5501198021229, 1012.5 717.3394629964605 Q 1031.25 718.83835864719, 1050 722.952645434998" fill="none" stroke="#5fcbb0" stroke-width="0.71" opacity="0.25"/><path d="M 890 768.1823789910413 Q 918.75 698.6587048857473, 937.5 709.8827271955088 Q 956.25 677.3218165151775, 975 700.7203934714198 Q 993.75 698.9522918360308, 1012.5 728.4403329365887 Q 1031.25 748.9782901480794, 1050 749.5018479879946" fill="none" stroke="#5fcbb0" stroke-width="0.60" opacity="0.43"/><path d="M 890 820.4304295498878 Q 918.75 780.7884768408258, 937.5 797.9672309942544 Q 956.25 731.5462720580399, 975 698.494370339904 Q 993.75 832.4030573596247, 1012.5 822.8629285935313 Q 1031.25 760.6784745818004, 1050 758.6502499412745" fill="none" stroke="#5fcbb0" stroke-width="0.90" opacity="0.21"/>
<rect x="150" y="0" width="75" height="75" fill="#163257"/>
<rect x="225" y="0" width="75" height="75" fill="#0f2e29"/>
<rect x="300" y="0" width="75" height="75" fill="#0a0c0f"/>
<g stroke="#eef0f2" stroke-width="1" fill="none" opacity="0.55">
    <path d="M 313.5 17.5 L 313.5 13.5 L 317.5 13.5"/>
    <path d="M 361.5 17.5 L 361.5 13.5 L 357.5 13.5"/>
    <path d="M 313.5 57.5 L 313.5 61.5 L 317.5 61.5"/>
    <path d="M 361.5 57.5 L 361.5 61.5 L 357.5 61.5"/>
  </g>
<rect x="375" y="0" width="75" height="75" fill="#292d35"/>
<rect x="450" y="0" width="75" height="75" fill="#0f2e29"/>
<circle cx="470.7" cy="20.7" r="0.9" fill="#e8eaec" opacity="0.7"/><circle cx="487.5" cy="20.7" r="0.9" fill="#e8eaec" opacity="0.7"/><circle cx="504.3" cy="20.7" r="0.9" fill="#e8eaec" opacity="0.7"/><circle cx="470.7" cy="37.5" r="0.9" fill="#e8eaec" opacity="0.7"/><circle cx="487.5" cy="37.5" r="0.9" fill="#e8eaec" opacity="0.7"/><circle cx="504.3" cy="37.5" r="0.9" fill="#e8eaec" opacity="0.7"/><circle cx="470.7" cy="54.3" r="0.9" fill="#e8eaec" opacity="0.7"/><circle cx="487.5" cy="54.3" r="0.9" fill="#e8eaec" opacity="0.7"/><circle cx="504.3" cy="54.3" r="0.9" fill="#e8eaec" opacity="0.7"/>
<rect x="525" y="0" width="75" height="75" fill="#0e1013"/>
<rect x="600" y="0" width="75" height="75" fill="#0e1013"/>
<rect x="675" y="0" width="75" height="75" fill="#132846"/>
<rect x="750" y="0" width="75" height="75" fill="#131519"/>
<rect x="825" y="0" width="75" height="75" fill="#4a4f57"/>
<rect x="900" y="0" width="75" height="75" fill="#0e1013"/>
<rect x="975" y="0" width="75" height="75" fill="#204a7c"/>
<rect x="1050" y="0" width="75" height="75" fill="#4a4f57"/>
<circle cx="1070.7" cy="20.7" r="0.9" fill="#e8eaec" opacity="0.7"/><circle cx="1079.1" cy="20.7" r="0.9" fill="#e8eaec" opacity="0.7"/><circle cx="1087.5" cy="20.7" r="0.9" fill="#e8eaec" opacity="0.7"/><circle cx="1095.9" cy="20.7" r="0.9" fill="#e8eaec" opacity="0.7"/><circle cx="1104.3" cy="20.7" r="0.9" fill="#e8eaec" opacity="0.7"/><circle cx="1070.7" cy="29.1" r="0.9" fill="#e8eaec" opacity="0.7"/><circle cx="1079.1" cy="29.1" r="0.9" fill="#e8eaec" opacity="0.7"/><circle cx="1087.5" cy="29.1" r="0.9" fill="#e8eaec" opacity="0.7"/><circle cx="1095.9" cy="29.1" r="0.9" fill="#e8eaec" opacity="0.7"/><circle cx="1104.3" cy="29.1" r="0.9" fill="#e8eaec" opacity="0.7"/><circle cx="1070.7" cy="37.5" r="0.9" fill="#e8eaec" opacity="0.7"/><circle cx="1079.1" cy="37.5" r="0.9" fill="#e8eaec" opacity="0.7"/><circle cx="1087.5" cy="37.5" r="0.9" fill="#e8eaec" opacity="0.7"/><circle cx="1095.9" cy="37.5" r="0.9" fill="#e8eaec" opacity="0.7"/><circle cx="1104.3" cy="37.5" r="0.9" fill="#e8eaec" opacity="0.7"/><circle cx="1070.7" cy="45.9" r="0.9" fill="#e8eaec" opacity="0.7"/><circle cx="1079.1" cy="45.9" r="0.9" fill="#e8eaec" opacity="0.7"/><circle cx="1087.5" cy="45.9" r="0.9" fill="#e8eaec" opacity="0.7"/><circle cx="1095.9" cy="45.9" r="0.9" fill="#e8eaec" opacity="0.7"/><circle cx="1104.3" cy="45.9" r="0.9" fill="#e8eaec" opacity="0.7"/><circle cx="1070.7" cy="54.3" r="0.9" fill="#e8eaec" opacity="0.7"/><circle cx="1079.1" cy="54.3" r="0.9" fill="#e8eaec" opacity="0.7"/><circle cx="1087.5" cy="54.3" r="0.9" fill="#e8eaec" opacity="0.7"/><circle cx="1095.9" cy="54.3" r="0.9" fill="#e8eaec" opacity="0.7"/><circle cx="1104.3" cy="54.3" r="0.9" fill="#e8eaec" opacity="0.7"/>
<rect x="1125" y="0" width="75" height="75" fill="#292d35"/>
<rect x="1200" y="0" width="75" height="75" fill="#163257"/>
<rect x="1275" y="0" width="75" height="75" fill="#123a33"/>
<rect x="1350" y="0" width="75" height="75" fill="#101f36"/>
<rect x="1425" y="0" width="75" height="75" fill="#123a33"/>
<rect x="1500" y="0" width="75" height="75" fill="#131519"/>
<rect x="1575" y="0" width="75" height="75" fill="#e2e4e7"/>
<rect x="150" y="75" width="75" height="75" fill="#22262d"/>
<rect x="225" y="75" width="75" height="75" fill="#279884"/>
<rect x="300" y="75" width="75" height="75" fill="#31353d"/>
<rect x="675" y="75" width="75" height="75" fill="#0e1013"/>
<rect x="750" y="75" width="75" height="75" fill="#565b63"/>
<rect x="825" y="75" width="75" height="75" fill="#101f36"/>
<rect x="900" y="75" width="75" height="75" fill="#292d35"/>
<rect x="975" y="75" width="75" height="75" fill="#132846"/>
<rect x="1050" y="75" width="75" height="75" fill="#132846"/>
<rect x="1125" y="75" width="75" height="75" fill="#292d35"/>
<rect x="1200" y="75" width="75" height="75" fill="#131519"/>
<rect x="1275" y="75" width="75" height="75" fill="#8b9198"/>
<rect x="1350" y="75" width="75" height="75" fill="#0a0c0f"/>
<rect x="1425" y="75" width="75" height="75" fill="#132846"/>
<g stroke="#eef0f2" stroke-width="1" opacity="0.55">
    <line x1="1452" y1="112.5" x2="1473" y2="112.5"/>
    <line x1="1462.5" y1="102" x2="1462.5" y2="123"/>
  </g>
<rect x="1500" y="75" width="75" height="75" fill="#31353d"/>
<rect x="1575" y="75" width="75" height="75" fill="#61666e"/>
<circle cx="1595.7" cy="95.7" r="0.9" fill="#e8eaec" opacity="0.7"/><circle cx="1604.1" cy="95.7" r="0.9" fill="#e8eaec" opacity="0.7"/><circle cx="1612.5" cy="95.7" r="0.9" fill="#e8eaec" opacity="0.7"/><circle cx="1620.9" cy="95.7" r="0.9" fill="#e8eaec" opacity="0.7"/><circle cx="1629.3" cy="95.7" r="0.9" fill="#e8eaec" opacity="0.7"/><circle cx="1595.7" cy="104.1" r="0.9" fill="#e8eaec" opacity="0.7"/><circle cx="1604.1" cy="104.1" r="0.9" fill="#e8eaec" opacity="0.7"/><circle cx="1612.5" cy="104.1" r="0.9" fill="#e8eaec" opacity="0.7"/><circle cx="1620.9" cy="104.1" r="0.9" fill="#e8eaec" opacity="0.7"/><circle cx="1629.3" cy="104.1" r="0.9" fill="#e8eaec" opacity="0.7"/><circle cx="1595.7" cy="112.5" r="0.9" fill="#e8eaec" opacity="0.7"/><circle cx="1604.1" cy="112.5" r="0.9" fill="#e8eaec" opacity="0.7"/><circle cx="1612.5" cy="112.5" r="0.9" fill="#e8eaec" opacity="0.7"/><circle cx="1620.9" cy="112.5" r="0.9" fill="#e8eaec" opacity="0.7"/><circle cx="1629.3" cy="112.5" r="0.9" fill="#e8eaec" opacity="0.7"/><circle cx="1595.7" cy="120.9" r="0.9" fill="#e8eaec" opacity="0.7"/><circle cx="1604.1" cy="120.9" r="0.9" fill="#e8eaec" opacity="0.7"/><circle cx="1612.5" cy="120.9" r="0.9" fill="#e8eaec" opacity="0.7"/><circle cx="1620.9" cy="120.9" r="0.9" fill="#e8eaec" opacity="0.7"/><circle cx="1629.3" cy="120.9" r="0.9" fill="#e8eaec" opacity="0.7"/><circle cx="1595.7" cy="129.3" r="0.9" fill="#e8eaec" opacity="0.7"/><circle cx="1604.1" cy="129.3" r="0.9" fill="#e8eaec" opacity="0.7"/><circle cx="1612.5" cy="129.3" r="0.9" fill="#e8eaec" opacity="0.7"/><circle cx="1620.9" cy="129.3" r="0.9" fill="#e8eaec" opacity="0.7"/><circle cx="1629.3" cy="129.3" r="0.9" fill="#e8eaec" opacity="0.7"/>
<rect x="0" y="150" width="75" height="75" fill="#123a33"/>
<rect x="75" y="150" width="75" height="75" fill="#163257"/>
<rect x="150" y="150" width="75" height="75" fill="#164a41"/>
<circle cx="170.7" cy="170.7" r="0.9" fill="#e8eaec" opacity="0.7"/><circle cx="179.1" cy="170.7" r="0.9" fill="#e8eaec" opacity="0.7"/><circle cx="187.5" cy="170.7" r="0.9" fill="#e8eaec" opacity="0.7"/><circle cx="195.9" cy="170.7" r="0.9" fill="#e8eaec" opacity="0.7"/><circle cx="204.3" cy="170.7" r="0.9" fill="#e8eaec" opacity="0.7"/><circle cx="170.7" cy="179.1" r="0.9" fill="#e8eaec" opacity="0.7"/><circle cx="179.1" cy="179.1" r="0.9" fill="#e8eaec" opacity="0.7"/><circle cx="187.5" cy="179.1" r="0.9" fill="#e8eaec" opacity="0.7"/><circle cx="195.9" cy="179.1" r="0.9" fill="#e8eaec" opacity="0.7"/><circle cx="204.3" cy="179.1" r="0.9" fill="#e8eaec" opacity="0.7"/><circle cx="170.7" cy="187.5" r="0.9" fill="#e8eaec" opacity="0.7"/><circle cx="179.1" cy="187.5" r="0.9" fill="#e8eaec" opacity="0.7"/><circle cx="187.5" cy="187.5" r="0.9" fill="#e8eaec" opacity="0.7"/><circle cx="195.9" cy="187.5" r="0.9" fill="#e8eaec" opacity="0.7"/><circle cx="204.3" cy="187.5" r="0.9" fill="#e8eaec" opacity="0.7"/><circle cx="170.7" cy="195.9" r="0.9" fill="#e8eaec" opacity="0.7"/><circle cx="179.1" cy="195.9" r="0.9" fill="#e8eaec" opacity="0.7"/><circle cx="187.5" cy="195.9" r="0.9" fill="#e8eaec" opacity="0.7"/><circle cx="195.9" cy="195.9" r="0.9" fill="#e8eaec" opacity="0.7"/><circle cx="204.3" cy="195.9" r="0.9" fill="#e8eaec" opacity="0.7"/><circle cx="170.7" cy="204.3" r="0.9" fill="#e8eaec" opacity="0.7"/><circle cx="179.1" cy="204.3" r="0.9" fill="#e8eaec" opacity="0.7"/><circle cx="187.5" cy="204.3" r="0.9" fill="#e8eaec" opacity="0.7"/><circle cx="195.9" cy="204.3" r="0.9" fill="#e8eaec" opacity="0.7"/><circle cx="204.3" cy="204.3" r="0.9" fill="#e8eaec" opacity="0.7"/>
<rect x="225" y="150" width="75" height="75" fill="#9ea4ab"/>
<rect x="300" y="150" width="75" height="75" fill="#131519"/>
<circle cx="320.7" cy="170.7" r="0.9" fill="#e8eaec" opacity="0.7"/><circle cx="337.5" cy="170.7" r="0.9" fill="#e8eaec" opacity="0.7"/><circle cx="354.3" cy="170.7" r="0.9" fill="#e8eaec" opacity="0.7"/><circle cx="320.7" cy="187.5" r="0.9" fill="#e8eaec" opacity="0.7"/><circle cx="337.5" cy="187.5" r="0.9" fill="#e8eaec" opacity="0.7"/><circle cx="354.3" cy="187.5" r="0.9" fill="#e8eaec" opacity="0.7"/><circle cx="320.7" cy="204.3" r="0.9" fill="#e8eaec" opacity="0.7"/><circle cx="337.5" cy="204.3" r="0.9" fill="#e8eaec" opacity="0.7"/><circle cx="354.3" cy="204.3" r="0.9" fill="#e8eaec" opacity="0.7"/>
<rect x="675" y="150" width="75" height="75" fill="#31353d"/>
<rect x="750" y="150" width="75" height="75" fill="#163257"/>
<rect x="825" y="150" width="75" height="75" fill="#1a6459"/>
<rect x="900" y="150" width="75" height="75" fill="#31353d"/>
<rect x="975" y="150" width="75" height="75" fill="#22262d"/>
<rect x="1050" y="150" width="75" height="75" fill="#d7dade"/>
<rect x="1125" y="150" width="75" height="75" fill="#132846"/>
<rect x="1350" y="150" width="75" height="75" fill="#292d35"/>
<rect x="1425" y="150" width="75" height="75" fill="#163257"/>
<rect x="1500" y="150" width="75" height="75" fill="#9ea4ab"/>
<rect x="1575" y="150" width="75" height="75" fill="#22262d"/>
<circle cx="1595.7" cy="170.7" r="0.9" fill="#e8eaec" opacity="0.7"/><circle cx="1606.9" cy="170.7" r="0.9" fill="#e8eaec" opacity="0.7"/><circle cx="1618.1" cy="170.7" r="0.9" fill="#e8eaec" opacity="0.7"/><circle cx="1629.3" cy="170.7" r="0.9" fill="#e8eaec" opacity="0.7"/><circle cx="1595.7" cy="181.9" r="0.9" fill="#e8eaec" opacity="0.7"/><circle cx="1606.9" cy="181.9" r="0.9" fill="#e8eaec" opacity="0.7"/><circle cx="1618.1" cy="181.9" r="0.9" fill="#e8eaec" opacity="0.7"/><circle cx="1629.3" cy="181.9" r="0.9" fill="#e8eaec" opacity="0.7"/><circle cx="1595.7" cy="193.1" r="0.9" fill="#e8eaec" opacity="0.7"/><circle cx="1606.9" cy="193.1" r="0.9" fill="#e8eaec" opacity="0.7"/><circle cx="1618.1" cy="193.1" r="0.9" fill="#e8eaec" opacity="0.7"/><circle cx="1629.3" cy="193.1" r="0.9" fill="#e8eaec" opacity="0.7"/><circle cx="1595.7" cy="204.3" r="0.9" fill="#e8eaec" opacity="0.7"/><circle cx="1606.9" cy="204.3" r="0.9" fill="#e8eaec" opacity="0.7"/><circle cx="1618.1" cy="204.3" r="0.9" fill="#e8eaec" opacity="0.7"/><circle cx="1629.3" cy="204.3" r="0.9" fill="#e8eaec" opacity="0.7"/>
<rect x="0" y="225" width="75" height="75" fill="#c9cdd2"/>
<rect x="75" y="225" width="75" height="75" fill="#0f2e29"/>
<rect x="150" y="225" width="75" height="75" fill="#131519"/>
<rect x="225" y="225" width="75" height="75" fill="#0a0c0f"/>
<circle cx="245.7" cy="245.7" r="0.9" fill="#e8eaec" opacity="0.7"/><circle cx="254.1" cy="245.7" r="0.9" fill="#e8eaec" opacity="0.7"/><circle cx="262.5" cy="245.7" r="0.9" fill="#e8eaec" opacity="0.7"/><circle cx="270.9" cy="245.7" r="0.9" fill="#e8eaec" opacity="0.7"/><circle cx="279.3" cy="245.7" r="0.9" fill="#e8eaec" opacity="0.7"/><circle cx="245.7" cy="254.1" r="0.9" fill="#e8eaec" opacity="0.7"/><circle cx="254.1" cy="254.1" r="0.9" fill="#e8eaec" opacity="0.7"/><circle cx="262.5" cy="254.1" r="0.9" fill="#e8eaec" opacity="0.7"/><circle cx="270.9" cy="254.1" r="0.9" fill="#e8eaec" opacity="0.7"/><circle cx="279.3" cy="254.1" r="0.9" fill="#e8eaec" opacity="0.7"/><circle cx="245.7" cy="262.5" r="0.9" fill="#e8eaec" opacity="0.7"/><circle cx="254.1" cy="262.5" r="0.9" fill="#e8eaec" opacity="0.7"/><circle cx="262.5" cy="262.5" r="0.9" fill="#e8eaec" opacity="0.7"/><circle cx="270.9" cy="262.5" r="0.9" fill="#e8eaec" opacity="0.7"/><circle cx="279.3" cy="262.5" r="0.9" fill="#e8eaec" opacity="0.7"/><circle cx="245.7" cy="270.9" r="0.9" fill="#e8eaec" opacity="0.7"/><circle cx="254.1" cy="270.9" r="0.9" fill="#e8eaec" opacity="0.7"/><circle cx="262.5" cy="270.9" r="0.9" fill="#e8eaec" opacity="0.7"/><circle cx="270.9" cy="270.9" r="0.9" fill="#e8eaec" opacity="0.7"/><circle cx="279.3" cy="270.9" r="0.9" fill="#e8eaec" opacity="0.7"/><circle cx="245.7" cy="279.3" r="0.9" fill="#e8eaec" opacity="0.7"/><circle cx="254.1" cy="279.3" r="0.9" fill="#e8eaec" opacity="0.7"/><circle cx="262.5" cy="279.3" r="0.9" fill="#e8eaec" opacity="0.7"/><circle cx="270.9" cy="279.3" r="0.9" fill="#e8eaec" opacity="0.7"/><circle cx="279.3" cy="279.3" r="0.9" fill="#e8eaec" opacity="0.7"/>
<rect x="300" y="225" width="75" height="75" fill="#123a33"/>
<rect x="375" y="225" width="75" height="75" fill="#31353d"/>
<rect x="450" y="225" width="75" height="75" fill="#31353d"/>
<rect x="525" y="225" width="75" height="75" fill="#0e1013"/>
<rect x="600" y="225" width="75" height="75" fill="#8b9198"/>
<rect x="675" y="225" width="75" height="75" fill="#b3b8be"/>
<rect x="750" y="225" width="75" height="75" fill="#0a0c0f"/>
<rect x="825" y="225" width="75" height="75" fill="#9ea4ab"/>
<rect x="900" y="225" width="75" height="75" fill="#9ea4ab"/>
<circle cx="920.7" cy="245.7" r="0.9" fill="#e8eaec" opacity="0.7"/><circle cx="937.5" cy="245.7" r="0.9" fill="#e8eaec" opacity="0.7"/><circle cx="954.3" cy="245.7" r="0.9" fill="#e8eaec" opacity="0.7"/><circle cx="920.7" cy="262.5" r="0.9" fill="#e8eaec" opacity="0.7"/><circle cx="937.5" cy="262.5" r="0.9" fill="#e8eaec" opacity="0.7"/><circle cx="954.3" cy="262.5" r="0.9" fill="#e8eaec" opacity="0.7"/><circle cx="920.7" cy="279.3" r="0.9" fill="#e8eaec" opacity="0.7"/><circle cx="937.5" cy="279.3" r="0.9" fill="#e8eaec" opacity="0.7"/><circle cx="954.3" cy="279.3" r="0.9" fill="#e8eaec" opacity="0.7"/>
<rect x="975" y="225" width="75" height="75" fill="#22262d"/>
<rect x="1050" y="225" width="75" height="75" fill="#8b9198"/>
<rect x="1125" y="225" width="75" height="75" fill="#279884"/>
<rect x="1350" y="225" width="75" height="75" fill="#c9cdd2"/>
<rect x="1425" y="225" width="75" height="75" fill="#1a6459"/>
<rect x="1500" y="225" width="75" height="75" fill="#0e1013"/>
<rect x="1575" y="225" width="75" height="75" fill="#22262d"/>
<path d="M 1565 290.0184267485747 Q 1580.357142857143 264.82343666721135, 1585.7142857142858 282.9810702649411 Q 1591.0714285714284 279.8223267949652, 1596.4285714285713 290.8459931029938 Q 1601.7857142857142 273.10643838427495, 1607.142857142857 258.5243266483303 Q 1612.5 299.1618845087942, 1617.857142857143 280.6548747816123 Q 1623.2142857142858 285.7531978399493, 1628.5714285714287 284.84493317082524 Q 1633.9285714285713 248.94001434731763, 1639.2857142857142 247.70295212510973 Q 1644.642857142857 290.3591922047781, 1650 291.0878919647075" fill="none" stroke="#ffffff" stroke-width="1.31" opacity="0.16"/><path d="M 1565 249.20612439222168 Q 1581.25 251.37614923005458, 1587.5 245.9199060627725 Q 1593.75 279.7118045127718, 1600 275.850739935413 Q 1606.25 247.39395260985475, 1612.5 260.41907650069334 Q 1618.75 295.83308965084143, 1625 287.11932505248114 Q 1631.25 284.3237813649466, 1637.5 285.94604866812006 Q 1643.75 238.596192287514, 1650 235.0645553029608" fill="none" stroke="#ffffff" stroke-width="0.79" opacity="0.23"/>
<rect x="0" y="300" width="75" height="75" fill="#22262d"/>
<rect x="75" y="300" width="75" height="75" fill="#163257"/>
<g stroke="#eef0f2" stroke-width="1" opacity="0.55">
    <line x1="102" y1="337.5" x2="123" y2="337.5"/>
    <line x1="112.5" y1="327" x2="112.5" y2="348"/>
  </g>
<rect x="150" y="300" width="75" height="75" fill="#0e1013"/>
<rect x="375" y="300" width="75" height="75" fill="#204a7c"/>
<rect x="450" y="300" width="75" height="75" fill="#101f36"/>
<rect x="525" y="300" width="75" height="75" fill="#b3b8be"/>
<rect x="600" y="300" width="75" height="75" fill="#8b9198"/>
<rect x="675" y="300" width="75" height="75" fill="#0e1013"/>
<rect x="750" y="300" width="75" height="75" fill="#292d35"/>
<rect x="825" y="300" width="75" height="75" fill="#164a41"/>
<circle cx="845.7" cy="320.7" r="0.9" fill="#e8eaec" opacity="0.7"/><circle cx="854.1" cy="320.7" r="0.9" fill="#e8eaec" opacity="0.7"/><circle cx="862.5" cy="320.7" r="0.9" fill="#e8eaec" opacity="0.7"/><circle cx="870.9" cy="320.7" r="0.9" fill="#e8eaec" opacity="0.7"/><circle cx="879.3" cy="320.7" r="0.9" fill="#e8eaec" opacity="0.7"/><circle cx="845.7" cy="329.1" r="0.9" fill="#e8eaec" opacity="0.7"/><circle cx="854.1" cy="329.1" r="0.9" fill="#e8eaec" opacity="0.7"/><circle cx="862.5" cy="329.1" r="0.9" fill="#e8eaec" opacity="0.7"/><circle cx="870.9" cy="329.1" r="0.9" fill="#e8eaec" opacity="0.7"/><circle cx="879.3" cy="329.1" r="0.9" fill="#e8eaec" opacity="0.7"/><circle cx="845.7" cy="337.5" r="0.9" fill="#e8eaec" opacity="0.7"/><circle cx="854.1" cy="337.5" r="0.9" fill="#e8eaec" opacity="0.7"/><circle cx="862.5" cy="337.5" r="0.9" fill="#e8eaec" opacity="0.7"/><circle cx="870.9" cy="337.5" r="0.9" fill="#e8eaec" opacity="0.7"/><circle cx="879.3" cy="337.5" r="0.9" fill="#e8eaec" opacity="0.7"/><circle cx="845.7" cy="345.9" r="0.9" fill="#e8eaec" opacity="0.7"/><circle cx="854.1" cy="345.9" r="0.9" fill="#e8eaec" opacity="0.7"/><circle cx="862.5" cy="345.9" r="0.9" fill="#e8eaec" opacity="0.7"/><circle cx="870.9" cy="345.9" r="0.9" fill="#e8eaec" opacity="0.7"/><circle cx="879.3" cy="345.9" r="0.9" fill="#e8eaec" opacity="0.7"/><circle cx="845.7" cy="354.3" r="0.9" fill="#e8eaec" opacity="0.7"/><circle cx="854.1" cy="354.3" r="0.9" fill="#e8eaec" opacity="0.7"/><circle cx="862.5" cy="354.3" r="0.9" fill="#e8eaec" opacity="0.7"/><circle cx="870.9" cy="354.3" r="0.9" fill="#e8eaec" opacity="0.7"/><circle cx="879.3" cy="354.3" r="0.9" fill="#e8eaec" opacity="0.7"/>
<rect x="900" y="300" width="75" height="75" fill="#c9cdd2"/>
<circle cx="937.5" cy="337.5" r="16.5" stroke="#eef0f2" stroke-width="1" fill="none" opacity="0.55"/>
<rect x="975" y="300" width="75" height="75" fill="#31353d"/>
<rect x="1050" y="300" width="75" height="75" fill="#0e1013"/>
<circle cx="1070.7" cy="320.7" r="0.9" fill="#e8eaec" opacity="0.7"/><circle cx="1087.5" cy="320.7" r="0.9" fill="#e8eaec" opacity="0.7"/><circle cx="1104.3" cy="320.7" r="0.9" fill="#e8eaec" opacity="0.7"/><circle cx="1070.7" cy="337.5" r="0.9" fill="#e8eaec" opacity="0.7"/><circle cx="1087.5" cy="337.5" r="0.9" fill="#e8eaec" opacity="0.7"/><circle cx="1104.3" cy="337.5" r="0.9" fill="#e8eaec" opacity="0.7"/><circle cx="1070.7" cy="354.3" r="0.9" fill="#e8eaec" opacity="0.7"/><circle cx="1087.5" cy="354.3" r="0.9" fill="#e8eaec" opacity="0.7"/><circle cx="1104.3" cy="354.3" r="0.9" fill="#e8eaec" opacity="0.7"/>
<rect x="1125" y="300" width="75" height="75" fill="#22262d"/>
<rect x="1200" y="300" width="75" height="75" fill="#204a7c"/>
<rect x="1275" y="300" width="75" height="75" fill="#0e1013"/>
<rect x="1350" y="300" width="75" height="75" fill="#0f2e29"/>
<rect x="1425" y="300" width="75" height="75" fill="#101f36"/>
<rect x="1500" y="300" width="75" height="75" fill="#0a0c0f"/>
<rect x="1575" y="300" width="75" height="75" fill="#292d35"/>
<circle cx="1595.7" cy="320.7" r="0.9" fill="#e8eaec" opacity="0.7"/><circle cx="1612.5" cy="320.7" r="0.9" fill="#e8eaec" opacity="0.7"/><circle cx="1629.3" cy="320.7" r="0.9" fill="#e8eaec" opacity="0.7"/><circle cx="1595.7" cy="337.5" r="0.9" fill="#e8eaec" opacity="0.7"/><circle cx="1612.5" cy="337.5" r="0.9" fill="#e8eaec" opacity="0.7"/><circle cx="1629.3" cy="337.5" r="0.9" fill="#e8eaec" opacity="0.7"/><circle cx="1595.7" cy="354.3" r="0.9" fill="#e8eaec" opacity="0.7"/><circle cx="1612.5" cy="354.3" r="0.9" fill="#e8eaec" opacity="0.7"/><circle cx="1629.3" cy="354.3" r="0.9" fill="#e8eaec" opacity="0.7"/>
<rect x="0" y="375" width="75" height="75" fill="#e2e4e7"/>
<rect x="75" y="375" width="75" height="75" fill="#204a7c"/>
<rect x="150" y="375" width="75" height="75" fill="#131519"/>
<rect x="375" y="375" width="75" height="75" fill="#131519"/>
<rect x="450" y="375" width="75" height="75" fill="#565b63"/>
<rect x="525" y="375" width="75" height="75" fill="#22262d"/>
<rect x="600" y="375" width="75" height="75" fill="#163257"/>
<rect x="675" y="375" width="75" height="75" fill="#22262d"/>
<rect x="750" y="375" width="75" height="75" fill="#61666e"/>
<rect x="825" y="375" width="75" height="75" fill="#4a4f57"/>
<rect x="900" y="375" width="75" height="75" fill="#131519"/>
<rect x="975" y="375" width="75" height="75" fill="#131519"/>
<rect x="1050" y="375" width="75" height="75" fill="#123a33"/>
<rect x="1125" y="375" width="75" height="75" fill="#9ea4ab"/>
<rect x="1200" y="375" width="75" height="75" fill="#101f36"/>
<rect x="1275" y="375" width="75" height="75" fill="#b3b8be"/>
<rect x="1350" y="375" width="75" height="75" fill="#b3b8be"/>
<rect x="1425" y="375" width="75" height="75" fill="#131519"/>
<rect x="1500" y="375" width="75" height="75" fill="#c9cdd2"/>
<rect x="1575" y="375" width="75" height="75" fill="#0e1013"/>
<rect x="150" y="450" width="75" height="75" fill="#9ea4ab"/>
<rect x="225" y="450" width="75" height="75" fill="#101f36"/>
<rect x="300" y="450" width="75" height="75" fill="#2a5c92"/>
<rect x="525" y="450" width="75" height="75" fill="#131519"/>
<rect x="600" y="450" width="75" height="75" fill="#565b63"/>
<circle cx="637.5" cy="487.5" r="16.5" stroke="#eef0f2" stroke-width="1" fill="none" opacity="0.55"/>
<rect x="675" y="450" width="75" height="75" fill="#4a4f57"/>
<path d="M 665 484.07557224389166 Q 682.5 511.5551286027767, 690 498.9226369012613 Q 697.5 493.56784596748184, 705 493.49475183407776 Q 712.5 501.8349534482695, 720 499.9708209943492 Q 727.5 491.72232736309525, 735 480.8132287056651 Q 742.5 507.1476232755231, 750 496.7341499228496" fill="none" stroke="#ffffff" stroke-width="0.77" opacity="0.19"/><path d="M 665 515.2274233452044 Q 682.5 455.3941263235174, 690 457.8266783966683 Q 697.5 493.6190294305561, 705 475.8607850410044 Q 712.5 518.5131066158647, 720 522.046647593379 Q 727.5 460.28680970775895, 735 473.2940854446497 Q 742.5 487.30137724487577, 750 469.2972515244037" fill="none" stroke="#ffffff" stroke-width="1.03" opacity="0.21"/>
<rect x="750" y="450" width="75" height="75" fill="#131519"/>
<circle cx="770.7" cy="470.7" r="0.9" fill="#e8eaec" opacity="0.7"/><circle cx="779.1" cy="470.7" r="0.9" fill="#e8eaec" opacity="0.7"/><circle cx="787.5" cy="470.7" r="0.9" fill="#e8eaec" opacity="0.7"/><circle cx="795.9" cy="470.7" r="0.9" fill="#e8eaec" opacity="0.7"/><circle cx="804.3" cy="470.7" r="0.9" fill="#e8eaec" opacity="0.7"/><circle cx="770.7" cy="479.1" r="0.9" fill="#e8eaec" opacity="0.7"/><circle cx="779.1" cy="479.1" r="0.9" fill="#e8eaec" opacity="0.7"/><circle cx="787.5" cy="479.1" r="0.9" fill="#e8eaec" opacity="0.7"/><circle cx="795.9" cy="479.1" r="0.9" fill="#e8eaec" opacity="0.7"/><circle cx="804.3" cy="479.1" r="0.9" fill="#e8eaec" opacity="0.7"/><circle cx="770.7" cy="487.5" r="0.9" fill="#e8eaec" opacity="0.7"/><circle cx="779.1" cy="487.5" r="0.9" fill="#e8eaec" opacity="0.7"/><circle cx="787.5" cy="487.5" r="0.9" fill="#e8eaec" opacity="0.7"/><circle cx="795.9" cy="487.5" r="0.9" fill="#e8eaec" opacity="0.7"/><circle cx="804.3" cy="487.5" r="0.9" fill="#e8eaec" opacity="0.7"/><circle cx="770.7" cy="495.9" r="0.9" fill="#e8eaec" opacity="0.7"/><circle cx="779.1" cy="495.9" r="0.9" fill="#e8eaec" opacity="0.7"/><circle cx="787.5" cy="495.9" r="0.9" fill="#e8eaec" opacity="0.7"/><circle cx="795.9" cy="495.9" r="0.9" fill="#e8eaec" opacity="0.7"/><circle cx="804.3" cy="495.9" r="0.9" fill="#e8eaec" opacity="0.7"/><circle cx="770.7" cy="504.3" r="0.9" fill="#e8eaec" opacity="0.7"/><circle cx="779.1" cy="504.3" r="0.9" fill="#e8eaec" opacity="0.7"/><circle cx="787.5" cy="504.3" r="0.9" fill="#e8eaec" opacity="0.7"/><circle cx="795.9" cy="504.3" r="0.9" fill="#e8eaec" opacity="0.7"/><circle cx="804.3" cy="504.3" r="0.9" fill="#e8eaec" opacity="0.7"/>
<rect x="975" y="450" width="75" height="75" fill="#131519"/>
<rect x="1050" y="450" width="75" height="75" fill="#101f36"/>
<rect x="1125" y="450" width="75" height="75" fill="#131519"/>
<rect x="1200" y="450" width="75" height="75" fill="#131519"/>
<rect x="1275" y="450" width="75" height="75" fill="#565b63"/>
<g stroke="#eef0f2" stroke-width="1" opacity="0.55">
    <line x1="1302" y1="487.5" x2="1323" y2="487.5"/>
    <line x1="1312.5" y1="477" x2="1312.5" y2="498"/>
  </g>
<rect x="1500" y="450" width="75" height="75" fill="#0e1013"/>
<rect x="1575" y="450" width="75" height="75" fill="#164a41"/>
<rect x="150" y="525" width="75" height="75" fill="#1a6459"/>
<circle cx="170.7" cy="545.7" r="0.9" fill="#e8eaec" opacity="0.7"/><circle cx="181.9" cy="545.7" r="0.9" fill="#e8eaec" opacity="0.7"/><circle cx="193.1" cy="545.7" r="0.9" fill="#e8eaec" opacity="0.7"/><circle cx="204.3" cy="545.7" r="0.9" fill="#e8eaec" opacity="0.7"/><circle cx="170.7" cy="556.9" r="0.9" fill="#e8eaec" opacity="0.7"/><circle cx="181.9" cy="556.9" r="0.9" fill="#e8eaec" opacity="0.7"/><circle cx="193.1" cy="556.9" r="0.9" fill="#e8eaec" opacity="0.7"/><circle cx="204.3" cy="556.9" r="0.9" fill="#e8eaec" opacity="0.7"/><circle cx="170.7" cy="568.1" r="0.9" fill="#e8eaec" opacity="0.7"/><circle cx="181.9" cy="568.1" r="0.9" fill="#e8eaec" opacity="0.7"/><circle cx="193.1" cy="568.1" r="0.9" fill="#e8eaec" opacity="0.7"/><circle cx="204.3" cy="568.1" r="0.9" fill="#e8eaec" opacity="0.7"/><circle cx="170.7" cy="579.3" r="0.9" fill="#e8eaec" opacity="0.7"/><circle cx="181.9" cy="579.3" r="0.9" fill="#e8eaec" opacity="0.7"/><circle cx="193.1" cy="579.3" r="0.9" fill="#e8eaec" opacity="0.7"/><circle cx="204.3" cy="579.3" r="0.9" fill="#e8eaec" opacity="0.7"/>
<rect x="225" y="525" width="75" height="75" fill="#0f2e29"/>
<rect x="300" y="525" width="75" height="75" fill="#31353d"/>
<rect x="525" y="525" width="75" height="75" fill="#204a7c"/>
<rect x="600" y="525" width="75" height="75" fill="#101f36"/>
<rect x="675" y="525" width="75" height="75" fill="#0f2e29"/>
<rect x="750" y="525" width="75" height="75" fill="#164a41"/>
<rect x="975" y="525" width="75" height="75" fill="#132846"/>
<rect x="1050" y="525" width="75" height="75" fill="#565b63"/>
<path d="M 1040 521.8121716438327 Q 1057.5 549.2914944654331, 1065 537.0485023478977 Q 1072.5 542.8594407741912, 1080 536.6637841856573 Q 1087.5 545.5513678112766, 1095 534.3691442802083 Q 1102.5 602.8223383967998, 1110 588.3694049378391 Q 1117.5 535.0412916624919, 1125 532.0630457194056" fill="none" stroke="#ffffff" stroke-width="0.99" opacity="0.21"/><path d="M 1040 543.822097418597 Q 1056.25 525.5154357495485, 1062.5 533.2889767480083 Q 1068.75 565.0917073624441, 1075 571.5598870301619 Q 1081.25 538.8526587659726, 1087.5 543.8415837998036 Q 1093.75 563.2033455418423, 1100 572.6631966652349 Q 1106.25 569.0003989700926, 1112.5 561.9414471730124 Q 1118.75 567.8590028226608, 1125 577.3951741168275" fill="none" stroke="#ffffff" stroke-width="0.87" opacity="0.25"/>
<rect x="1125" y="525" width="75" height="75" fill="#164a41"/>
<g stroke="#eef0f2" stroke-width="1" fill="none" opacity="0.55">
    <path d="M 1138.5 542.5 L 1138.5 538.5 L 1142.5 538.5"/>
    <path d="M 1186.5 542.5 L 1186.5 538.5 L 1182.5 538.5"/>
    <path d="M 1138.5 582.5 L 1138.5 586.5 L 1142.5 586.5"/>
    <path d="M 1186.5 582.5 L 1186.5 586.5 L 1182.5 586.5"/>
  </g>
<rect x="1200" y="525" width="75" height="75" fill="#292d35"/>
<rect x="1275" y="525" width="75" height="75" fill="#31353d"/>
<rect x="1500" y="525" width="75" height="75" fill="#131519"/>
<rect x="1575" y="525" width="75" height="75" fill="#0a0c0f"/>
<circle cx="1595.7" cy="545.7" r="0.9" fill="#e8eaec" opacity="0.7"/><circle cx="1606.9" cy="545.7" r="0.9" fill="#e8eaec" opacity="0.7"/><circle cx="1618.1" cy="545.7" r="0.9" fill="#e8eaec" opacity="0.7"/><circle cx="1629.3" cy="545.7" r="0.9" fill="#e8eaec" opacity="0.7"/><circle cx="1595.7" cy="556.9" r="0.9" fill="#e8eaec" opacity="0.7"/><circle cx="1606.9" cy="556.9" r="0.9" fill="#e8eaec" opacity="0.7"/><circle cx="1618.1" cy="556.9" r="0.9" fill="#e8eaec" opacity="0.7"/><circle cx="1629.3" cy="556.9" r="0.9" fill="#e8eaec" opacity="0.7"/><circle cx="1595.7" cy="568.1" r="0.9" fill="#e8eaec" opacity="0.7"/><circle cx="1606.9" cy="568.1" r="0.9" fill="#e8eaec" opacity="0.7"/><circle cx="1618.1" cy="568.1" r="0.9" fill="#e8eaec" opacity="0.7"/><circle cx="1629.3" cy="568.1" r="0.9" fill="#e8eaec" opacity="0.7"/><circle cx="1595.7" cy="579.3" r="0.9" fill="#e8eaec" opacity="0.7"/><circle cx="1606.9" cy="579.3" r="0.9" fill="#e8eaec" opacity="0.7"/><circle cx="1618.1" cy="579.3" r="0.9" fill="#e8eaec" opacity="0.7"/><circle cx="1629.3" cy="579.3" r="0.9" fill="#e8eaec" opacity="0.7"/>
<rect x="150" y="600" width="75" height="75" fill="#132846"/>
<circle cx="170.7" cy="620.7" r="0.9" fill="#e8eaec" opacity="0.7"/><circle cx="181.9" cy="620.7" r="0.9" fill="#e8eaec" opacity="0.7"/><circle cx="193.1" cy="620.7" r="0.9" fill="#e8eaec" opacity="0.7"/><circle cx="204.3" cy="620.7" r="0.9" fill="#e8eaec" opacity="0.7"/><circle cx="170.7" cy="631.9" r="0.9" fill="#e8eaec" opacity="0.7"/><circle cx="181.9" cy="631.9" r="0.9" fill="#e8eaec" opacity="0.7"/><circle cx="193.1" cy="631.9" r="0.9" fill="#e8eaec" opacity="0.7"/><circle cx="204.3" cy="631.9" r="0.9" fill="#e8eaec" opacity="0.7"/><circle cx="170.7" cy="643.1" r="0.9" fill="#e8eaec" opacity="0.7"/><circle cx="181.9" cy="643.1" r="0.9" fill="#e8eaec" opacity="0.7"/><circle cx="193.1" cy="643.1" r="0.9" fill="#e8eaec" opacity="0.7"/><circle cx="204.3" cy="643.1" r="0.9" fill="#e8eaec" opacity="0.7"/><circle cx="170.7" cy="654.3" r="0.9" fill="#e8eaec" opacity="0.7"/><circle cx="181.9" cy="654.3" r="0.9" fill="#e8eaec" opacity="0.7"/><circle cx="193.1" cy="654.3" r="0.9" fill="#e8eaec" opacity="0.7"/><circle cx="204.3" cy="654.3" r="0.9" fill="#e8eaec" opacity="0.7"/>
<rect x="225" y="600" width="75" height="75" fill="#292d35"/>
<rect x="300" y="600" width="75" height="75" fill="#132846"/>
<rect x="525" y="600" width="75" height="75" fill="#0a0c0f"/>
<rect x="600" y="600" width="75" height="75" fill="#131519"/>
<rect x="675" y="600" width="75" height="75" fill="#204a7c"/>
<rect x="750" y="600" width="75" height="75" fill="#0e1013"/>
<rect x="825" y="600" width="75" height="75" fill="#204a7c"/>
<rect x="900" y="600" width="75" height="75" fill="#279884"/>
<rect x="975" y="600" width="75" height="75" fill="#0e1013"/>
<circle cx="995.7" cy="620.7" r="0.9" fill="#e8eaec" opacity="0.7"/><circle cx="1006.9" cy="620.7" r="0.9" fill="#e8eaec" opacity="0.7"/><circle cx="1018.1" cy="620.7" r="0.9" fill="#e8eaec" opacity="0.7"/><circle cx="1029.3" cy="620.7" r="0.9" fill="#e8eaec" opacity="0.7"/><circle cx="995.7" cy="631.9" r="0.9" fill="#e8eaec" opacity="0.7"/><circle cx="1006.9" cy="631.9" r="0.9" fill="#e8eaec" opacity="0.7"/><circle cx="1018.1" cy="631.9" r="0.9" fill="#e8eaec" opacity="0.7"/><circle cx="1029.3" cy="631.9" r="0.9" fill="#e8eaec" opacity="0.7"/><circle cx="995.7" cy="643.1" r="0.9" fill="#e8eaec" opacity="0.7"/><circle cx="1006.9" cy="643.1" r="0.9" fill="#e8eaec" opacity="0.7"/><circle cx="1018.1" cy="643.1" r="0.9" fill="#e8eaec" opacity="0.7"/><circle cx="1029.3" cy="643.1" r="0.9" fill="#e8eaec" opacity="0.7"/><circle cx="995.7" cy="654.3" r="0.9" fill="#e8eaec" opacity="0.7"/><circle cx="1006.9" cy="654.3" r="0.9" fill="#e8eaec" opacity="0.7"/><circle cx="1018.1" cy="654.3" r="0.9" fill="#e8eaec" opacity="0.7"/><circle cx="1029.3" cy="654.3" r="0.9" fill="#e8eaec" opacity="0.7"/>
<rect x="1050" y="600" width="75" height="75" fill="#22262d"/>
<rect x="1125" y="600" width="75" height="75" fill="#22262d"/>
<circle cx="1145.7" cy="620.7" r="0.9" fill="#e8eaec" opacity="0.7"/><circle cx="1156.9" cy="620.7" r="0.9" fill="#e8eaec" opacity="0.7"/><circle cx="1168.1" cy="620.7" r="0.9" fill="#e8eaec" opacity="0.7"/><circle cx="1179.3" cy="620.7" r="0.9" fill="#e8eaec" opacity="0.7"/><circle cx="1145.7" cy="631.9" r="0.9" fill="#e8eaec" opacity="0.7"/><circle cx="1156.9" cy="631.9" r="0.9" fill="#e8eaec" opacity="0.7"/><circle cx="1168.1" cy="631.9" r="0.9" fill="#e8eaec" opacity="0.7"/><circle cx="1179.3" cy="631.9" r="0.9" fill="#e8eaec" opacity="0.7"/><circle cx="1145.7" cy="643.1" r="0.9" fill="#e8eaec" opacity="0.7"/><circle cx="1156.9" cy="643.1" r="0.9" fill="#e8eaec" opacity="0.7"/><circle cx="1168.1" cy="643.1" r="0.9" fill="#e8eaec" opacity="0.7"/><circle cx="1179.3" cy="643.1" r="0.9" fill="#e8eaec" opacity="0.7"/><circle cx="1145.7" cy="654.3" r="0.9" fill="#e8eaec" opacity="0.7"/><circle cx="1156.9" cy="654.3" r="0.9" fill="#e8eaec" opacity="0.7"/><circle cx="1168.1" cy="654.3" r="0.9" fill="#e8eaec" opacity="0.7"/><circle cx="1179.3" cy="654.3" r="0.9" fill="#e8eaec" opacity="0.7"/>
<rect x="1200" y="600" width="75" height="75" fill="#292d35"/>
<rect x="1275" y="600" width="75" height="75" fill="#292d35"/>
<rect x="1350" y="600" width="75" height="75" fill="#31353d"/>
<path d="M 1340 620.3410408075433 Q 1357.5 617.3381643398898, 1365 613.2196342048701 Q 1372.5 634.4168135634391, 1380 628.7829570646863 Q 1387.5 655.6356488523306, 1395 638.4515592595562 Q 1402.5 588.1885119073559, 1410 601.239511143649 Q 1417.5 601.498552080011, 1425 600.271573261125" fill="none" stroke="#ffffff" stroke-width="1.24" opacity="0.20"/><path d="M 1340 622.7054075372871 Q 1359.375 673.9498645911226, 1368.75 659.0971705270931 Q 1378.125 616.4331355394097, 1387.5 635.0811973738018 Q 1396.875 642.4435507447924, 1406.25 641.2890260922723 Q 1415.625 611.4649775088765, 1425 609.748800646048" fill="none" stroke="#ffffff" stroke-width="1.09" opacity="0.27"/>
<rect x="1425" y="600" width="75" height="75" fill="#132846"/>
<rect x="1500" y="600" width="75" height="75" fill="#22262d"/>
<rect x="1575" y="600" width="75" height="75" fill="#131519"/>
<rect x="150" y="675" width="75" height="75" fill="#565b63"/>
<circle cx="170.7" cy="695.7" r="0.9" fill="#e8eaec" opacity="0.7"/><circle cx="187.5" cy="695.7" r="0.9" fill="#e8eaec" opacity="0.7"/><circle cx="204.3" cy="695.7" r="0.9" fill="#e8eaec" opacity="0.7"/><circle cx="170.7" cy="712.5" r="0.9" fill="#e8eaec" opacity="0.7"/><circle cx="187.5" cy="712.5" r="0.9" fill="#e8eaec" opacity="0.7"/><circle cx="204.3" cy="712.5" r="0.9" fill="#e8eaec" opacity="0.7"/><circle cx="170.7" cy="729.3" r="0.9" fill="#e8eaec" opacity="0.7"/><circle cx="187.5" cy="729.3" r="0.9" fill="#e8eaec" opacity="0.7"/><circle cx="204.3" cy="729.3" r="0.9" fill="#e8eaec" opacity="0.7"/>
<rect x="225" y="675" width="75" height="75" fill="#131519"/>
<rect x="300" y="675" width="75" height="75" fill="#0f2e29"/>
<rect x="375" y="675" width="75" height="75" fill="#9ea4ab"/>
<rect x="450" y="675" width="75" height="75" fill="#8b9198"/>
<rect x="525" y="675" width="75" height="75" fill="#31353d"/>
<circle cx="545.7" cy="695.7" r="0.9" fill="#e8eaec" opacity="0.7"/><circle cx="554.1" cy="695.7" r="0.9" fill="#e8eaec" opacity="0.7"/><circle cx="562.5" cy="695.7" r="0.9" fill="#e8eaec" opacity="0.7"/><circle cx="570.9" cy="695.7" r="0.9" fill="#e8eaec" opacity="0.7"/><circle cx="579.3" cy="695.7" r="0.9" fill="#e8eaec" opacity="0.7"/><circle cx="545.7" cy="704.1" r="0.9" fill="#e8eaec" opacity="0.7"/><circle cx="554.1" cy="704.1" r="0.9" fill="#e8eaec" opacity="0.7"/><circle cx="562.5" cy="704.1" r="0.9" fill="#e8eaec" opacity="0.7"/><circle cx="570.9" cy="704.1" r="0.9" fill="#e8eaec" opacity="0.7"/><circle cx="579.3" cy="704.1" r="0.9" fill="#e8eaec" opacity="0.7"/><circle cx="545.7" cy="712.5" r="0.9" fill="#e8eaec" opacity="0.7"/><circle cx="554.1" cy="712.5" r="0.9" fill="#e8eaec" opacity="0.7"/><circle cx="562.5" cy="712.5" r="0.9" fill="#e8eaec" opacity="0.7"/><circle cx="570.9" cy="712.5" r="0.9" fill="#e8eaec" opacity="0.7"/><circle cx="579.3" cy="712.5" r="0.9" fill="#e8eaec" opacity="0.7"/><circle cx="545.7" cy="720.9" r="0.9" fill="#e8eaec" opacity="0.7"/><circle cx="554.1" cy="720.9" r="0.9" fill="#e8eaec" opacity="0.7"/><circle cx="562.5" cy="720.9" r="0.9" fill="#e8eaec" opacity="0.7"/><circle cx="570.9" cy="720.9" r="0.9" fill="#e8eaec" opacity="0.7"/><circle cx="579.3" cy="720.9" r="0.9" fill="#e8eaec" opacity="0.7"/><circle cx="545.7" cy="729.3" r="0.9" fill="#e8eaec" opacity="0.7"/><circle cx="554.1" cy="729.3" r="0.9" fill="#e8eaec" opacity="0.7"/><circle cx="562.5" cy="729.3" r="0.9" fill="#e8eaec" opacity="0.7"/><circle cx="570.9" cy="729.3" r="0.9" fill="#e8eaec" opacity="0.7"/><circle cx="579.3" cy="729.3" r="0.9" fill="#e8eaec" opacity="0.7"/>
<rect x="600" y="675" width="75" height="75" fill="#101f36"/>
<circle cx="637.5" cy="712.5" r="16.5" stroke="#eef0f2" stroke-width="1" fill="none" opacity="0.55"/>
<rect x="675" y="675" width="75" height="75" fill="#204a7c"/>
<circle cx="695.7" cy="695.7" r="0.9" fill="#e8eaec" opacity="0.7"/><circle cx="706.9" cy="695.7" r="0.9" fill="#e8eaec" opacity="0.7"/><circle cx="718.1" cy="695.7" r="0.9" fill="#e8eaec" opacity="0.7"/><circle cx="729.3" cy="695.7" r="0.9" fill="#e8eaec" opacity="0.7"/><circle cx="695.7" cy="706.9" r="0.9" fill="#e8eaec" opacity="0.7"/><circle cx="706.9" cy="706.9" r="0.9" fill="#e8eaec" opacity="0.7"/><circle cx="718.1" cy="706.9" r="0.9" fill="#e8eaec" opacity="0.7"/><circle cx="729.3" cy="706.9" r="0.9" fill="#e8eaec" opacity="0.7"/><circle cx="695.7" cy="718.1" r="0.9" fill="#e8eaec" opacity="0.7"/><circle cx="706.9" cy="718.1" r="0.9" fill="#e8eaec" opacity="0.7"/><circle cx="718.1" cy="718.1" r="0.9" fill="#e8eaec" opacity="0.7"/><circle cx="729.3" cy="718.1" r="0.9" fill="#e8eaec" opacity="0.7"/><circle cx="695.7" cy="729.3" r="0.9" fill="#e8eaec" opacity="0.7"/><circle cx="706.9" cy="729.3" r="0.9" fill="#e8eaec" opacity="0.7"/><circle cx="718.1" cy="729.3" r="0.9" fill="#e8eaec" opacity="0.7"/><circle cx="729.3" cy="729.3" r="0.9" fill="#e8eaec" opacity="0.7"/>
<rect x="750" y="675" width="75" height="75" fill="#131519"/>
<rect x="825" y="675" width="75" height="75" fill="#0a0c0f"/>
<rect x="1050" y="675" width="75" height="75" fill="#0f2e29"/>
<rect x="1125" y="675" width="75" height="75" fill="#9ea4ab"/>
<rect x="1200" y="675" width="75" height="75" fill="#22262d"/>
<rect x="1275" y="675" width="75" height="75" fill="#292d35"/>
<rect x="1350" y="675" width="75" height="75" fill="#123a33"/>
<rect x="1425" y="675" width="75" height="75" fill="#131519"/>
<circle cx="1445.7" cy="695.7" r="0.9" fill="#e8eaec" opacity="0.7"/><circle cx="1456.9" cy="695.7" r="0.9" fill="#e8eaec" opacity="0.7"/><circle cx="1468.1" cy="695.7" r="0.9" fill="#e8eaec" opacity="0.7"/><circle cx="1479.3" cy="695.7" r="0.9" fill="#e8eaec" opacity="0.7"/><circle cx="1445.7" cy="706.9" r="0.9" fill="#e8eaec" opacity="0.7"/><circle cx="1456.9" cy="706.9" r="0.9" fill="#e8eaec" opacity="0.7"/><circle cx="1468.1" cy="706.9" r="0.9" fill="#e8eaec" opacity="0.7"/><circle cx="1479.3" cy="706.9" r="0.9" fill="#e8eaec" opacity="0.7"/><circle cx="1445.7" cy="718.1" r="0.9" fill="#e8eaec" opacity="0.7"/><circle cx="1456.9" cy="718.1" r="0.9" fill="#e8eaec" opacity="0.7"/><circle cx="1468.1" cy="718.1" r="0.9" fill="#e8eaec" opacity="0.7"/><circle cx="1479.3" cy="718.1" r="0.9" fill="#e8eaec" opacity="0.7"/><circle cx="1445.7" cy="729.3" r="0.9" fill="#e8eaec" opacity="0.7"/><circle cx="1456.9" cy="729.3" r="0.9" fill="#e8eaec" opacity="0.7"/><circle cx="1468.1" cy="729.3" r="0.9" fill="#e8eaec" opacity="0.7"/><circle cx="1479.3" cy="729.3" r="0.9" fill="#e8eaec" opacity="0.7"/>
<rect x="1500" y="675" width="75" height="75" fill="#31353d"/>
<circle cx="1520.7" cy="695.7" r="0.9" fill="#e8eaec" opacity="0.7"/><circle cx="1529.1" cy="695.7" r="0.9" fill="#e8eaec" opacity="0.7"/><circle cx="1537.5" cy="695.7" r="0.9" fill="#e8eaec" opacity="0.7"/><circle cx="1545.9" cy="695.7" r="0.9" fill="#e8eaec" opacity="0.7"/><circle cx="1554.3" cy="695.7" r="0.9" fill="#e8eaec" opacity="0.7"/><circle cx="1520.7" cy="704.1" r="0.9" fill="#e8eaec" opacity="0.7"/><circle cx="1529.1" cy="704.1" r="0.9" fill="#e8eaec" opacity="0.7"/><circle cx="1537.5" cy="704.1" r="0.9" fill="#e8eaec" opacity="0.7"/><circle cx="1545.9" cy="704.1" r="0.9" fill="#e8eaec" opacity="0.7"/><circle cx="1554.3" cy="704.1" r="0.9" fill="#e8eaec" opacity="0.7"/><circle cx="1520.7" cy="712.5" r="0.9" fill="#e8eaec" opacity="0.7"/><circle cx="1529.1" cy="712.5" r="0.9" fill="#e8eaec" opacity="0.7"/><circle cx="1537.5" cy="712.5" r="0.9" fill="#e8eaec" opacity="0.7"/><circle cx="1545.9" cy="712.5" r="0.9" fill="#e8eaec" opacity="0.7"/><circle cx="1554.3" cy="712.5" r="0.9" fill="#e8eaec" opacity="0.7"/><circle cx="1520.7" cy="720.9" r="0.9" fill="#e8eaec" opacity="0.7"/><circle cx="1529.1" cy="720.9" r="0.9" fill="#e8eaec" opacity="0.7"/><circle cx="1537.5" cy="720.9" r="0.9" fill="#e8eaec" opacity="0.7"/><circle cx="1545.9" cy="720.9" r="0.9" fill="#e8eaec" opacity="0.7"/><circle cx="1554.3" cy="720.9" r="0.9" fill="#e8eaec" opacity="0.7"/><circle cx="1520.7" cy="729.3" r="0.9" fill="#e8eaec" opacity="0.7"/><circle cx="1529.1" cy="729.3" r="0.9" fill="#e8eaec" opacity="0.7"/><circle cx="1537.5" cy="729.3" r="0.9" fill="#e8eaec" opacity="0.7"/><circle cx="1545.9" cy="729.3" r="0.9" fill="#e8eaec" opacity="0.7"/><circle cx="1554.3" cy="729.3" r="0.9" fill="#e8eaec" opacity="0.7"/>
<rect x="1575" y="675" width="75" height="75" fill="#163257"/>
<rect x="150" y="750" width="75" height="75" fill="#101f36"/>
<rect x="225" y="750" width="75" height="75" fill="#123a33"/>
<rect x="300" y="750" width="75" height="75" fill="#163257"/>
<rect x="375" y="750" width="75" height="75" fill="#0e1013"/>
<rect x="450" y="750" width="75" height="75" fill="#4a4f57"/>
<rect x="525" y="750" width="75" height="75" fill="#0f2e29"/>
<rect x="600" y="750" width="75" height="75" fill="#0f2e29"/>
<rect x="675" y="750" width="75" height="75" fill="#22262d"/>
<rect x="750" y="750" width="75" height="75" fill="#8b9198"/>
<rect x="825" y="750" width="75" height="75" fill="#132846"/>
<circle cx="845.7" cy="770.7" r="0.9" fill="#e8eaec" opacity="0.7"/><circle cx="856.9" cy="770.7" r="0.9" fill="#e8eaec" opacity="0.7"/><circle cx="868.1" cy="770.7" r="0.9" fill="#e8eaec" opacity="0.7"/><circle cx="879.3" cy="770.7" r="0.9" fill="#e8eaec" opacity="0.7"/><circle cx="845.7" cy="781.9" r="0.9" fill="#e8eaec" opacity="0.7"/><circle cx="856.9" cy="781.9" r="0.9" fill="#e8eaec" opacity="0.7"/><circle cx="868.1" cy="781.9" r="0.9" fill="#e8eaec" opacity="0.7"/><circle cx="879.3" cy="781.9" r="0.9" fill="#e8eaec" opacity="0.7"/><circle cx="845.7" cy="793.1" r="0.9" fill="#e8eaec" opacity="0.7"/><circle cx="856.9" cy="793.1" r="0.9" fill="#e8eaec" opacity="0.7"/><circle cx="868.1" cy="793.1" r="0.9" fill="#e8eaec" opacity="0.7"/><circle cx="879.3" cy="793.1" r="0.9" fill="#e8eaec" opacity="0.7"/><circle cx="845.7" cy="804.3" r="0.9" fill="#e8eaec" opacity="0.7"/><circle cx="856.9" cy="804.3" r="0.9" fill="#e8eaec" opacity="0.7"/><circle cx="868.1" cy="804.3" r="0.9" fill="#e8eaec" opacity="0.7"/><circle cx="879.3" cy="804.3" r="0.9" fill="#e8eaec" opacity="0.7"/>
<rect x="1050" y="750" width="75" height="75" fill="#0e1013"/>
<rect x="1125" y="750" width="75" height="75" fill="#565b63"/>
<rect x="1200" y="750" width="75" height="75" fill="#4a4f57"/>
<rect x="1275" y="750" width="75" height="75" fill="#0e1013"/>
<path d="M 1265 813.6587289621821 Q 1281.25 759.6440302091651, 1287.5 776.7528630676679 Q 1293.75 789.1076033905847, 1300 794.2507749656215 Q 1306.25 776.3370838336414, 1312.5 782.8802228788845 Q 1318.75 783.103068897617, 1325 769.2665072449017 Q 1331.25 767.8817647247342, 1337.5 775.8847224991769 Q 1343.75 768.0252988619031, 1350 774.7918493638281" fill="none" stroke="#ffffff" stroke-width="0.89" opacity="0.18"/><path d="M 1265 766.8615550658433 Q 1280.357142857143 761.4755956426961, 1285.7142857142858 777.8937356953975 Q 1291.0714285714284 832.2365994157735, 1296.4285714285713 816.593433287926 Q 1301.7857142857142 784.9635801423574, 1307.142857142857 768.3930281898938 Q 1312.5 744.0777549287304, 1317.857142857143 761.6113877040334 Q 1323.2142857142858 779.0259605739266, 1328.5714285714287 776.019915699726 Q 1333.9285714285713 787.0902180438861, 1339.2857142857142 795.1100755250081 Q 1344.642857142857 818.3934361237334, 1350 824.961490550777" fill="none" stroke="#ffffff" stroke-width="0.64" opacity="0.19"/>
<rect x="1350" y="750" width="75" height="75" fill="#0e1013"/>
<rect x="1425" y="750" width="75" height="75" fill="#0f2e29"/>
<rect x="1500" y="750" width="75" height="75" fill="#d7dade"/>
<circle cx="1520.7" cy="770.7" r="0.9" fill="#e8eaec" opacity="0.7"/><circle cx="1529.1" cy="770.7" r="0.9" fill="#e8eaec" opacity="0.7"/><circle cx="1537.5" cy="770.7" r="0.9" fill="#e8eaec" opacity="0.7"/><circle cx="1545.9" cy="770.7" r="0.9" fill="#e8eaec" opacity="0.7"/><circle cx="1554.3" cy="770.7" r="0.9" fill="#e8eaec" opacity="0.7"/><circle cx="1520.7" cy="779.1" r="0.9" fill="#e8eaec" opacity="0.7"/><circle cx="1529.1" cy="779.1" r="0.9" fill="#e8eaec" opacity="0.7"/><circle cx="1537.5" cy="779.1" r="0.9" fill="#e8eaec" opacity="0.7"/><circle cx="1545.9" cy="779.1" r="0.9" fill="#e8eaec" opacity="0.7"/><circle cx="1554.3" cy="779.1" r="0.9" fill="#e8eaec" opacity="0.7"/><circle cx="1520.7" cy="787.5" r="0.9" fill="#e8eaec" opacity="0.7"/><circle cx="1529.1" cy="787.5" r="0.9" fill="#e8eaec" opacity="0.7"/><circle cx="1537.5" cy="787.5" r="0.9" fill="#e8eaec" opacity="0.7"/><circle cx="1545.9" cy="787.5" r="0.9" fill="#e8eaec" opacity="0.7"/><circle cx="1554.3" cy="787.5" r="0.9" fill="#e8eaec" opacity="0.7"/><circle cx="1520.7" cy="795.9" r="0.9" fill="#e8eaec" opacity="0.7"/><circle cx="1529.1" cy="795.9" r="0.9" fill="#e8eaec" opacity="0.7"/><circle cx="1537.5" cy="795.9" r="0.9" fill="#e8eaec" opacity="0.7"/><circle cx="1545.9" cy="795.9" r="0.9" fill="#e8eaec" opacity="0.7"/><circle cx="1554.3" cy="795.9" r="0.9" fill="#e8eaec" opacity="0.7"/><circle cx="1520.7" cy="804.3" r="0.9" fill="#e8eaec" opacity="0.7"/><circle cx="1529.1" cy="804.3" r="0.9" fill="#e8eaec" opacity="0.7"/><circle cx="1537.5" cy="804.3" r="0.9" fill="#e8eaec" opacity="0.7"/><circle cx="1545.9" cy="804.3" r="0.9" fill="#e8eaec" opacity="0.7"/><circle cx="1554.3" cy="804.3" r="0.9" fill="#e8eaec" opacity="0.7"/>
<rect x="1575" y="750" width="75" height="75" fill="#131519"/>
<rect x="0" y="825" width="75" height="75" fill="#2a5c92"/>
<path d="M -10 833.483677856857 Q 7.5 835.9470888390206, 15 840.1688991347328 Q 22.5 820.601301259012, 30 827.7045840164647 Q 37.5 871.1014443892054, 45 871.7786934692413 Q 52.5 851.4877552137477, 60 848.364697425859 Q 67.5 854.3103851610795, 75 855.5672429676633" fill="none" stroke="#ffffff" stroke-width="1.32" opacity="0.29"/><path d="M -10 817.3684062506072 Q 7.5 871.6187743964838, 15 859.4674415769987 Q 22.5 846.0395076574059, 30 853.191639657598 Q 37.5 826.1909592314623, 45 826.3789337303024 Q 52.5 875.9391144354595, 60 872.2287190903444 Q 67.5 875.6235152191948, 75 861.3943088392261" fill="none" stroke="#ffffff" stroke-width="1.36" opacity="0.23"/>
<rect x="75" y="825" width="75" height="75" fill="#565b63"/>
<rect x="150" y="825" width="75" height="75" fill="#1c3a63"/>
<rect x="225" y="825" width="75" height="75" fill="#0e1013"/>
<rect x="300" y="825" width="75" height="75" fill="#61666e"/>
<rect x="375" y="825" width="75" height="75" fill="#4a4f57"/>
<rect x="450" y="825" width="75" height="75" fill="#131519"/>
<circle cx="470.7" cy="845.7" r="0.9" fill="#e8eaec" opacity="0.7"/><circle cx="487.5" cy="845.7" r="0.9" fill="#e8eaec" opacity="0.7"/><circle cx="504.3" cy="845.7" r="0.9" fill="#e8eaec" opacity="0.7"/><circle cx="470.7" cy="862.5" r="0.9" fill="#e8eaec" opacity="0.7"/><circle cx="487.5" cy="862.5" r="0.9" fill="#e8eaec" opacity="0.7"/><circle cx="504.3" cy="862.5" r="0.9" fill="#e8eaec" opacity="0.7"/><circle cx="470.7" cy="879.3" r="0.9" fill="#e8eaec" opacity="0.7"/><circle cx="487.5" cy="879.3" r="0.9" fill="#e8eaec" opacity="0.7"/><circle cx="504.3" cy="879.3" r="0.9" fill="#e8eaec" opacity="0.7"/>
<rect x="525" y="825" width="75" height="75" fill="#1a6459"/>
<rect x="600" y="825" width="75" height="75" fill="#22262d"/>
<rect x="675" y="825" width="75" height="75" fill="#61666e"/>
<rect x="750" y="825" width="75" height="75" fill="#c9cdd2"/>
<rect x="825" y="825" width="75" height="75" fill="#22262d"/>
<rect x="900" y="825" width="75" height="75" fill="#22262d"/>
<rect x="975" y="825" width="75" height="75" fill="#61666e"/>
<rect x="1050" y="825" width="75" height="75" fill="#204a7c"/>
<rect x="1125" y="825" width="75" height="75" fill="#164a41"/>
<rect x="1200" y="825" width="75" height="75" fill="#61666e"/>
<rect x="1275" y="825" width="75" height="75" fill="#22262d"/>
<rect x="1350" y="825" width="75" height="75" fill="#8b9198"/>
<rect x="1425" y="825" width="75" height="75" fill="#565b63"/>
<rect x="1500" y="825" width="75" height="75" fill="#9ea4ab"/>
<rect x="1575" y="825" width="75" height="75" fill="#4a4f57"/>
<rect x="0" y="900" width="75" height="75" fill="#204a7c"/>
<rect x="75" y="900" width="75" height="75" fill="#1a6459"/>
<rect x="150" y="900" width="75" height="75" fill="#565b63"/>
<rect x="225" y="900" width="75" height="75" fill="#31353d"/>
<rect x="300" y="900" width="75" height="75" fill="#0f2e29"/>
<rect x="375" y="900" width="75" height="75" fill="#31353d"/>
<rect x="450" y="900" width="75" height="75" fill="#e2e4e7"/>
<rect x="525" y="900" width="75" height="75" fill="#d7dade"/>
<g stroke="#eef0f2" stroke-width="1" opacity="0.55">
    <line x1="552" y1="937.5" x2="573" y2="937.5"/>
    <line x1="562.5" y1="927" x2="562.5" y2="948"/>
  </g>
<rect x="600" y="900" width="75" height="75" fill="#22262d"/>
<g stroke="#eef0f2" stroke-width="1" fill="none" opacity="0.55">
    <path d="M 613.5 917.5 L 613.5 913.5 L 617.5 913.5"/>
    <path d="M 661.5 917.5 L 661.5 913.5 L 657.5 913.5"/>
    <path d="M 613.5 957.5 L 613.5 961.5 L 617.5 961.5"/>
    <path d="M 661.5 957.5 L 661.5 961.5 L 657.5 961.5"/>
  </g>
<rect x="675" y="900" width="75" height="75" fill="#132846"/>
<rect x="750" y="900" width="75" height="75" fill="#0e1013"/>
<rect x="825" y="900" width="75" height="75" fill="#163257"/>
<rect x="900" y="900" width="75" height="75" fill="#101f36"/>
<rect x="975" y="900" width="75" height="75" fill="#131519"/>
<rect x="1050" y="900" width="75" height="75" fill="#b3b8be"/>
<rect x="1125" y="900" width="75" height="75" fill="#292d35"/>
<rect x="1200" y="900" width="75" height="75" fill="#9ea4ab"/>
<rect x="1275" y="900" width="75" height="75" fill="#e2e4e7"/>
<rect x="1350" y="900" width="75" height="75" fill="#2a5c92"/>
<rect x="1425" y="900" width="75" height="75" fill="#8b9198"/>
<rect x="1500" y="900" width="75" height="75" fill="#292d35"/>
<rect x="1575" y="900" width="75" height="75" fill="#132846"/>
<g stroke="#000000" stroke-opacity="0.35" stroke-width="1"><line x1="75" y1="0" x2="75" y2="975"/><line x1="150" y1="0" x2="150" y2="975"/><line x1="225" y1="0" x2="225" y2="975"/><line x1="300" y1="0" x2="300" y2="975"/><line x1="375" y1="0" x2="375" y2="975"/><line x1="450" y1="0" x2="450" y2="975"/><line x1="525" y1="0" x2="525" y2="975"/><line x1="600" y1="0" x2="600" y2="975"/><line x1="675" y1="0" x2="675" y2="975"/><line x1="750" y1="0" x2="750" y2="975"/><line x1="825" y1="0" x2="825" y2="975"/><line x1="900" y1="0" x2="900" y2="975"/><line x1="975" y1="0" x2="975" y2="975"/><line x1="1050" y1="0" x2="1050" y2="975"/><line x1="1125" y1="0" x2="1125" y2="975"/><line x1="1200" y1="0" x2="1200" y2="975"/><line x1="1275" y1="0" x2="1275" y2="975"/><line x1="1350" y1="0" x2="1350" y2="975"/><line x1="1425" y1="0" x2="1425" y2="975"/><line x1="1500" y1="0" x2="1500" y2="975"/><line x1="1575" y1="0" x2="1575" y2="975"/><line x1="0" y1="75" x2="1650" y2="75"/><line x1="0" y1="150" x2="1650" y2="150"/><line x1="0" y1="225" x2="1650" y2="225"/><line x1="0" y1="300" x2="1650" y2="300"/><line x1="0" y1="375" x2="1650" y2="375"/><line x1="0" y1="450" x2="1650" y2="450"/><line x1="0" y1="525" x2="1650" y2="525"/><line x1="0" y1="600" x2="1650" y2="600"/><line x1="0" y1="675" x2="1650" y2="675"/><line x1="0" y1="750" x2="1650" y2="750"/><line x1="0" y1="825" x2="1650" y2="825"/><line x1="0" y1="900" x2="1650" y2="900"/></g>
<circle cx="759" cy="1413.75" r="1023.75" fill="none" stroke="#ffffff" stroke-width="1.4" opacity="0.5"/>
<circle cx="1485" cy="-341.25" r="536.25" fill="none" stroke="#ffffff" stroke-width="1.1" opacity="0.3"/>
<circle cx="39.18255572672933" cy="898.7374750291929" r="15.995915290829725" stroke="#ffffff" stroke-width="1" fill="none" opacity="0.26564561063423753"/>
<rect x="1464.3686268260703" y="717.8367831759155" width="28.311347255297004" height="28.311347255297004" stroke="#ffffff" stroke-width="1" fill="none" opacity="0.3318333677598275"/>
<rect x="888.8058615700342" y="614.8710944262333" width="25.284608115255832" height="25.284608115255832" stroke="#ffffff" stroke-width="1" fill="none" opacity="0.2667767947423272"/>
<circle cx="622.5082753272727" cy="933.2311374659184" r="13.94023345200112" stroke="#ffffff" stroke-width="1" fill="none" opacity="0.49943849380360916"/>
<g stroke="#ffffff" stroke-width="1" fill="none" opacity="0.4575554732000455">
    <path d="M 423.8064576622099 634.8216409694403 L 423.8064576622099 630.8216409694403 L 427.8064576622099 630.8216409694403"/>
    <path d="M 477.6662723690271 634.8216409694403 L 477.6662723690271 630.8216409694403 L 473.6662723690271 630.8216409694403"/>
    <path d="M 423.8064576622099 680.6814556762577 L 423.8064576622099 684.6814556762577 L 427.8064576622099 684.6814556762577"/>
    <path d="M 477.6662723690271 680.6814556762577 L 477.6662723690271 684.6814556762577 L 473.6662723690271 684.6814556762577"/>
  </g>
<rect x="1197.132771479059" y="309.73748581074176" width="21.564624350331723" height="21.564624350331723" stroke="#ffffff" stroke-width="1" fill="none" opacity="0.39288821240188554"/>
<g stroke="#ffffff" stroke-width="1" fill="none" opacity="0.37946050078608096">
    <path d="M 877.4981190629303 504.6559265851509 L 877.4981190629303 500.6559265851509 L 881.4981190629303 500.6559265851509"/>
    <path d="M 921.0743385281414 504.6559265851509 L 921.0743385281414 500.6559265851509 L 917.0743385281414 500.6559265851509"/>
    <path d="M 877.4981190629303 540.232146050362 L 877.4981190629303 544.232146050362 L 881.4981190629303 544.232146050362"/>
    <path d="M 921.0743385281414 540.232146050362 L 921.0743385281414 544.232146050362 L 917.0743385281414 544.232146050362"/>
  </g>
<g stroke="#ffffff" stroke-width="1" fill="none" opacity="0.4607295512105338">
    <path d="M 735.8375804570503 486.64097380703316 L 735.8375804570503 482.64097380703316 L 739.8375804570503 482.64097380703316"/>
    <path d="M 789.102689695824 486.64097380703316 L 789.102689695824 482.64097380703316 L 785.102689695824 482.64097380703316"/>
    <path d="M 735.8375804570503 531.9060830458068 L 735.8375804570503 535.9060830458068 L 739.8375804570503 535.9060830458068"/>
    <path d="M 789.102689695824 531.9060830458068 L 789.102689695824 535.9060830458068 L 785.102689695824 535.9060830458068"/>
  </g>
<g stroke="#ffffff" stroke-width="1" fill="none" opacity="0.4786509760306217">
    <path d="M 651.6616878134198 210.22951529449784 L 651.6616878134198 206.22951529449784 L 655.6616878134198 206.22951529449784"/>
    <path d="M 702.9515206453391 210.22951529449784 L 702.9515206453391 206.22951529449784 L 698.9515206453391 206.22951529449784"/>
    <path d="M 651.6616878134198 253.51934812641701 L 651.6616878134198 257.519348126417 L 655.6616878134198 257.519348126417"/>
    <path d="M 702.9515206453391 253.51934812641701 L 702.9515206453391 257.519348126417 L 698.9515206453391 257.519348126417"/>
  </g>
<g stroke="#ffffff" stroke-width="1" opacity="0.2877912833937444">
    <line x1="154.16504899205174" y1="368.36720380350016" x2="178.04730443118606" y2="368.36720380350016"/>
    <line x1="166.1061767116189" y1="356.426076083933" x2="166.1061767116189" y2="380.3083315230673"/>
  </g>
<g stroke="#ffffff" stroke-width="1" opacity="0.31966409197775647">
    <line x1="498.74112355996624" y1="606.2071720301174" x2="525.3298648585682" y2="606.2071720301174"/>
    <line x1="512.0354942092672" y1="592.9128013808164" x2="512.0354942092672" y2="619.5015426794183"/>
  </g>
<rect x="1377.8914548150265" y="306.88242378723805" width="26.80813957080245" height="26.80813957080245" stroke="#ffffff" stroke-width="1" fill="none" opacity="0.35933044215198606"/>
<circle cx="1618.8624285021797" cy="543.4072997653857" r="16.13410648423014" stroke="#ffffff" stroke-width="1" fill="none" opacity="0.3980915257707238"/>
<g stroke="#ffffff" stroke-width="1" opacity="0.2648631460033357">
    <line x1="593.7389408088289" y1="471.74711368745193" x2="618.3150330382399" y2="471.74711368745193"/>
    <line x1="606.0269869235344" y1="459.45906757274645" x2="606.0269869235344" y2="484.0351598021574"/>
  </g>
<rect x="620.0545745921321" y="879.0730476224329" width="19.929804723523556" height="19.929804723523556" stroke="#ffffff" stroke-width="1" fill="none" opacity="0.44856156734749675"/>
<rect x="1563.5416653543712" y="106.23929240168073" width="28.329548700526356" height="28.329548700526356" stroke="#ffffff" stroke-width="1" fill="none" opacity="0.43234012566972524"/>
<g stroke="#ffffff" stroke-width="1" opacity="0.2549962576595135">
    <line x1="680.9493568273843" y1="473.2968375913333" x2="701.1620558272465" y2="473.2968375913333"/>
    <line x1="691.0557063273154" y1="463.19048809140224" x2="691.0557063273154" y2="483.4031870912644"/>
  </g>
<g stroke="#ffffff" stroke-width="1" opacity="0.31321911327540874">
    <line x1="1142.3895472344243" y1="682.4306330340914" x2="1168.76734827084" y2="682.4306330340914"/>
    <line x1="1155.5784477526322" y1="669.2417325158837" x2="1155.5784477526322" y2="695.6195335522992"/>
  </g>
<rect x="569.4554447788745" y="888.0515945957508" width="21.17157442755997" height="21.17157442755997" stroke="#ffffff" stroke-width="1" fill="none" opacity="0.2831822964944877"/>
<g stroke="#ffffff" stroke-width="1" opacity="0.2926836400292814">
    <line x1="420.6625323094428" y1="56.594262711005285" x2="438.62613119147716" y2="56.594262711005285"/>
    <line x1="429.64433175045997" y1="47.612463269988076" x2="429.64433175045997" y2="65.5760621520225"/>
  </g>
<rect x="633.5170970522798" y="875.257398803113" width="24.825570645555853" height="24.825570645555853" stroke="#ffffff" stroke-width="1" fill="none" opacity="0.2751530269160867"/>
<rect x="839.699560232088" y="448.8331193726975" width="25.774023415334522" height="25.774023415334522" stroke="#ffffff" stroke-width="1" fill="none" opacity="0.26701145054539666"/>
</g>
</svg>