<svg viewBox="0 0 1200 480" xmlns="http://www.w3.org/2000/svg">
  <g>
    <path d="M 35.9 20.0 C 305.0 20.0, 417.9 226.8, 470.0 226.8" fill="none" stroke="#2563EB" stroke-width="1.3" opacity="0.24" stroke-linecap="round"/><path d="M 75.7 41.0 C 320.2 41.0, 422.7 228.1, 470.0 228.1" fill="none" stroke="#6B26D9" stroke-width="1.3" opacity="0.23" stroke-linecap="round"/><path d="M 50.6 61.9 C 310.6 61.9, 419.7 229.3, 470.0 229.3" fill="none" stroke="#6B26D9" stroke-width="1.8" opacity="0.15" stroke-linecap="round"/><path d="M 29.3 82.9 C 302.5 82.9, 417.1 230.6, 470.0 230.6" fill="none" stroke="#8B5CF6" stroke-width="2.4" opacity="0.25" stroke-linecap="round"/><path d="M 19.9 103.8 C 299.0 103.8, 416.0 231.8, 470.0 231.8" fill="none" stroke="#2563EB" stroke-width="2.0" opacity="0.31" stroke-linecap="round"/><path d="M 14.9 124.8 C 297.1 124.8, 415.4 233.1, 470.0 233.1" fill="none" stroke="#8B5CF6" stroke-width="2.6" opacity="0.24" stroke-linecap="round"/><path d="M 13.7 145.7 C 296.6 145.7, 415.2 234.3, 470.0 234.3" fill="none" stroke="#2563EB" stroke-width="1.4" opacity="0.21" stroke-linecap="round"/><path d="M 19.4 166.7 C 298.8 166.7, 415.9 235.6, 470.0 235.6" fill="none" stroke="#F97316" stroke-width="2.2" opacity="0.29" stroke-linecap="round"/><path d="M 18.2 187.6 C 298.3 187.6, 415.8 236.9, 470.0 236.9" fill="none" stroke="#8B5CF6" stroke-width="1.7" opacity="0.31" stroke-linecap="round"/><path d="M 53.8 208.6 C 311.9 208.6, 420.1 238.1, 470.0 238.1" fill="none" stroke="#6B26D9" stroke-width="2.1" opacity="0.29" stroke-linecap="round"/><path d="M 49.7 229.5 C 310.3 229.5, 419.6 239.4, 470.0 239.4" fill="none" stroke="#8B5CF6" stroke-width="1.6" opacity="0.25" stroke-linecap="round"/><path d="M 56.8 250.5 C 313.0 250.5, 420.4 240.6, 470.0 240.6" fill="none" stroke="#16A249" stroke-width="1.5" opacity="0.23" stroke-linecap="round"/><path d="M 24.4 271.4 C 300.7 271.4, 416.5 241.9, 470.0 241.9" fill="none" stroke="#2563EB" stroke-width="1.6" opacity="0.14" stroke-linecap="round"/><path d="M 49.6 292.4 C 310.3 292.4, 419.6 243.1, 470.0 243.1" fill="none" stroke="#F97316" stroke-width="1.6" opacity="0.34" stroke-linecap="round"/><path d="M 88.4 313.3 C 325.0 313.3, 424.2 244.4, 470.0 244.4" fill="none" stroke="#6B26D9" stroke-width="1.4" opacity="0.27" stroke-linecap="round"/><path d="M 37.4 334.3 C 305.6 334.3, 418.1 245.7, 470.0 245.7" fill="none" stroke="#16A249" stroke-width="2.5" opacity="0.25" stroke-linecap="round"/><path d="M 16.2 355.2 C 297.6 355.2, 415.5 246.9, 470.0 246.9" fill="none" stroke="#8B5CF6" stroke-width="2.4" opacity="0.29" stroke-linecap="round"/><path d="M 35.1 376.2 C 304.7 376.2, 417.8 248.2, 470.0 248.2" fill="none" stroke="#0D9488" stroke-width="1.9" opacity="0.23" stroke-linecap="round"/><path d="M 73.8 397.1 C 319.4 397.1, 422.5 249.4, 470.0 249.4" fill="none" stroke="#6B26D9" stroke-width="2.5" opacity="0.37" stroke-linecap="round"/><path d="M 47.9 418.1 C 309.6 418.1, 419.4 250.7, 470.0 250.7" fill="none" stroke="#0D9488" stroke-width="2.2" opacity="0.14" stroke-linecap="round"/><path d="M 34.8 439.0 C 304.6 439.0, 417.8 251.9, 470.0 251.9" fill="none" stroke="#8B5CF6" stroke-width="2.4" opacity="0.42" stroke-linecap="round"/><path d="M 32.8 460.0 C 303.9 460.0, 417.5 253.2, 470.0 253.2" fill="none" stroke="#16A249" stroke-width="1.7" opacity="0.39" stroke-linecap="round"/><path d="M 510.0 214.0 L 554.0 240.0" fill="none" stroke="#16A249" stroke-width="1.6" opacity="0.47" stroke-linecap="round"/><path d="M 510.0 219.8 L 554.0 240.0" fill="none" stroke="#8B5CF6" stroke-width="1.6" opacity="0.39" stroke-linecap="round"/><path d="M 510.0 225.6 L 554.0 240.0" fill="none" stroke="#6B26D9" stroke-width="1.6" opacity="0.43" stroke-linecap="round"/><path d="M 510.0 231.3 L 554.0 240.0" fill="none" stroke="#F97316" stroke-width="1.6" opacity="0.40" stroke-linecap="round"/><path d="M 510.0 237.1 L 554.0 240.0" fill="none" stroke="#2563EB" stroke-width="1.6" opacity="0.49" stroke-linecap="round"/><path d="M 510.0 242.9 L 554.0 240.0" fill="none" stroke="#16A249" stroke-width="1.6" opacity="0.38" stroke-linecap="round"/><path d="M 510.0 248.7 L 554.0 240.0" fill="none" stroke="#16A249" stroke-width="1.6" opacity="0.49" stroke-linecap="round"/><path d="M 510.0 254.4 L 554.0 240.0" fill="none" stroke="#F97316" stroke-width="1.6" opacity="0.66" stroke-linecap="round"/><path d="M 510.0 260.2 L 554.0 240.0" fill="none" stroke="#16A249" stroke-width="1.6" opacity="0.65" stroke-linecap="round"/><path d="M 510.0 266.0 L 554.0 240.0" fill="none" stroke="#F97316" stroke-width="1.6" opacity="0.60" stroke-linecap="round"/><path d="M 690.0 226.8 C 749.9 226.8, 879.6 20.0, 1188.9 20.0" fill="none" stroke="#0D9488" stroke-width="2.5" opacity="0.39" stroke-linecap="round"/><path d="M 690.0 228.1 C 741.8 228.1, 854.2 41.0, 1122.1 41.0" fill="none" stroke="#2563EB" stroke-width="2.1" opacity="0.17" stroke-linecap="round"/><path d="M 690.0 229.3 C 740.5 229.3, 850.0 61.9, 1111.0 61.9" fill="none" stroke="#8B5CF6" stroke-width="1.6" opacity="0.17" stroke-linecap="round"/><path d="M 690.0 230.6 C 741.8 230.6, 854.0 82.9, 1121.7 82.9" fill="none" stroke="#8B5CF6" stroke-width="2.0" opacity="0.23" stroke-linecap="round"/><path d="M 690.0 231.8 C 749.5 231.8, 878.6 103.8, 1186.2 103.8" fill="none" stroke="#0D9488" stroke-width="2.5" opacity="0.38" stroke-linecap="round"/><path d="M 690.0 233.1 C 746.7 233.1, 869.5 124.8, 1162.4 124.8" fill="none" stroke="#0D9488" stroke-width="2.5" opacity="0.14" stroke-linecap="round"/><path d="M 690.0 234.3 C 747.9 234.3, 873.3 145.7, 1172.4 145.7" fill="none" stroke="#0D9488" stroke-width="1.7" opacity="0.36" stroke-linecap="round"/><path d="M 690.0 235.6 C 744.2 235.6, 861.7 166.7, 1141.9 166.7" fill="none" stroke="#6B26D9" stroke-width="1.8" opacity="0.26" stroke-linecap="round"/><path d="M 690.0 236.9 C 742.2 236.9, 855.4 187.6, 1125.2 187.6" fill="none" stroke="#2563EB" stroke-width="1.4" opacity="0.25" stroke-linecap="round"/><path d="M 690.0 238.1 C 746.2 238.1, 867.9 208.6, 1158.1 208.6" fill="none" stroke="#6B26D9" stroke-width="1.4" opacity="0.12" stroke-linecap="round"/><path d="M 690.0 239.4 C 741.4 239.4, 852.7 229.5, 1118.1 229.5" fill="none" stroke="#F97316" stroke-width="1.3" opacity="0.30" stroke-linecap="round"/><path d="M 690.0 240.6 C 742.4 240.6, 855.9 250.5, 1126.6 250.5" fill="none" stroke="#16A249" stroke-width="1.6" opacity="0.16" stroke-linecap="round"/><path d="M 690.0 241.9 C 743.7 241.9, 860.2 271.4, 1137.8 271.4" fill="none" stroke="#F97316" stroke-width="1.4" opacity="0.26" stroke-linecap="round"/><path d="M 690.0 243.1 C 745.1 243.1, 864.4 292.4, 1149.0 292.4" fill="none" stroke="#16A249" stroke-width="1.6" opacity="0.26" stroke-linecap="round"/><path d="M 690.0 244.4 C 741.8 244.4, 854.0 313.3, 1121.5 313.3" fill="none" stroke="#0D9488" stroke-width="1.6" opacity="0.22" stroke-linecap="round"/><path d="M 690.0 245.7 C 748.4 245.7, 874.8 334.3, 1176.3 334.3" fill="none" stroke="#2563EB" stroke-width="1.5" opacity="0.27" stroke-linecap="round"/><path d="M 690.0 246.9 C 749.5 246.9, 878.5 355.2, 1186.2 355.2" fill="none" stroke="#F97316" stroke-width="2.0" opacity="0.16" stroke-linecap="round"/><path d="M 690.0 248.2 C 740.7 248.2, 850.4 376.2, 1112.2 376.2" fill="none" stroke="#8B5CF6" stroke-width="2.1" opacity="0.21" stroke-linecap="round"/><path d="M 690.0 249.4 C 741.3 249.4, 852.4 397.1, 1117.3 397.1" fill="none" stroke="#F97316" stroke-width="2.5" opacity="0.28" stroke-linecap="round"/><path d="M 690.0 250.7 C 743.8 250.7, 860.4 418.1, 1138.5 418.1" fill="none" stroke="#2563EB" stroke-width="2.3" opacity="0.28" stroke-linecap="round"/><path d="M 690.0 251.9 C 743.6 251.9, 859.6 439.0, 1136.4 439.0" fill="none" stroke="#2563EB" stroke-width="2.3" opacity="0.30" stroke-linecap="round"/><path d="M 690.0 253.2 C 747.7 253.2, 872.7 460.0, 1170.7 460.0" fill="none" stroke="#2563EB" stroke-width="2.3" opacity="0.36" stroke-linecap="round"/><path d="M 646.0 240.0 L 690.0 214.0" fill="none" stroke="#0D9488" stroke-width="1.6" opacity="0.63" stroke-linecap="round"/><path d="M 646.0 240.0 L 690.0 219.8" fill="none" stroke="#2563EB" stroke-width="1.6" opacity="0.53" stroke-linecap="round"/><path d="M 646.0 240.0 L 690.0 225.6" fill="none" stroke="#F97316" stroke-width="1.6" opacity="0.61" stroke-linecap="round"/><path d="M 646.0 240.0 L 690.0 231.3" fill="none" stroke="#6B26D9" stroke-width="1.6" opacity="0.63" stroke-linecap="round"/><path d="M 646.0 240.0 L 690.0 237.1" fill="none" stroke="#16A249" stroke-width="1.6" opacity="0.44" stroke-linecap="round"/><path d="M 646.0 240.0 L 690.0 242.9" fill="none" stroke="#0D9488" stroke-width="1.6" opacity="0.56" stroke-linecap="round"/><path d="M 646.0 240.0 L 690.0 248.7" fill="none" stroke="#F97316" stroke-width="1.6" opacity="0.51" stroke-linecap="round"/><path d="M 646.0 240.0 L 690.0 254.4" fill="none" stroke="#0D9488" stroke-width="1.6" opacity="0.70" stroke-linecap="round"/><path d="M 646.0 240.0 L 690.0 260.2" fill="none" stroke="#F97316" stroke-width="1.6" opacity="0.38" stroke-linecap="round"/><path d="M 646.0 240.0 L 690.0 266.0" fill="none" stroke="#6B26D9" stroke-width="1.6" opacity="0.43" stroke-linecap="round"/>
  </g>
  <g>
    <circle cx="192.2" cy="232.2" r="3.6" fill="#8B5CF6" opacity="0.68"/><circle cx="1133.7" cy="169.8" r="2.9" fill="#0D9488" opacity="0.35"/><circle cx="1069.0" cy="352.6" r="2.6" fill="#2563EB" opacity="0.50"/><circle cx="714.2" cy="440.8" r="3.0" fill="#16A249" opacity="0.48"/><circle cx="389.6" cy="91.5" r="1.9" fill="#2563EB" opacity="0.57"/><circle cx="1081.3" cy="80.8" r="3.3" fill="#16A249" opacity="0.60"/><circle cx="749.5" cy="261.7" r="1.6" fill="#0D9488" opacity="0.59"/><circle cx="241.2" cy="407.3" r="3.3" fill="#2563EB" opacity="0.31"/><circle cx="169.4" cy="123.2" r="2.8" fill="#F97316" opacity="0.54"/><circle cx="51.1" cy="348.0" r="3.4" fill="#0D9488" opacity="0.56"/><circle cx="1091.8" cy="410.2" r="1.9" fill="#2563EB" opacity="0.54"/><circle cx="465.1" cy="364.4" r="2.8" fill="#2563EB" opacity="0.38"/><circle cx="985.7" cy="69.2" r="1.7" fill="#0D9488" opacity="0.53"/><circle cx="1070.0" cy="62.7" r="2.7" fill="#2563EB" opacity="0.39"/><circle cx="413.9" cy="243.5" r="2.7" fill="#6B26D9" opacity="0.50"/><circle cx="373.3" cy="218.6" r="2.7" fill="#16A249" opacity="0.53"/><circle cx="376.6" cy="409.4" r="3.5" fill="#F97316" opacity="0.72"/><circle cx="448.4" cy="76.7" r="1.8" fill="#16A249" opacity="0.44"/><circle cx="238.5" cy="110.7" r="2.2" fill="#6B26D9" opacity="0.70"/><circle cx="499.1" cy="304.6" r="2.3" fill="#F97316" opacity="0.70"/><circle cx="782.0" cy="443.6" r="2.4" fill="#16A249" opacity="0.37"/><circle cx="102.3" cy="209.2" r="2.6" fill="#F97316" opacity="0.49"/><circle cx="832.4" cy="340.0" r="1.6" fill="#8B5CF6" opacity="0.51"/><circle cx="216.0" cy="247.8" r="2.2" fill="#6B26D9" opacity="0.35"/><circle cx="515.6" cy="62.2" r="2.1" fill="#6B26D9" opacity="0.71"/><circle cx="157.9" cy="73.3" r="2.4" fill="#0D9488" opacity="0.67"/><circle cx="877.0" cy="256.5" r="2.6" fill="#16A249" opacity="0.62"/><circle cx="162.3" cy="374.8" r="2.0" fill="#6B26D9" opacity="0.42"/><circle cx="343.6" cy="375.7" r="1.8" fill="#2563EB" opacity="0.33"/><circle cx="251.4" cy="167.6" r="2.7" fill="#F97316" opacity="0.58"/><circle cx="288.7" cy="122.3" r="1.8" fill="#2563EB" opacity="0.42"/><circle cx="122.9" cy="155.4" r="2.2" fill="#2563EB" opacity="0.43"/><circle cx="158.0" cy="376.7" r="3.6" fill="#6B26D9" opacity="0.31"/><circle cx="282.3" cy="125.6" r="2.5" fill="#0D9488" opacity="0.67"/><circle cx="1004.8" cy="260.7" r="3.4" fill="#8B5CF6" opacity="0.44"/><circle cx="521.0" cy="169.2" r="3.3" fill="#0D9488" opacity="0.63"/><circle cx="226.4" cy="171.4" r="1.7" fill="#2563EB" opacity="0.31"/><circle cx="889.7" cy="39.9" r="2.9" fill="#16A249" opacity="0.69"/><circle cx="975.4" cy="326.7" r="1.7" fill="#2563EB" opacity="0.37"/><circle cx="671.8" cy="178.9" r="2.3" fill="#8B5CF6" opacity="0.45"/><circle cx="512.5" cy="154.3" r="2.3" fill="#6B26D9" opacity="0.45"/><circle cx="262.1" cy="241.2" r="2.0" fill="#8B5CF6" opacity="0.65"/><circle cx="154.7" cy="55.4" r="2.4" fill="#6B26D9" opacity="0.48"/><circle cx="825.2" cy="119.8" r="2.8" fill="#8B5CF6" opacity="0.68"/><circle cx="355.3" cy="337.2" r="3.4" fill="#16A249" opacity="0.64"/><circle cx="746.2" cy="340.9" r="2.9" fill="#6B26D9" opacity="0.67"/>
  </g>
  <defs>
    <linearGradient id="hubGrad" x1="0" y1="0" x2="1" y2="1">
      <stop offset="0" stop-color="#6B26D9"/>
      <stop offset="1" stop-color="#2563EB"/>
    </linearGradient>
    <filter id="hubGlow" x="-60%" y="-60%" width="220%" height="220%">
      <feGaussianBlur stdDeviation="10" result="b"/>
      <feMerge><feMergeNode in="b"/><feMergeNode in="SourceGraphic"/></feMerge>
    </filter>
  </defs>
  <rect x="536.0" y="218.0" width="128" height="44" rx="22" fill="url(#hubGrad)" filter="url(#hubGlow)"/>
  <text x="600.0" y="246.0" text-anchor="middle" font-family="DM Sans, system-ui, sans-serif" font-size="17" font-weight="800" fill="#fff" letter-spacing="-0.02em">HexP</text>
<path d="M 134.0 40.0 C 351.8 40.0, 510.0 240.0, 554.0 240.0" fill="none" stroke="#6B26D9" stroke-width="2" opacity="0.55" stroke-linecap="round"/><g>
    <rect x="18.0" y="20.0" width="118.0" height="40" rx="20" fill="#fff" stroke="#E2E8F0" stroke-width="1.2"/>
    <circle cx="40.0" cy="40.0" r="13" fill="#6B26D9"/>
    <g transform="translate(32.0,32.0)"><g fill="none" stroke="#6B26D9" stroke-width="1.6" stroke-linejoin="round"><rect x="2" y="2" width="6" height="6" rx="1.2"/><rect x="10" y="2" width="6" height="6" rx="1.2"/><rect x="2" y="10" width="6" height="6" rx="1.2"/><rect x="10" y="10" width="6" height="6" rx="1.2"/></g></g>
    <text x="60.0" y="44.5" text-anchor="start" font-family="DM Sans, system-ui, sans-serif" font-size="13" font-weight="700" fill="#0F1319">Admissions</text>
  </g><path d="M 88.4 128.0 C 331.3 128.0, 510.0 240.0, 554.0 240.0" fill="none" stroke="#6B26D9" stroke-width="2" opacity="0.55" stroke-linecap="round"/><g>
    <rect x="18.0" y="108.0" width="72.4" height="40" rx="20" fill="#fff" stroke="#E2E8F0" stroke-width="1.2"/>
    <circle cx="40.0" cy="128.0" r="13" fill="#F97316"/>
    <g transform="translate(32.0,120.0)"><g fill="none" stroke="#fff" stroke-width="1.6" stroke-linecap="round"><path d="M4 3h10M4 7h10M4 3c5 0 5 4 0 4H6l6 6"/></g></g>
    <text x="60.0" y="132.5" text-anchor="start" font-family="DM Sans, system-ui, sans-serif" font-size="13" font-weight="700" fill="#0F1319">Fees</text>
  </g><path d="M 134.0 216.0 C 351.8 216.0, 510.0 240.0, 554.0 240.0" fill="none" stroke="#6B26D9" stroke-width="2" opacity="0.55" stroke-linecap="round"/><g>
    <rect x="18.0" y="196.0" width="118.0" height="40" rx="20" fill="#fff" stroke="#E2E8F0" stroke-width="1.2"/>
    <circle cx="40.0" cy="216.0" r="13" fill="#16A249"/>
    <g transform="translate(32.0,208.0)"><g fill="none" stroke="#fff" stroke-width="1.6" stroke-linejoin="round" stroke-linecap="round"><path d="M9 1.5 15 4v5.5c0 4-6 7.5-6 7.5s-6-3.5-6-7.5V4z"/><path d="M6 9l2 2 4-4"/></g></g>
    <text x="60.0" y="220.5" text-anchor="start" font-family="DM Sans, system-ui, sans-serif" font-size="13" font-weight="700" fill="#0F1319">Compliance</text>
  </g><path d="M 111.2 304.0 C 341.5 304.0, 510.0 240.0, 554.0 240.0" fill="none" stroke="#6B26D9" stroke-width="2" opacity="0.55" stroke-linecap="round"/><g>
    <rect x="18.0" y="284.0" width="95.19999999999999" height="40" rx="20" fill="#fff" stroke="#E2E8F0" stroke-width="1.2"/>
    <circle cx="40.0" cy="304.0" r="13" fill="#8B5CF6"/>
    <g transform="translate(32.0,296.0)"><g fill="none" stroke="#fff" stroke-width="1.6" stroke-linecap="round"><circle cx="6.5" cy="5.5" r="2.4"/><path d="M2 15c0-3 2-5 4.5-5s4.5 2 4.5 5"/><path d="M11.5 4a2.4 2.4 0 0 1 0 4.6"/><path d="M13 10.4c1.6.4 2.8 2 2.8 4.6"/></g></g>
    <text x="60.0" y="308.5" text-anchor="start" font-family="DM Sans, system-ui, sans-serif" font-size="13" font-weight="700" fill="#0F1319">Faculty</text>
  </g><path d="M 118.8 392.0 C 345.0 392.0, 510.0 240.0, 554.0 240.0" fill="none" stroke="#6B26D9" stroke-width="2" opacity="0.55" stroke-linecap="round"/><g>
    <rect x="18.0" y="372.0" width="102.8" height="40" rx="20" fill="#fff" stroke="#E2E8F0" stroke-width="1.2"/>
    <circle cx="40.0" cy="392.0" r="13" fill="#2563EB"/>
    <g transform="translate(32.0,384.0)"><g fill="none" stroke="#fff" stroke-width="1.6" stroke-linejoin="round" stroke-linecap="round"><path d="M9 2 1 6l8 4 8-4Z"/><path d="M4.5 8v4c0 1.2 2 2.2 4.5 2.2s4.5-1 4.5-2.2V8"/></g></g>
    <text x="60.0" y="396.5" text-anchor="start" font-family="DM Sans, system-ui, sans-serif" font-size="13" font-weight="700" fill="#0F1319">Students</text>
  </g><path d="M 134.0 440.0 C 351.8 440.0, 510.0 240.0, 554.0 240.0" fill="none" stroke="#6B26D9" stroke-width="2" opacity="0.55" stroke-linecap="round"/><g>
    <rect x="18.0" y="420.0" width="118.0" height="40" rx="20" fill="#fff" stroke="#E2E8F0" stroke-width="1.2"/>
    <circle cx="40.0" cy="440.0" r="13" fill="#0D9488"/>
    <g transform="translate(32.0,432.0)"><g fill="none" stroke="#fff" stroke-width="1.6" stroke-linejoin="round" stroke-linecap="round"><rect x="2" y="6" width="14" height="9" rx="1.6"/><path d="M6.5 6V4.5A1.5 1.5 0 0 1 8 3h2a1.5 1.5 0 0 1 1.5 1.5V6"/></g></g>
    <text x="60.0" y="444.5" text-anchor="start" font-family="DM Sans, system-ui, sans-serif" font-size="13" font-weight="700" fill="#0F1319">Placements</text>
  </g><path d="M 646.0 240.0 C 690.0 240.0, 829.7 40.0, 1024.8 40.0" fill="none" stroke="#2563EB" stroke-width="2" opacity="0.55" stroke-linecap="round"/><g>
    <rect x="1022.8" y="20.0" width="159.2" height="40" rx="20" fill="#fff" stroke="#E2E8F0" stroke-width="1.2"/>
    <circle cx="1160.0" cy="40.0" r="13" fill="#2563EB"/>
    <g transform="translate(1152.0,32.0)"><g fill="#fff"><path d="M10 1 3 10h5l-1 7 8-10H10Z"/></g></g>
    <text x="1140.0" y="44.5" text-anchor="end" font-family="DM Sans, system-ui, sans-serif" font-size="13" font-weight="700" fill="#0F1319">Faster decisions</text>
  </g><path d="M 646.0 240.0 C 690.0 240.0, 845.9 140.0, 1060.8 140.0" fill="none" stroke="#2563EB" stroke-width="2" opacity="0.55" stroke-linecap="round"/><g>
    <rect x="1058.8" y="120.0" width="123.2" height="40" rx="20" fill="#fff" stroke="#E2E8F0" stroke-width="1.2"/>
    <circle cx="1160.0" cy="140.0" r="13" fill="#16A249"/>
    <g transform="translate(1152.0,132.0)"><g fill="none" stroke="#fff" stroke-width="1.8" stroke-linecap="round" stroke-linejoin="round"><circle cx="9" cy="9" r="7.2" fill="none" stroke="#fff"/><path d="M5.5 9.2 8 11.7 12.6 6.4"/></g></g>
    <text x="1140.0" y="144.5" text-anchor="end" font-family="DM Sans, system-ui, sans-serif" font-size="13" font-weight="700" fill="#0F1319">Audit-ready</text>
  </g><path d="M 646.0 240.0 C 690.0 240.0, 842.6 240.0, 1053.6 240.0" fill="none" stroke="#2563EB" stroke-width="2" opacity="0.55" stroke-linecap="round"/><g>
    <rect x="1051.6" y="220.0" width="130.4" height="40" rx="20" fill="#fff" stroke="#E2E8F0" stroke-width="1.2"/>
    <circle cx="1160.0" cy="240.0" r="13" fill="#F97316"/>
    <g transform="translate(1152.0,232.0)"><g fill="none" stroke="#fff" stroke-width="1.7" stroke-linecap="round" stroke-linejoin="round"><path d="M2 13 7 8l3 3 6-7"/><path d="M13 4h4v4"/></g></g>
    <text x="1140.0" y="244.5" text-anchor="end" font-family="DM Sans, system-ui, sans-serif" font-size="13" font-weight="700" fill="#0F1319">Fewer errors</text>
  </g><path d="M 646.0 240.0 C 690.0 240.0, 839.4 340.0, 1046.4 340.0" fill="none" stroke="#2563EB" stroke-width="2" opacity="0.55" stroke-linecap="round"/><g>
    <rect x="1044.4" y="320.0" width="137.60000000000002" height="40" rx="20" fill="#fff" stroke="#E2E8F0" stroke-width="1.2"/>
    <circle cx="1160.0" cy="340.0" r="13" fill="#6B26D9"/>
    <g transform="translate(1152.0,332.0)"><g fill="none" stroke="#fff" stroke-width="1.6" stroke-linejoin="round" stroke-linecap="round"><rect x="2" y="6" width="14" height="9" rx="1.6"/><path d="M6.5 6V4.5A1.5 1.5 0 0 1 8 3h2a1.5 1.5 0 0 1 1.5 1.5V6"/></g></g>
    <text x="1140.0" y="344.5" text-anchor="end" font-family="DM Sans, system-ui, sans-serif" font-size="13" font-weight="700" fill="#0F1319">Placements up</text>
  </g><path d="M 646.0 240.0 C 690.0 240.0, 832.9 440.0, 1032.0 440.0" fill="none" stroke="#2563EB" stroke-width="2" opacity="0.55" stroke-linecap="round"/><g>
    <rect x="1030.0" y="420.0" width="152.0" height="40" rx="20" fill="#fff" stroke="#E2E8F0" stroke-width="1.2"/>
    <circle cx="1160.0" cy="440.0" r="13" fill="#0D9488"/>
    <g transform="translate(1152.0,432.0)"><g fill="#fff"><path d="M9 15.5 2.5 9.7C.5 7.9 1 4.8 3.4 3.7c1.7-.8 3.6-.2 4.6 1.2C9 3.5 10.9 2.9 12.6 3.7c2.4 1.1 2.9 4.2.9 6Z"/></g></g>
    <text x="1140.0" y="444.5" text-anchor="end" font-family="DM Sans, system-ui, sans-serif" font-size="13" font-weight="700" fill="#0F1319">Happier faculty</text>
  </g></svg>