<svg viewBox="0 0 1200 620" xmlns="http://www.w3.org/2000/svg">
  <defs>
    <radialGradient id="hubOuter" cx="50%" cy="50%" r="50%">
      <stop offset="0%" stop-color="#B99AE9" stop-opacity="0.55"/>
      <stop offset="100%" stop-color="#B99AE9" stop-opacity="0.12"/>
    </radialGradient>
    <radialGradient id="hubMid" cx="45%" cy="42%" r="60%">
      <stop offset="0%" stop-color="#9668DE"/>
      <stop offset="100%" stop-color="#6B26D9"/>
    </radialGradient>
    <radialGradient id="hubCore" cx="42%" cy="38%" r="65%">
      <stop offset="0%" stop-color="#C7ACF2"/>
      <stop offset="100%" stop-color="#8B5CF6"/>
    </radialGradient>
    <filter id="softShadow2" x="-60%" y="-60%" width="220%" height="220%">
      <feDropShadow dx="0" dy="8" stdDeviation="10" flood-color="#3A2E75" flood-opacity="0.22"/>
    </filter>
  </defs>
  <g opacity="0.9">
    <path d="M 184.2 46.0 C 362.9 46.0, 472.0 270.4, 530.0 310.0" fill="none" stroke="#E7E4F5" stroke-width="15.0" stroke-linecap="round"/><path d="M 193.6 178.0 C 366.6 178.0, 472.0 290.2, 530.0 310.0" fill="none" stroke="#E7E4F5" stroke-width="14.5" stroke-linecap="round"/><path d="M 184.2 310.0 C 362.9 310.0, 472.0 310.0, 530.0 310.0" fill="none" stroke="#E7E4F5" stroke-width="14.0" stroke-linecap="round"/><path d="M 231.0 442.0 C 381.6 442.0, 472.0 329.8, 530.0 310.0" fill="none" stroke="#E7E4F5" stroke-width="13.5" stroke-linecap="round"/><path d="M 231.0 574.0 C 381.6 574.0, 472.0 349.6, 530.0 310.0" fill="none" stroke="#E7E4F5" stroke-width="13.0" stroke-linecap="round"/>
    <path d="M 670.0 310.0 C 728.0 270.4, 837.1 46.0, 1015.8 46.0" fill="none" stroke="#E7E4F5" stroke-width="15.0" stroke-linecap="round"/><path d="M 670.0 310.0 C 728.0 290.2, 814.7 178.0, 959.6 178.0" fill="none" stroke="#E7E4F5" stroke-width="14.5" stroke-linecap="round"/><path d="M 670.0 310.0 C 728.0 310.0, 825.9 310.0, 987.7 310.0" fill="none" stroke="#E7E4F5" stroke-width="14.0" stroke-linecap="round"/><path d="M 670.0 310.0 C 728.0 329.8, 833.4 442.0, 1006.4 442.0" fill="none" stroke="#E7E4F5" stroke-width="13.5" stroke-linecap="round"/><path d="M 670.0 310.0 C 728.0 349.6, 852.1 574.0, 1053.2 574.0" fill="none" stroke="#E7E4F5" stroke-width="13.0" stroke-linecap="round"/>
  </g>
  <circle cx="600" cy="310" r="118" fill="url(#hubOuter)"/>
  <circle cx="600" cy="310" r="80" fill="url(#hubMid)" filter="url(#softShadow2)"/>
  <circle cx="600" cy="310" r="50" fill="url(#hubCore)"/>
  <text x="600" y="317" text-anchor="middle" font-family="DM Sans, system-ui, sans-serif" font-size="19" font-weight="800" fill="#fff" letter-spacing="-0.01em">HexP</text>
  <g>
    <rect x="20.0" y="21.3" width="148.2" height="49.4" rx="24.7" fill="#fff" stroke="#ECECF1" stroke-width="1.3"/>
    <circle cx="43.2" cy="46.0" r="16.2" fill="#EDE6FA"/>
    <g transform="translate(32.9,35.6) scale(1.156)"><g fill="none" stroke="#6B26D9" stroke-width="1.6" stroke-linejoin="round"><rect x="2" y="2" width="6" height="6" rx="1.2"/><rect x="10" y="2" width="6" height="6" rx="1.2"/><rect x="2" y="10" width="6" height="6" rx="1.2"/><rect x="10" y="10" width="6" height="6" rx="1.2"/></g></g>
    <text x="68.5" y="51.5" text-anchor="start" font-family="DM Sans, system-ui, sans-serif" font-size="16.2" font-weight="600" fill="#3A3A44">Admissions</text>
  </g><g>
    <rect x="20.0" y="153.3" width="157.6" height="49.4" rx="24.7" fill="#fff" stroke="#ECECF1" stroke-width="1.3"/>
    <circle cx="43.2" cy="178.0" r="16.2" fill="#E4EBFB"/>
    <g transform="translate(32.9,167.6) scale(1.156)"><g fill="none" stroke="#2563EB" stroke-width="1.6" stroke-linejoin="round" stroke-linecap="round"><rect x="2" y="3.5" width="14" height="11.5" rx="2"/><path d="M2 7h14M5.5 1.5v3M12.5 1.5v3"/></g></g>
    <text x="68.5" y="183.5" text-anchor="start" font-family="DM Sans, system-ui, sans-serif" font-size="16.2" font-weight="600" fill="#3A3A44">Timetabling</text>
  </g><g>
    <rect x="20.0" y="285.3" width="148.2" height="49.4" rx="24.7" fill="#fff" stroke="#ECECF1" stroke-width="1.3"/>
    <circle cx="43.2" cy="310.0" r="16.2" fill="#E5FAED"/>
    <g transform="translate(32.9,299.6) scale(1.156)"><g fill="none" stroke="#16A249" stroke-width="1.6" stroke-linejoin="round" stroke-linecap="round"><path d="M9 1.5 15 4v5.5c0 4-6 7.5-6 7.5s-6-3.5-6-7.5V4z"/><path d="M6 9l2 2 4-4"/></g></g>
    <text x="68.5" y="315.5" text-anchor="start" font-family="DM Sans, system-ui, sans-serif" font-size="16.2" font-weight="600" fill="#3A3A44">Compliance</text>
  </g><g>
    <rect x="20.0" y="417.3" width="195.0" height="49.4" rx="24.7" fill="#fff" stroke="#ECECF1" stroke-width="1.3"/>
    <circle cx="43.2" cy="442.0" r="16.2" fill="#E4EBFB"/>
    <g transform="translate(32.9,431.6) scale(1.156)"><g fill="none" stroke="#2563EB" stroke-width="1.6" stroke-linecap="round"><path d="M4 3h10M4 7h10M4 3c5 0 5 4 0 4H6l6 6"/></g></g>
    <text x="68.5" y="447.5" text-anchor="start" font-family="DM Sans, system-ui, sans-serif" font-size="16.2" font-weight="600" fill="#3A3A44">Fee eligibility</text>
  </g><g>
    <rect x="20.0" y="549.3" width="195.0" height="49.4" rx="24.7" fill="#fff" stroke="#ECECF1" stroke-width="1.3"/>
    <circle cx="43.2" cy="574.0" r="16.2" fill="#EDE9FE"/>
    <g transform="translate(32.9,563.6) scale(1.156)"><g fill="none" stroke="#8B5CF6" stroke-width="1.6" stroke-linecap="round" stroke-linejoin="round"><circle cx="9" cy="9" r="7.2"/><path d="M9 4.8V9l3 2"/></g></g>
    <text x="68.5" y="579.5" text-anchor="start" font-family="DM Sans, system-ui, sans-serif" font-size="16.2" font-weight="600" fill="#3A3A44">Exam scheduling</text>
  </g><g>
    <rect x="1031.8" y="21.3" width="148.2" height="49.4" rx="24.7" fill="#fff" stroke="#ECECF1" stroke-width="1.3"/>
    <circle cx="1156.8" cy="46.0" r="16.2" fill="#E4EBFB"/>
    <g transform="translate(1146.3,35.6) scale(1.156)"><g fill="none" stroke="#2563EB" stroke-width="1.6" stroke-linejoin="round" stroke-linecap="round"><path d="M9 2 1 6l8 4 8-4Z"/><path d="M4.5 8v4c0 1.2 2 2.2 4.5 2.2s4.5-1 4.5-2.2V8"/></g></g>
    <text x="1131.5" y="51.5" text-anchor="end" font-family="DM Sans, system-ui, sans-serif" font-size="16.2" font-weight="600" fill="#3A3A44">Placements</text>
  </g><g>
    <rect x="975.6" y="153.3" width="204.4" height="49.4" rx="24.7" fill="#fff" stroke="#ECECF1" stroke-width="1.3"/>
    <circle cx="1156.8" cy="178.0" r="16.2" fill="#FCE7F3"/>
    <g transform="translate(1146.3,167.6) scale(1.156)"><g fill="none" stroke="#DB2777" stroke-width="1.6" stroke-linejoin="round" stroke-linecap="round"><path d="M9 2 16.5 15.5h-15Z"/><path d="M9 7.4V11"/><path d="M9 13.2v.2"/></g></g>
    <text x="1131.5" y="183.5" text-anchor="end" font-family="DM Sans, system-ui, sans-serif" font-size="16.2" font-weight="600" fill="#3A3A44">At-risk students</text>
  </g><g>
    <rect x="1003.7" y="285.3" width="176.3" height="49.4" rx="24.7" fill="#fff" stroke="#ECECF1" stroke-width="1.3"/>
    <circle cx="1156.8" cy="310.0" r="16.2" fill="#E5FAED"/>
    <g transform="translate(1146.3,299.6) scale(1.156)"><g fill="none" stroke="#16A249" stroke-width="1.6" stroke-linejoin="round" stroke-linecap="round"><circle cx="9" cy="7" r="5.2"/><path d="M6 11.5 4.8 16 9 14l4.2 2-1.2-4.5"/><path d="M6.6 6.7 8.2 8.3 11.6 4.9"/></g></g>
    <text x="1131.5" y="315.5" text-anchor="end" font-family="DM Sans, system-ui, sans-serif" font-size="16.2" font-weight="600" fill="#3A3A44">Accreditation</text>
  </g><g>
    <rect x="1022.4" y="417.3" width="157.6" height="49.4" rx="24.7" fill="#fff" stroke="#ECECF1" stroke-width="1.3"/>
    <circle cx="1156.8" cy="442.0" r="16.2" fill="#EDE9FE"/>
    <g transform="translate(1146.3,431.6) scale(1.156)"><g fill="none" stroke="#8B5CF6" stroke-width="1.6" stroke-linejoin="round" stroke-linecap="round"><rect x="2" y="3" width="14" height="12" rx="2"/><circle cx="9" cy="8" r="2.4"/><path d="M5.5 15v-2.5c0-1 1.5-1.8 3.5-1.8s3.5.8 3.5 1.8V15"/></g></g>
    <text x="1131.5" y="447.5" text-anchor="end" font-family="DM Sans, system-ui, sans-serif" font-size="16.2" font-weight="600" fill="#3A3A44">Credentials</text>
  </g><g>
    <rect x="1069.2" y="549.3" width="110.8" height="49.4" rx="24.7" fill="#fff" stroke="#ECECF1" stroke-width="1.3"/>
    <circle cx="1156.8" cy="574.0" r="16.2" fill="#FFEDD5"/>
    <g transform="translate(1146.3,563.6) scale(1.156)"><g fill="none" stroke="#F97316" stroke-width="1.6" stroke-linecap="round" stroke-linejoin="round"><circle cx="9" cy="6" r="3.2"/><path d="M2.8 16c0-3.6 2.7-6.2 6.2-6.2s6.2 2.6 6.2 6.2"/></g></g>
    <text x="1131.5" y="579.5" text-anchor="end" font-family="DM Sans, system-ui, sans-serif" font-size="16.2" font-weight="600" fill="#3A3A44">Alumni</text>
  </g>
</svg>