<svg width="924" height="739" viewBox="0 0 924 739" fill="none" xmlns="http://www.w3.org/2000/svg">
<g filter="url(#filter0_d_27_122)">
<rect x="454.896" y="531.319" width="452.974" height="172.681" rx="15.8475" fill="white" fill-opacity="0.01" shape-rendering="crispEdges"/>
</g>
<rect x="14.4487" y="0.577947" width="395.315" height="150.38" rx="13.2928" fill="white"/>
<rect x="14.4487" y="0.577947" width="395.315" height="150.38" rx="13.2928" stroke="#ECEDF1" stroke-width="1.15589"/>
<g filter="url(#filter1_d_27_122)">
<rect x="13.8707" width="396.471" height="152.266" rx="13.8707" fill="white" fill-opacity="0.01" shape-rendering="crispEdges"/>
</g>
<path d="M33.4014 33.1825V22.6744H37.342C38.1492 22.6744 38.8265 22.8146 39.3738 23.0951C39.9245 23.3756 40.3401 23.769 40.6206 24.2752C40.9045 24.7781 41.0465 25.3647 41.0465 26.0351C41.0465 26.709 40.9028 27.2939 40.6155 27.7899C40.3316 28.2825 39.9126 28.6639 39.3584 28.9341C38.8043 29.2009 38.1236 29.3343 37.3163 29.3343H34.5097V27.754H37.0598C37.5318 27.754 37.9184 27.689 38.2194 27.559C38.5204 27.4256 38.7427 27.2323 38.8864 26.9792C39.0335 26.7227 39.107 26.408 39.107 26.0351C39.107 25.6623 39.0335 25.3442 38.8864 25.0808C38.7393 24.814 38.5153 24.6122 38.2142 24.4753C37.9132 24.3351 37.525 24.265 37.0495 24.265H35.305V33.1825H33.4014ZM38.8299 28.421L41.4313 33.1825H39.3071L36.7519 28.421H38.8299ZM46.0928 33.3364C45.3026 33.3364 44.6202 33.1722 44.0455 32.8439C43.4743 32.5121 43.0347 32.0434 42.7269 31.438C42.419 30.8291 42.2651 30.1125 42.2651 29.2881C42.2651 28.4774 42.419 27.766 42.7269 27.1537C43.0382 26.538 43.4726 26.0591 44.0301 25.717C44.5877 25.3715 45.2427 25.1988 45.9953 25.1988C46.481 25.1988 46.9394 25.2775 47.3704 25.4348C47.8048 25.5887 48.1879 25.8282 48.5197 26.1531C48.8549 26.4781 49.1183 26.892 49.3098 27.3948C49.5014 27.8942 49.5972 28.4894 49.5972 29.1804V29.7499H43.1374V28.498H47.8167C47.8133 28.1422 47.7364 27.8258 47.5859 27.5487C47.4354 27.2683 47.225 27.0476 46.9548 26.8869C46.6879 26.7261 46.3767 26.6457 46.0209 26.6457C45.6412 26.6457 45.3077 26.7381 45.0204 26.9228C44.7331 27.1041 44.509 27.3435 44.3482 27.6411C44.1909 27.9353 44.1105 28.2585 44.1071 28.6108V29.7037C44.1071 30.1621 44.1909 30.5555 44.3585 30.8838C44.5261 31.2088 44.7604 31.4585 45.0614 31.633C45.3625 31.804 45.7148 31.8895 46.1184 31.8895C46.3886 31.8895 46.6332 31.8519 46.8521 31.7766C47.0711 31.6979 47.2609 31.5834 47.4217 31.4329C47.5824 31.2823 47.7039 31.0959 47.786 30.8736L49.5202 31.0686C49.4108 31.5269 49.2021 31.9271 48.8942 32.2692C48.5898 32.6078 48.1999 32.8712 47.7244 33.0594C47.2489 33.2441 46.7051 33.3364 46.0928 33.3364ZM57.3975 27.3846L55.7043 27.5693C55.6564 27.3982 55.5726 27.2375 55.4528 27.087C55.3365 26.9365 55.1792 26.815 54.9808 26.7227C54.7824 26.6303 54.5395 26.5841 54.2522 26.5841C53.8657 26.5841 53.5407 26.6679 53.2773 26.8355C53.0174 27.0032 52.8891 27.2204 52.8925 27.4872C52.8891 27.7164 52.9729 27.9028 53.1439 28.0464C53.3184 28.1901 53.6057 28.3081 54.0059 28.4005L55.3502 28.6878C56.0959 28.8486 56.6501 29.1034 57.0126 29.4523C57.3786 29.8012 57.5634 30.2579 57.5668 30.8223C57.5634 31.3183 57.418 31.7561 57.1306 32.1358C56.8467 32.5121 56.4517 32.8062 55.9454 33.0183C55.4392 33.2304 54.8577 33.3364 54.2009 33.3364C53.2363 33.3364 52.4598 33.1346 51.8715 32.731C51.2831 32.3239 50.9325 31.7578 50.8196 31.0326L52.6308 30.8582C52.7129 31.2139 52.8874 31.4825 53.1542 31.6637C53.421 31.845 53.7682 31.9357 54.1958 31.9357C54.637 31.9357 54.9911 31.845 55.2579 31.6637C55.5281 31.4825 55.6632 31.2584 55.6632 30.9916C55.6632 30.7658 55.576 30.5794 55.4015 30.4323C55.2305 30.2852 54.9637 30.1724 54.6011 30.0937L53.2568 29.8115C52.5009 29.6541 51.9416 29.389 51.579 29.0162C51.2164 28.6399 51.0368 28.1645 51.0403 27.5898C51.0368 27.1041 51.1685 26.6833 51.4353 26.3276C51.7056 25.9684 52.0801 25.6914 52.559 25.4964C53.0413 25.298 53.5972 25.1988 54.2266 25.1988C55.1501 25.1988 55.877 25.3955 56.4072 25.7888C56.9408 26.1822 57.2709 26.7141 57.3975 27.3846ZM62.5361 33.3364C61.7664 33.3364 61.0994 33.1671 60.535 32.8285C59.9706 32.4898 59.5328 32.0161 59.2215 31.4072C58.9136 30.7983 58.7597 30.0868 58.7597 29.2727C58.7597 28.4586 58.9136 27.7454 59.2215 27.1331C59.5328 26.5209 59.9706 26.0454 60.535 25.7067C61.0994 25.3681 61.7664 25.1988 62.5361 25.1988C63.3057 25.1988 63.9727 25.3681 64.5371 25.7067C65.1015 26.0454 65.5377 26.5209 65.8455 27.1331C66.1568 27.7454 66.3124 28.4586 66.3124 29.2727C66.3124 30.0868 66.1568 30.7983 65.8455 31.4072C65.5377 32.0161 65.1015 32.4898 64.5371 32.8285C63.9727 33.1671 63.3057 33.3364 62.5361 33.3364ZM62.5463 31.8485C62.9636 31.8485 63.3125 31.7339 63.593 31.5047C63.8735 31.2721 64.0822 30.9608 64.219 30.5709C64.3593 30.1809 64.4294 29.7465 64.4294 29.2676C64.4294 28.7853 64.3593 28.3492 64.219 27.9592C64.0822 27.5659 63.8735 27.2529 63.593 27.0203C63.3125 26.7877 62.9636 26.6714 62.5463 26.6714C62.1188 26.6714 61.763 26.7877 61.4791 27.0203C61.1986 27.2529 60.9882 27.5659 60.848 27.9592C60.7112 28.3492 60.6428 28.7853 60.6428 29.2676C60.6428 29.7465 60.7112 30.1809 60.848 30.5709C60.9882 30.9608 61.1986 31.2721 61.4791 31.5047C61.763 31.7339 62.1188 31.8485 62.5463 31.8485ZM69.7463 22.6744V33.1825H67.8889V22.6744H69.7463ZM78.6959 25.3014L75.8893 33.1825H73.8369L71.0303 25.3014H73.0108L74.8221 31.1558H74.9041L76.7205 25.3014H78.6959ZM83.2021 33.3364C82.412 33.3364 81.7296 33.1722 81.1549 32.8439C80.5836 32.5121 80.1441 32.0434 79.8362 31.438C79.5284 30.8291 79.3745 30.1125 79.3745 29.2881C79.3745 28.4774 79.5284 27.766 79.8362 27.1537C80.1475 26.538 80.5819 26.0591 81.1395 25.717C81.6971 25.3715 82.3521 25.1988 83.1046 25.1988C83.5904 25.1988 84.0487 25.2775 84.4797 25.4348C84.9141 25.5887 85.2973 25.8282 85.6291 26.1531C85.9643 26.4781 86.2277 26.892 86.4192 27.3948C86.6108 27.8942 86.7065 28.4894 86.7065 29.1804V29.7499H80.2467V28.498H84.9261C84.9227 28.1422 84.8457 27.8258 84.6952 27.5487C84.5447 27.2683 84.3343 27.0476 84.0641 26.8869C83.7973 26.7261 83.486 26.6457 83.1303 26.6457C82.7506 26.6457 82.4171 26.7381 82.1298 26.9228C81.8424 27.1041 81.6184 27.3435 81.4576 27.6411C81.3003 27.9353 81.2199 28.2585 81.2165 28.6108V29.7037C81.2165 30.1621 81.3003 30.5555 81.4679 30.8838C81.6355 31.2088 81.8698 31.4585 82.1708 31.633C82.4718 31.804 82.8241 31.8895 83.2278 31.8895C83.498 31.8895 83.7426 31.8519 83.9615 31.7766C84.1804 31.6979 84.3703 31.5834 84.531 31.4329C84.6918 31.2823 84.8132 31.0959 84.8953 30.8736L86.6296 31.0686C86.5201 31.5269 86.3115 31.9271 86.0036 32.2692C85.6992 32.6078 85.3092 32.8712 84.8338 33.0594C84.3583 33.2441 83.8144 33.3364 83.2021 33.3364ZM91.2025 33.321C90.5834 33.321 90.0292 33.162 89.5401 32.8439C89.0509 32.5257 88.6644 32.064 88.3805 31.4585C88.0966 30.8531 87.9546 30.1176 87.9546 29.2522C87.9546 28.3765 88.0983 27.6377 88.3856 27.0357C88.6764 26.4302 89.068 25.9736 89.5606 25.6657C90.0532 25.3544 90.6022 25.1988 91.2076 25.1988C91.6694 25.1988 92.0491 25.2775 92.3467 25.4348C92.6443 25.5887 92.8803 25.7752 93.0548 25.9941C93.2292 26.2096 93.3643 26.4131 93.4601 26.6047H93.5371V22.6744H95.3996V33.1825H93.573V31.9408H93.4601C93.3643 32.1324 93.2258 32.3359 93.0445 32.5514C92.8632 32.7635 92.6238 32.9448 92.3262 33.0953C92.0286 33.2458 91.654 33.321 91.2025 33.321ZM91.7207 31.7971C92.1141 31.7971 92.4493 31.6911 92.7264 31.479C93.0035 31.2635 93.2138 30.9642 93.3575 30.5811C93.5012 30.198 93.573 29.7516 93.573 29.242C93.573 28.7323 93.5012 28.2893 93.3575 27.913C93.2173 27.5368 93.0086 27.2443 92.7315 27.0357C92.4579 26.827 92.1209 26.7227 91.7207 26.7227C91.3068 26.7227 90.9614 26.8304 90.6843 27.0459C90.4072 27.2614 90.1986 27.559 90.0583 27.9387C89.9181 28.3184 89.8479 28.7528 89.8479 29.242C89.8479 29.7345 89.9181 30.1741 90.0583 30.5606C90.202 30.9437 90.4123 31.2464 90.6894 31.4688C90.9699 31.6877 91.3137 31.7971 91.7207 31.7971ZM103.231 33.3416C102.731 33.3416 102.281 33.2526 101.881 33.0747C101.484 32.8935 101.17 32.6266 100.937 32.2743C100.708 31.922 100.593 31.4876 100.593 30.9711C100.593 30.5264 100.675 30.1587 100.84 29.8679C101.004 29.5772 101.228 29.3446 101.512 29.1701C101.796 28.9957 102.116 28.864 102.471 28.775C102.83 28.6827 103.202 28.616 103.585 28.5749C104.046 28.527 104.421 28.4843 104.708 28.4467C104.996 28.4056 105.204 28.344 105.334 28.2619C105.468 28.1764 105.534 28.0447 105.534 27.8669V27.8361C105.534 27.4495 105.42 27.1502 105.191 26.9382C104.961 26.7261 104.631 26.6201 104.2 26.6201C103.745 26.6201 103.385 26.7192 103.118 26.9176C102.854 27.116 102.677 27.3504 102.584 27.6206L100.85 27.3743C100.987 26.8954 101.213 26.4952 101.527 26.1737C101.842 25.8487 102.227 25.6058 102.682 25.4451C103.137 25.2809 103.639 25.1988 104.19 25.1988C104.57 25.1988 104.948 25.2433 105.324 25.3322C105.7 25.4211 106.044 25.5682 106.355 25.7734C106.667 25.9753 106.916 26.2506 107.105 26.5995C107.296 26.9484 107.392 27.3846 107.392 27.9079V33.1825H105.606V32.0999H105.545C105.432 32.3188 105.273 32.524 105.068 32.7156C104.866 32.9037 104.611 33.0559 104.303 33.1722C103.999 33.2851 103.641 33.3416 103.231 33.3416ZM103.713 31.9767C104.086 31.9767 104.409 31.9032 104.683 31.7561C104.956 31.6056 105.167 31.4072 105.314 31.1609C105.464 30.9146 105.54 30.6461 105.54 30.3554V29.4267C105.481 29.4746 105.382 29.519 105.242 29.5601C105.105 29.6011 104.951 29.637 104.78 29.6678C104.609 29.6986 104.44 29.726 104.272 29.7499C104.105 29.7739 103.959 29.7944 103.836 29.8115C103.559 29.8491 103.311 29.9107 103.092 29.9962C102.873 30.0817 102.7 30.2014 102.574 30.3554C102.447 30.5059 102.384 30.7008 102.384 30.9403C102.384 31.2823 102.509 31.5406 102.759 31.7151C103.008 31.8895 103.326 31.9767 103.713 31.9767ZM114.283 29.8679V25.3014H116.14V33.1825H114.339V31.7818H114.257C114.079 32.223 113.787 32.5839 113.38 32.8644C112.976 33.1449 112.478 33.2851 111.887 33.2851C111.37 33.2851 110.913 33.1705 110.517 32.9413C110.123 32.7087 109.815 32.3718 109.593 31.9306C109.371 31.4859 109.259 30.9488 109.259 30.3194V25.3014H111.117V30.0321C111.117 30.5315 111.254 30.9283 111.527 31.2225C111.801 31.5167 112.16 31.6637 112.605 31.6637C112.878 31.6637 113.144 31.597 113.4 31.4636C113.657 31.3302 113.867 31.1318 114.031 30.8685C114.199 30.6016 114.283 30.2681 114.283 29.8679ZM121.985 25.3014V26.7381H117.455V25.3014H121.985ZM118.573 23.4132H120.431V30.812C120.431 31.0617 120.468 31.2533 120.544 31.3867C120.622 31.5167 120.725 31.6056 120.852 31.6535C120.978 31.7014 121.118 31.7253 121.272 31.7253C121.389 31.7253 121.495 31.7168 121.59 31.6997C121.69 31.6826 121.765 31.6672 121.816 31.6535L122.129 33.1055C122.03 33.1397 121.888 33.1774 121.703 33.2184C121.522 33.2595 121.3 33.2834 121.036 33.2902C120.571 33.3039 120.152 33.2338 119.779 33.0799C119.406 32.9225 119.11 32.6797 118.892 32.3513C118.676 32.0229 118.57 31.6124 118.573 31.1199V23.4132ZM126.892 33.3364C126.122 33.3364 125.455 33.1671 124.891 32.8285C124.326 32.4898 123.889 32.0161 123.577 31.4072C123.269 30.7983 123.116 30.0868 123.116 29.2727C123.116 28.4586 123.269 27.7454 123.577 27.1331C123.889 26.5209 124.326 26.0454 124.891 25.7067C125.455 25.3681 126.122 25.1988 126.892 25.1988C127.662 25.1988 128.329 25.3681 128.893 25.7067C129.457 26.0454 129.893 26.5209 130.201 27.1331C130.513 27.7454 130.668 28.4586 130.668 29.2727C130.668 30.0868 130.513 30.7983 130.201 31.4072C129.893 32.0161 129.457 32.4898 128.893 32.8285C128.329 33.1671 127.662 33.3364 126.892 33.3364ZM126.902 31.8485C127.319 31.8485 127.668 31.7339 127.949 31.5047C128.229 31.2721 128.438 30.9608 128.575 30.5709C128.715 30.1809 128.785 29.7465 128.785 29.2676C128.785 28.7853 128.715 28.3492 128.575 27.9592C128.438 27.5659 128.229 27.2529 127.949 27.0203C127.668 26.7877 127.319 26.6714 126.902 26.6714C126.475 26.6714 126.119 26.7877 125.835 27.0203C125.554 27.2529 125.344 27.5659 125.204 27.9592C125.067 28.3492 124.999 28.7853 124.999 29.2676C124.999 29.7465 125.067 30.1809 125.204 30.5709C125.344 30.9608 125.554 31.2721 125.835 31.5047C126.119 31.7339 126.475 31.8485 126.902 31.8485ZM132.245 33.1825V25.3014H134.02V26.6406H134.112C134.277 26.1891 134.549 25.8367 134.928 25.5836C135.308 25.3271 135.761 25.1988 136.288 25.1988C136.822 25.1988 137.271 25.3288 137.637 25.5887C138.007 25.8453 138.267 26.1959 138.417 26.6406H138.499C138.674 26.2027 138.968 25.8538 139.382 25.5939C139.799 25.3305 140.293 25.1988 140.865 25.1988C141.59 25.1988 142.182 25.428 142.64 25.8863C143.098 26.3447 143.328 27.0134 143.328 27.8925V33.1825H141.465V28.1798C141.465 27.6907 141.335 27.3332 141.075 27.1075C140.815 26.8783 140.497 26.7637 140.121 26.7637C139.673 26.7637 139.322 26.904 139.069 27.1845C138.819 27.4615 138.694 27.8224 138.694 28.2671V33.1825H136.873V28.1029C136.873 27.6958 136.75 27.3709 136.503 27.128C136.261 26.8851 135.942 26.7637 135.549 26.7637C135.282 26.7637 135.039 26.8321 134.82 26.969C134.602 27.1024 134.427 27.2922 134.297 27.5385C134.167 27.7813 134.102 28.0653 134.102 28.3902V33.1825H132.245ZM147.48 33.3416C146.98 33.3416 146.53 33.2526 146.13 33.0747C145.733 32.8935 145.419 32.6266 145.186 32.2743C144.957 31.922 144.842 31.4876 144.842 30.9711C144.842 30.5264 144.925 30.1587 145.089 29.8679C145.253 29.5772 145.477 29.3446 145.761 29.1701C146.045 28.9957 146.365 28.864 146.72 28.775C147.079 28.6827 147.451 28.616 147.834 28.5749C148.296 28.527 148.67 28.4843 148.957 28.4467C149.245 28.4056 149.453 28.344 149.583 28.2619C149.717 28.1764 149.783 28.0447 149.783 27.8669V27.8361C149.783 27.4495 149.669 27.1502 149.44 26.9382C149.211 26.7261 148.88 26.6201 148.449 26.6201C147.995 26.6201 147.634 26.7192 147.367 26.9176C147.103 27.116 146.926 27.3504 146.833 27.6206L145.099 27.3743C145.236 26.8954 145.462 26.4952 145.776 26.1737C146.091 25.8487 146.476 25.6058 146.931 25.4451C147.386 25.2809 147.888 25.1988 148.439 25.1988C148.819 25.1988 149.197 25.2433 149.573 25.3322C149.949 25.4211 150.293 25.5682 150.604 25.7734C150.916 25.9753 151.165 26.2506 151.354 26.5995C151.545 26.9484 151.641 27.3846 151.641 27.9079V33.1825H149.855V32.0999H149.794C149.681 32.3188 149.522 32.524 149.317 32.7156C149.115 32.9037 148.86 33.0559 148.552 33.1722C148.248 33.2851 147.89 33.3416 147.48 33.3416ZM147.962 31.9767C148.335 31.9767 148.658 31.9032 148.932 31.7561C149.205 31.6056 149.416 31.4072 149.563 31.1609C149.713 30.9146 149.789 30.6461 149.789 30.3554V29.4267C149.73 29.4746 149.631 29.519 149.491 29.5601C149.354 29.6011 149.2 29.637 149.029 29.6678C148.858 29.6986 148.689 29.726 148.521 29.7499C148.354 29.7739 148.208 29.7944 148.085 29.8115C147.808 29.8491 147.56 29.9107 147.341 29.9962C147.122 30.0817 146.95 30.2014 146.823 30.3554C146.696 30.5059 146.633 30.7008 146.633 30.9403C146.633 31.2823 146.758 31.5406 147.008 31.7151C147.257 31.8895 147.575 31.9767 147.962 31.9767ZM157.444 25.3014V26.7381H152.913V25.3014H157.444ZM154.032 23.4132H155.889V30.812C155.889 31.0617 155.927 31.2533 156.002 31.3867C156.081 31.5167 156.183 31.6056 156.31 31.6535C156.437 31.7014 156.577 31.7253 156.731 31.7253C156.847 31.7253 156.953 31.7168 157.049 31.6997C157.148 31.6826 157.223 31.6672 157.275 31.6535L157.588 33.1055C157.488 33.1397 157.346 33.1774 157.162 33.2184C156.98 33.2595 156.758 33.2834 156.495 33.2902C156.03 33.3039 155.61 33.2338 155.238 33.0799C154.865 32.9225 154.569 32.6797 154.35 32.3513C154.134 32.0229 154.028 31.6124 154.032 31.1199V23.4132ZM158.997 33.1825V25.3014H160.855V33.1825H158.997ZM159.931 24.1829C159.637 24.1829 159.384 24.0854 159.172 23.8904C158.96 23.692 158.854 23.4543 158.854 23.1772C158.854 22.8967 158.96 22.659 159.172 22.464C159.384 22.2656 159.637 22.1664 159.931 22.1664C160.229 22.1664 160.482 22.2656 160.691 22.464C160.903 22.659 161.009 22.8967 161.009 23.1772C161.009 23.4543 160.903 23.692 160.691 23.8904C160.482 24.0854 160.229 24.1829 159.931 24.1829ZM166.202 33.3364C165.416 33.3364 164.74 33.1637 164.176 32.8182C163.615 32.4727 163.182 31.9955 162.878 31.3867C162.577 30.7744 162.426 30.0697 162.426 29.2727C162.426 28.4723 162.58 27.766 162.888 27.1537C163.196 26.538 163.63 26.0591 164.191 25.717C164.755 25.3715 165.423 25.1988 166.192 25.1988C166.832 25.1988 167.398 25.3168 167.89 25.5528C168.386 25.7854 168.782 26.1155 169.076 26.5431C169.37 26.9672 169.538 27.4632 169.579 28.0311H167.803C167.731 27.6514 167.56 27.335 167.29 27.0818C167.023 26.8253 166.666 26.697 166.218 26.697C165.838 26.697 165.505 26.7996 165.217 27.0049C164.93 27.2067 164.706 27.4974 164.545 27.8771C164.388 28.2568 164.309 28.7118 164.309 29.242C164.309 29.779 164.388 30.2408 164.545 30.6273C164.702 31.0104 164.923 31.3063 165.207 31.5149C165.494 31.7202 165.831 31.8228 166.218 31.8228C166.491 31.8228 166.736 31.7715 166.952 31.6689C167.17 31.5628 167.353 31.4106 167.501 31.2122C167.648 31.0138 167.749 30.7727 167.803 30.4888H169.579C169.534 31.0463 169.37 31.5406 169.086 31.9716C168.802 32.3992 168.416 32.7344 167.926 32.9773C167.437 33.2167 166.863 33.3364 166.202 33.3364ZM173.372 33.3416C172.872 33.3416 172.422 33.2526 172.022 33.0747C171.625 32.8935 171.311 32.6266 171.078 32.2743C170.849 31.922 170.734 31.4876 170.734 30.9711C170.734 30.5264 170.816 30.1587 170.981 29.8679C171.145 29.5772 171.369 29.3446 171.653 29.1701C171.937 28.9957 172.256 28.864 172.612 28.775C172.971 28.6827 173.343 28.616 173.726 28.5749C174.187 28.527 174.562 28.4843 174.849 28.4467C175.137 28.4056 175.345 28.344 175.475 28.2619C175.609 28.1764 175.675 28.0447 175.675 27.8669V27.8361C175.675 27.4495 175.561 27.1502 175.332 26.9382C175.102 26.7261 174.772 26.6201 174.341 26.6201C173.886 26.6201 173.526 26.7192 173.259 26.9176C172.995 27.116 172.817 27.3504 172.725 27.6206L170.991 27.3743C171.128 26.8954 171.353 26.4952 171.668 26.1737C171.983 25.8487 172.368 25.6058 172.823 25.4451C173.278 25.2809 173.78 25.1988 174.331 25.1988C174.711 25.1988 175.089 25.2433 175.465 25.3322C175.841 25.4211 176.185 25.5682 176.496 25.7734C176.808 25.9753 177.057 26.2506 177.245 26.5995C177.437 26.9484 177.533 27.3846 177.533 27.9079V33.1825H175.747V32.0999H175.686C175.573 32.3188 175.414 32.524 175.208 32.7156C175.007 32.9037 174.752 33.0559 174.444 33.1722C174.14 33.2851 173.782 33.3416 173.372 33.3416ZM173.854 31.9767C174.227 31.9767 174.55 31.9032 174.824 31.7561C175.097 31.6056 175.308 31.4072 175.455 31.1609C175.605 30.9146 175.681 30.6461 175.681 30.3554V29.4267C175.622 29.4746 175.523 29.519 175.383 29.5601C175.246 29.6011 175.092 29.637 174.921 29.6678C174.75 29.6986 174.581 29.726 174.413 29.7499C174.246 29.7739 174.1 29.7944 173.977 29.8115C173.7 29.8491 173.452 29.9107 173.233 29.9962C173.014 30.0817 172.841 30.2014 172.715 30.3554C172.588 30.5059 172.525 30.7008 172.525 30.9403C172.525 31.2823 172.65 31.5406 172.9 31.7151C173.149 31.8895 173.467 31.9767 173.854 31.9767ZM181.258 22.6744V33.1825H179.4V22.6744H181.258ZM185.025 22.6744V33.1825H183.168V22.6744H185.025ZM188.09 36.1379C187.837 36.1379 187.602 36.1174 187.387 36.0763C187.175 36.0387 187.005 35.9942 186.879 35.9429L187.31 34.496C187.58 34.5747 187.821 34.6123 188.033 34.6089C188.245 34.6055 188.432 34.5388 188.592 34.4088C188.757 34.2822 188.895 34.0701 189.008 33.7726L189.167 33.3467L186.309 25.3014H188.279L190.096 31.2533H190.178L191.999 25.3014H193.975L190.819 34.1368C190.672 34.5542 190.477 34.9116 190.234 35.2092C189.991 35.5102 189.694 35.7394 189.342 35.8968C188.993 36.0575 188.575 36.1379 188.09 36.1379Z" fill="#0F1319"/>
<mask id="path-5-inside-1_27_122" fill="white">
<path d="M32.365 49.4297H391.848V92.3917H32.365V49.4297Z"/>
</mask>
<path d="M32.365 49.4297V50.5856H391.848V49.4297V48.2738H32.365V49.4297Z" fill="#ECEDF1" mask="url(#path-5-inside-1_27_122)"/>
<path d="M41.5859 65.9009V75.9886H40.4037L34.9066 68.0682H34.8081V75.9886H33.5866V65.9009H34.7687L40.2855 73.8411H40.384V65.9009H41.5859ZM47.0448 76.1463C46.3158 76.1463 45.6869 75.9854 45.1582 75.6636C44.6328 75.3385 44.2273 74.8853 43.9416 74.3041C43.6592 73.7196 43.518 73.0398 43.518 72.2648C43.518 71.4899 43.6592 70.8068 43.9416 70.2157C44.2273 69.6214 44.6246 69.1584 45.1336 68.8267C45.6459 68.4918 46.2435 68.3243 46.9265 68.3243C47.3206 68.3243 47.7097 68.39 48.0939 68.5213C48.4781 68.6527 48.8278 68.8661 49.1431 69.1617C49.4583 69.4539 49.7095 69.8414 49.8967 70.3241C50.0839 70.8068 50.1775 71.4012 50.1775 72.1072V72.5998H44.3455V71.5949H48.9953C48.9953 71.168 48.9099 70.7871 48.7392 70.4522C48.5717 70.1172 48.332 69.8529 48.02 69.6591C47.7114 69.4654 47.3469 69.3685 46.9265 69.3685C46.4635 69.3685 46.0629 69.4835 45.7247 69.7133C45.3897 69.9399 45.1319 70.2355 44.9513 70.6C44.7707 70.9645 44.6804 71.3552 44.6804 71.7723V72.4422C44.6804 73.0135 44.7789 73.4979 44.976 73.8952C45.1763 74.2893 45.4538 74.5898 45.8084 74.7966C46.1631 75.0002 46.5752 75.102 47.0448 75.102C47.3501 75.102 47.626 75.0593 47.8723 74.974C48.1218 74.8853 48.3369 74.7539 48.5175 74.5799C48.6981 74.4026 48.8377 74.1826 48.9362 73.9199L50.0593 74.2351C49.9411 74.616 49.7424 74.951 49.4633 75.2399C49.1841 75.5256 48.8393 75.7489 48.4289 75.9098C48.0184 76.0675 47.557 76.1463 47.0448 76.1463ZM53.6599 75.9886L51.3547 68.4228H52.5763L54.2116 74.2154H54.2904L55.9061 68.4228H57.1473L58.7432 74.1957H58.8221L60.4574 68.4228H61.679L59.3737 75.9886H58.231L56.5759 70.1763H56.4577L54.8027 75.9886H53.6599ZM67.6883 75.9886H66.4076L70.1117 65.9009H71.3727L75.0768 75.9886H73.7961L70.7816 67.4968H70.7028L67.6883 75.9886ZM68.1611 72.0481H73.3233V73.1318H68.1611V72.0481ZM77.8697 65.9009V75.9886H76.6481V65.9009H77.8697ZM88.4365 69.0533H87.2149C87.1427 68.7019 87.0162 68.3932 86.8356 68.1273C86.6583 67.8613 86.4416 67.638 86.1854 67.4574C85.9326 67.2735 85.6518 67.1356 85.3432 67.0436C85.0345 66.9517 84.7127 66.9057 84.3777 66.9057C83.7669 66.9057 83.2136 67.06 82.7178 67.3687C82.2252 67.6774 81.8328 68.1322 81.5405 68.7331C81.2516 69.3341 81.1071 70.0713 81.1071 70.9447C81.1071 71.8182 81.2516 72.5554 81.5405 73.1564C81.8328 73.7573 82.2252 74.2121 82.7178 74.5208C83.2136 74.8295 83.7669 74.9838 84.3777 74.9838C84.7127 74.9838 85.0345 74.9378 85.3432 74.8459C85.6518 74.7539 85.9326 74.6177 86.1854 74.4371C86.4416 74.2532 86.6583 74.0282 86.8356 73.7622C87.0162 73.493 87.1427 73.1843 87.2149 72.8362H88.4365C88.3445 73.3518 88.1771 73.8131 87.9341 74.2203C87.6911 74.6275 87.389 74.974 87.0277 75.2596C86.6665 75.5421 86.261 75.7571 85.8111 75.9049C85.3645 76.0527 84.8867 76.1266 84.3777 76.1266C83.5174 76.1266 82.7522 75.9164 82.0824 75.4961C81.4125 75.0758 80.8854 74.4781 80.5012 73.7031C80.117 72.9282 79.9249 72.0087 79.9249 70.9447C79.9249 69.8808 80.117 68.9613 80.5012 68.1864C80.8854 67.4114 81.4125 66.8137 82.0824 66.3934C82.7522 65.9731 83.5174 65.7629 84.3777 65.7629C84.8867 65.7629 85.3645 65.8368 85.8111 65.9846C86.261 66.1324 86.6665 66.3491 87.0277 66.6348C87.389 66.9172 87.6911 67.262 87.9341 67.6692C88.1771 68.0731 88.3445 68.5344 88.4365 69.0533ZM89.8588 66.9845V65.9009H97.4246V66.9845H94.2525V75.9886H93.0309V66.9845H89.8588ZM99.3099 75.9886V65.9009H105.398V66.9845H100.531V70.3931H105.083V71.4767H100.531V74.905H105.477V75.9886H99.3099ZM114.417 76.1463C113.708 76.1463 113.097 75.9788 112.585 75.6438C112.072 75.3089 111.678 74.8475 111.402 74.2597C111.127 73.6719 110.989 73.0004 110.989 72.2451C110.989 71.4767 111.13 70.7986 111.412 70.2108C111.698 69.6197 112.095 69.1584 112.604 68.8267C113.117 68.4918 113.714 68.3243 114.397 68.3243C114.929 68.3243 115.409 68.4228 115.836 68.6198C116.262 68.8169 116.612 69.0927 116.885 69.4473C117.157 69.802 117.326 70.2157 117.392 70.6886H116.23C116.141 70.3438 115.944 70.0384 115.639 69.7724C115.336 69.5032 114.929 69.3685 114.417 69.3685C113.964 69.3685 113.566 69.4867 113.225 69.7232C112.887 69.9563 112.622 70.2864 112.432 70.7132C112.245 71.1369 112.151 71.6343 112.151 72.2057C112.151 72.7902 112.243 73.2992 112.427 73.7327C112.614 74.1661 112.877 74.5027 113.215 74.7425C113.557 74.9822 113.957 75.102 114.417 75.102C114.719 75.102 114.993 75.0495 115.24 74.9444C115.486 74.8393 115.694 74.6883 115.865 74.4912C116.036 74.2942 116.157 74.0578 116.23 73.7819H117.392C117.326 74.2285 117.164 74.6308 116.904 74.9887C116.648 75.3434 116.308 75.6258 115.885 75.836C115.465 76.0428 114.975 76.1463 114.417 76.1463ZM119.091 75.9886V68.4228H120.254V75.9886H119.091ZM119.683 67.1618C119.456 67.1618 119.261 67.0847 119.096 66.9303C118.935 66.776 118.855 66.5904 118.855 66.3737C118.855 66.157 118.935 65.9715 119.096 65.8171C119.261 65.6628 119.456 65.5856 119.683 65.5856C119.909 65.5856 120.103 65.6628 120.264 65.8171C120.428 65.9715 120.51 66.157 120.51 66.3737C120.51 66.5904 120.428 66.776 120.264 66.9303C120.103 67.0847 119.909 67.1618 119.683 67.1618ZM122.383 75.9886V68.4228H123.506V69.5656H123.585C123.723 69.1912 123.972 68.8875 124.334 68.6543C124.695 68.4212 125.102 68.3046 125.555 68.3046C125.641 68.3046 125.747 68.3062 125.875 68.3095C126.003 68.3128 126.1 68.3177 126.166 68.3243V69.5065C126.127 69.4966 126.036 69.4818 125.895 69.4621C125.757 69.4391 125.611 69.4276 125.457 69.4276C125.089 69.4276 124.761 69.5048 124.472 69.6591C124.186 69.8102 123.959 70.0204 123.792 70.2896C123.628 70.5556 123.546 70.8594 123.546 71.2009V75.9886H122.383ZM130.387 76.1463C129.678 76.1463 129.067 75.9788 128.555 75.6438C128.043 75.3089 127.649 74.8475 127.373 74.2597C127.097 73.6719 126.959 73.0004 126.959 72.2451C126.959 71.4767 127.1 70.7986 127.383 70.2108C127.668 69.6197 128.066 69.1584 128.575 68.8267C129.087 68.4918 129.685 68.3243 130.368 68.3243C130.9 68.3243 131.379 68.4228 131.806 68.6198C132.233 68.8169 132.582 69.0927 132.855 69.4473C133.128 69.802 133.297 70.2157 133.362 70.6886H132.2C132.111 70.3438 131.914 70.0384 131.609 69.7724C131.307 69.5032 130.9 69.3685 130.387 69.3685C129.934 69.3685 129.537 69.4867 129.195 69.7232C128.857 69.9563 128.593 70.2864 128.402 70.7132C128.215 71.1369 128.121 71.6343 128.121 72.2057C128.121 72.7902 128.213 73.2992 128.397 73.7327C128.584 74.1661 128.847 74.5027 129.185 74.7425C129.527 74.9822 129.928 75.102 130.387 75.102C130.689 75.102 130.964 75.0495 131.21 74.9444C131.456 74.8393 131.665 74.6883 131.835 74.4912C132.006 74.2942 132.128 74.0578 132.2 73.7819H133.362C133.297 74.2285 133.134 74.6308 132.875 74.9887C132.619 75.3434 132.279 75.6258 131.855 75.836C131.435 76.0428 130.946 76.1463 130.387 76.1463ZM139.83 72.8953V68.4228H140.992V75.9886H139.83V74.708H139.751C139.574 75.0922 139.298 75.4189 138.923 75.6882C138.549 75.9542 138.076 76.0872 137.505 76.0872C137.032 76.0872 136.612 75.9837 136.244 75.7768C135.876 75.5667 135.587 75.2514 135.377 74.8311C135.167 74.4075 135.062 73.8739 135.062 73.2303V68.4228H136.224V73.1515C136.224 73.7031 136.379 74.1432 136.687 74.4715C136.999 74.7999 137.397 74.9641 137.879 74.9641C138.168 74.9641 138.462 74.8902 138.761 74.7425C139.063 74.5947 139.316 74.3681 139.519 74.0627C139.726 73.7573 139.83 73.3682 139.83 72.8953ZM144.284 65.9009V75.9886H143.121V65.9009H144.284ZM148.639 76.166C148.16 76.166 147.725 76.0757 147.334 75.8951C146.943 75.7112 146.633 75.4468 146.403 75.102C146.173 74.7539 146.058 74.3336 146.058 73.8411C146.058 73.4076 146.144 73.0562 146.314 72.787C146.485 72.5144 146.713 72.301 146.999 72.1466C147.285 71.9923 147.6 71.8773 147.945 71.8018C148.293 71.723 148.643 71.6606 148.994 71.6146C149.454 71.5555 149.826 71.5112 150.112 71.4816C150.401 71.4488 150.611 71.3946 150.743 71.3191C150.877 71.2436 150.945 71.1122 150.945 70.925V70.8856C150.945 70.3996 150.812 70.022 150.546 69.7527C150.283 69.4835 149.884 69.3488 149.349 69.3488C148.794 69.3488 148.359 69.4703 148.043 69.7133C147.728 69.9563 147.506 70.2157 147.378 70.4916L146.275 70.0975C146.472 69.6378 146.735 69.2799 147.063 69.0237C147.395 68.7643 147.756 68.5837 148.147 68.4819C148.541 68.3768 148.928 68.3243 149.309 68.3243C149.552 68.3243 149.831 68.3538 150.147 68.4129C150.465 68.4688 150.772 68.5853 151.068 68.7627C151.367 68.94 151.614 69.2076 151.812 69.5656C152.009 69.9235 152.107 70.4029 152.107 71.0039V75.9886H150.945V74.9641H150.885C150.807 75.1283 150.675 75.304 150.491 75.4912C150.308 75.6783 150.063 75.8376 149.758 75.9689C149.452 76.1003 149.079 76.166 148.639 76.166ZM148.817 75.1217C149.276 75.1217 149.664 75.0314 149.979 74.8508C150.298 74.6702 150.537 74.4371 150.698 74.1514C150.863 73.8657 150.945 73.5652 150.945 73.25V72.186C150.895 72.2451 150.787 72.2993 150.62 72.3486C150.455 72.3945 150.265 72.4356 150.048 72.4717C149.835 72.5045 149.626 72.5341 149.423 72.5604C149.222 72.5834 149.06 72.6031 148.935 72.6195C148.633 72.6589 148.35 72.7229 148.088 72.8116C147.828 72.897 147.618 73.0267 147.457 73.2007C147.3 73.3715 147.221 73.6046 147.221 73.9002C147.221 74.3041 147.37 74.6095 147.669 74.8163C147.971 75.0199 148.354 75.1217 148.817 75.1217ZM154.229 75.9886V68.4228H155.352V69.5656H155.431C155.569 69.1912 155.818 68.8875 156.179 68.6543C156.541 68.4212 156.948 68.3046 157.401 68.3046C157.486 68.3046 157.593 68.3062 157.721 68.3095C157.849 68.3128 157.946 68.3177 158.012 68.3243V69.5065C157.972 69.4966 157.882 69.4818 157.741 69.4621C157.603 69.4391 157.457 69.4276 157.302 69.4276C156.935 69.4276 156.606 69.5048 156.317 69.6591C156.032 69.8102 155.805 70.0204 155.638 70.2896C155.473 70.5556 155.391 70.8594 155.391 71.2009V75.9886H154.229Z" fill="#565C68"/>
<rect x="319.042" y="57.521" width="72.8061" height="27.9354" rx="13.9677" fill="#E2FDDC"/>
<path d="M330.357 75.9888V66.7416H332.032V70.6563H336.317V66.7416H337.997V75.9888H336.317V72.0605H332.032V75.9888H330.357ZM341.742 76.1287C341.303 76.1287 340.907 76.0505 340.555 75.894C340.205 75.7344 339.929 75.4996 339.724 75.1896C339.522 74.8795 339.421 74.4972 339.421 74.0427C339.421 73.6514 339.494 73.3278 339.638 73.0719C339.783 72.8161 339.98 72.6114 340.23 72.4579C340.479 72.3044 340.761 72.1885 341.074 72.1102C341.39 72.0289 341.717 71.9702 342.054 71.9341C342.46 71.892 342.79 71.8543 343.042 71.8212C343.295 71.7851 343.479 71.7309 343.593 71.6587C343.711 71.5834 343.769 71.4675 343.769 71.311V71.2839C343.769 70.9438 343.669 70.6804 343.467 70.4938C343.265 70.3071 342.975 70.2138 342.595 70.2138C342.195 70.2138 341.878 70.3011 341.643 70.4757C341.411 70.6503 341.254 70.8565 341.173 71.0943L339.647 70.8776C339.767 70.4561 339.966 70.1039 340.243 69.821C340.52 69.535 340.859 69.3213 341.259 69.1798C341.659 69.0353 342.102 68.9631 342.586 68.9631C342.921 68.9631 343.253 69.0022 343.584 69.0805C343.915 69.1588 344.218 69.2882 344.492 69.4688C344.766 69.6464 344.986 69.8887 345.151 70.1958C345.32 70.5028 345.404 70.8866 345.404 71.3471V75.9888H343.833V75.0361H343.778C343.679 75.2287 343.539 75.4093 343.359 75.5779C343.181 75.7434 342.957 75.8774 342.686 75.9797C342.418 76.0791 342.103 76.1287 341.742 76.1287ZM342.167 74.9277C342.495 74.9277 342.779 74.863 343.02 74.7335C343.261 74.6011 343.446 74.4265 343.575 74.2098C343.708 73.993 343.774 73.7568 343.774 73.5009V72.6836C343.723 72.7258 343.635 72.7649 343.512 72.801C343.392 72.8372 343.256 72.8688 343.106 72.8959C342.955 72.9229 342.806 72.947 342.659 72.9681C342.511 72.9892 342.383 73.0072 342.275 73.0223C342.031 73.0554 341.813 73.1096 341.62 73.1848C341.428 73.2601 341.276 73.3654 341.164 73.5009C341.053 73.6333 340.997 73.8049 340.997 74.0156C340.997 74.3166 341.107 74.5439 341.327 74.6974C341.546 74.8509 341.826 74.9277 342.167 74.9277ZM348.682 71.9251V75.9888H347.047V69.0534H348.61V70.2319H348.691C348.851 69.8436 349.105 69.535 349.454 69.3063C349.806 69.0775 350.241 68.9631 350.759 68.9631C351.238 68.9631 351.655 69.0655 352.01 69.2701C352.368 69.4748 352.645 69.7713 352.84 70.1596C353.039 70.5479 353.137 71.019 353.134 71.5729V75.9888H351.499V71.8257C351.499 71.3622 351.379 70.9995 351.138 70.7376C350.9 70.4757 350.571 70.3448 350.149 70.3448C349.863 70.3448 349.609 70.408 349.386 70.5344C349.167 70.6578 348.994 70.8369 348.867 71.0717C348.744 71.3065 348.682 71.591 348.682 71.9251ZM357.369 76.1107C356.824 76.1107 356.337 75.9707 355.906 75.6908C355.476 75.4108 355.136 75.0045 354.886 74.4717C354.636 73.9389 354.511 73.2917 354.511 72.5301C354.511 71.7595 354.638 71.1093 354.89 70.5796C355.146 70.0468 355.491 69.6449 355.924 69.374C356.358 69.1001 356.841 68.9631 357.374 68.9631C357.78 68.9631 358.114 69.0323 358.376 69.1708C358.638 69.3063 358.846 69.4703 358.999 69.663C359.153 69.8526 359.272 70.0317 359.356 70.2003H359.424V66.7416H361.063V75.9888H359.455V74.8961H359.356C359.272 75.0647 359.15 75.2438 358.99 75.4334C358.831 75.62 358.62 75.7796 358.358 75.912C358.096 76.0445 357.767 76.1107 357.369 76.1107ZM357.825 74.7697C358.171 74.7697 358.466 74.6763 358.71 74.4897C358.954 74.3001 359.139 74.0367 359.266 73.6996C359.392 73.3624 359.455 72.9696 359.455 72.5211C359.455 72.0726 359.392 71.6828 359.266 71.3517C359.142 71.0205 358.959 70.7632 358.715 70.5796C358.474 70.3959 358.177 70.3041 357.825 70.3041C357.461 70.3041 357.157 70.3989 356.913 70.5886C356.669 70.7782 356.486 71.0401 356.362 71.3742C356.239 71.7084 356.177 72.0906 356.177 72.5211C356.177 72.9545 356.239 73.3414 356.362 73.6815C356.489 74.0186 356.674 74.285 356.918 74.4807C357.165 74.6733 357.467 74.7697 357.825 74.7697ZM364.439 66.7416V75.9888H362.804V66.7416H364.439ZM369.19 76.1242C368.495 76.1242 367.894 75.9797 367.388 75.6908C366.886 75.3988 366.499 74.9864 366.228 74.4536C365.957 73.9178 365.822 73.2872 365.822 72.5617C365.822 71.8483 365.957 71.2222 366.228 70.6834C366.502 70.1416 366.884 69.7202 367.375 69.4191C367.866 69.1151 368.442 68.9631 369.104 68.9631C369.532 68.9631 369.935 69.0323 370.314 69.1708C370.697 69.3063 371.034 69.517 371.326 69.8029C371.621 70.0889 371.853 70.4531 372.021 70.8956C372.19 71.3351 372.274 71.8589 372.274 72.4669V72.9681H366.589V71.8664H370.707C370.704 71.5533 370.636 71.2749 370.504 71.0311C370.372 70.7842 370.186 70.5901 369.949 70.4486C369.714 70.3071 369.44 70.2364 369.127 70.2364C368.793 70.2364 368.499 70.3177 368.246 70.4802C367.994 70.6398 367.796 70.8505 367.655 71.1123C367.516 71.3712 367.446 71.6557 367.443 71.9657V72.9275C367.443 73.3308 367.516 73.677 367.664 73.966C367.811 74.2519 368.018 74.4717 368.283 74.6252C368.547 74.7757 368.857 74.8509 369.213 74.8509C369.45 74.8509 369.666 74.8178 369.858 74.7516C370.051 74.6824 370.218 74.5815 370.36 74.4491C370.501 74.3166 370.608 74.1526 370.68 73.9569L372.206 74.1285C372.11 74.5319 371.926 74.884 371.655 75.1851C371.387 75.4831 371.044 75.7148 370.626 75.8804C370.207 76.043 369.729 76.1242 369.19 76.1242ZM376.23 76.1107C375.686 76.1107 375.198 75.9707 374.767 75.6908C374.337 75.4108 373.997 75.0045 373.747 74.4717C373.497 73.9389 373.372 73.2917 373.372 72.5301C373.372 71.7595 373.499 71.1093 373.752 70.5796C374.007 70.0468 374.352 69.6449 374.786 69.374C375.219 69.1001 375.702 68.9631 376.235 68.9631C376.641 68.9631 376.975 69.0323 377.237 69.1708C377.499 69.3063 377.707 69.4703 377.86 69.663C378.014 69.8526 378.133 70.0317 378.217 70.2003H378.285V66.7416H379.924V75.9888H378.316V74.8961H378.217C378.133 75.0647 378.011 75.2438 377.851 75.4334C377.692 75.62 377.481 75.7796 377.219 75.912C376.957 76.0445 376.628 76.1107 376.23 76.1107ZM376.686 74.7697C377.033 74.7697 377.328 74.6763 377.571 74.4897C377.815 74.3001 378 74.0367 378.127 73.6996C378.253 73.3624 378.316 72.9696 378.316 72.5211C378.316 72.0726 378.253 71.6828 378.127 71.3517C378.003 71.0205 377.82 70.7632 377.576 70.5796C377.335 70.3959 377.039 70.3041 376.686 70.3041C376.322 70.3041 376.018 70.3989 375.774 70.5886C375.531 70.7782 375.347 71.0401 375.224 71.3742C375.1 71.7084 375.038 72.0906 375.038 72.5211C375.038 72.9545 375.1 73.3414 375.224 73.6815C375.35 74.0186 375.535 74.285 375.779 74.4807C376.026 74.6733 376.328 74.7697 376.686 74.7697Z" fill="#10B528"/>
<mask id="path-10-inside-2_27_122" fill="white">
<path d="M32.365 92.3916H391.848V135.354H32.365V92.3916Z"/>
</mask>
<path d="M32.365 92.3916V93.5475H391.848V92.3916V91.2357H32.365V92.3916Z" fill="#ECEDF1" mask="url(#path-10-inside-2_27_122)"/>
<path d="M41.5859 108.863V118.951H40.4037L34.9066 111.03H34.8081V118.951H33.5866V108.863H34.7687L40.2855 116.803H40.384V108.863H41.5859ZM44.444 118.951H43.1633L46.8674 108.863H48.1284L51.8325 118.951H50.5518L47.5373 110.459H47.4585L44.444 118.951ZM44.9169 115.01H50.079V116.094H44.9169V115.01ZM53.8176 118.951H52.5369L56.241 108.863H57.502L61.2061 118.951H59.9254L56.9109 110.459H56.8321L53.8176 118.951ZM54.2904 115.01H59.4525V116.094H54.2904V115.01ZM70.4208 112.015H69.1992C69.127 111.664 69.0006 111.355 68.82 111.089C68.6426 110.823 68.4259 110.6 68.1698 110.419C67.9169 110.235 67.6362 110.097 67.3275 110.006C67.0188 109.914 66.697 109.868 66.362 109.868C65.7513 109.868 65.1979 110.022 64.7021 110.331C64.2095 110.639 63.8171 111.094 63.5248 111.695C63.2359 112.296 63.0914 113.033 63.0914 113.907C63.0914 114.78 63.2359 115.517 63.5248 116.118C63.8171 116.719 64.2095 117.174 64.7021 117.483C65.1979 117.791 65.7513 117.946 66.362 117.946C66.697 117.946 67.0188 117.9 67.3275 117.808C67.6362 117.716 67.9169 117.58 68.1698 117.399C68.4259 117.215 68.6426 116.99 68.82 116.724C69.0006 116.455 69.127 116.146 69.1992 115.798H70.4208C70.3289 116.314 70.1614 116.775 69.9184 117.182C69.6754 117.589 69.3733 117.936 69.0121 118.222C68.6508 118.504 68.2453 118.719 67.7954 118.867C67.3488 119.015 66.871 119.088 66.362 119.088C65.5017 119.088 64.7366 118.878 64.0667 118.458C63.3968 118.038 62.8697 117.44 62.4855 116.665C62.1013 115.89 61.9092 114.971 61.9092 113.907C61.9092 112.843 62.1013 111.923 62.4855 111.148C62.8697 110.373 63.3968 109.776 64.0667 109.355C64.7366 108.935 65.5017 108.725 66.362 108.725C66.871 108.725 67.3488 108.799 67.7954 108.947C68.2453 109.094 68.6508 109.311 69.0121 109.597C69.3733 109.879 69.6754 110.224 69.9184 110.631C70.1614 111.035 70.3289 111.496 70.4208 112.015ZM81.8127 111.385C81.7536 110.886 81.5138 110.498 81.0935 110.222C80.6732 109.946 80.1576 109.808 79.5469 109.808C79.1003 109.808 78.7095 109.881 78.3745 110.025C78.0429 110.17 77.7835 110.368 77.5963 110.621C77.4124 110.874 77.3205 111.161 77.3205 111.483C77.3205 111.752 77.3845 111.984 77.5126 112.178C77.6439 112.368 77.8114 112.527 78.015 112.656C78.2186 112.78 78.432 112.884 78.6553 112.966C78.8786 113.045 79.0838 113.109 79.271 113.158L80.2956 113.434C80.5583 113.503 80.8505 113.598 81.1723 113.719C81.4974 113.841 81.8077 114.007 82.1033 114.217C82.4021 114.424 82.6484 114.69 82.8421 115.015C83.0359 115.34 83.1328 115.739 83.1328 116.212C83.1328 116.757 82.9899 117.25 82.7042 117.69C82.4218 118.13 82.0081 118.479 81.4629 118.739C80.9211 118.998 80.2627 119.128 79.4878 119.128C78.7653 119.128 78.1398 119.011 77.6111 118.778C77.0857 118.545 76.6719 118.22 76.3698 117.803C76.071 117.386 75.9019 116.901 75.8624 116.35H77.1234C77.1563 116.731 77.2843 117.046 77.5076 117.296C77.7342 117.542 78.0199 117.726 78.3647 117.847C78.7128 117.965 79.0871 118.025 79.4878 118.025C79.954 118.025 80.3727 117.949 80.7438 117.798C81.1149 117.644 81.4088 117.43 81.6255 117.158C81.8422 116.882 81.9506 116.56 81.9506 116.192C81.9506 115.857 81.857 115.585 81.6698 115.375C81.4827 115.164 81.2364 114.994 80.931 114.862C80.6256 114.731 80.2956 114.616 79.9409 114.517L78.6996 114.163C77.9115 113.936 77.2876 113.613 76.8279 113.192C76.3682 112.772 76.1383 112.222 76.1383 111.542C76.1383 110.978 76.291 110.485 76.5964 110.065C76.9051 109.641 77.3188 109.313 77.8376 109.079C78.3598 108.843 78.9426 108.725 79.5863 108.725C80.2365 108.725 80.8144 108.841 81.3201 109.075C81.8258 109.304 82.2264 109.62 82.522 110.02C82.8208 110.421 82.9784 110.876 82.9948 111.385H81.8127ZM90.658 111.385C90.5989 110.886 90.3591 110.498 89.9388 110.222C89.5185 109.946 89.0029 109.808 88.3922 109.808C87.9456 109.808 87.5548 109.881 87.2198 110.025C86.8882 110.17 86.6288 110.368 86.4416 110.621C86.2577 110.874 86.1657 111.161 86.1657 111.483C86.1657 111.752 86.2298 111.984 86.3578 112.178C86.4892 112.368 86.6567 112.527 86.8603 112.656C87.0639 112.78 87.2773 112.884 87.5006 112.966C87.7239 113.045 87.9291 113.109 88.1163 113.158L89.1409 113.434C89.4036 113.503 89.6958 113.598 90.0176 113.719C90.3427 113.841 90.653 114.007 90.9486 114.217C91.2474 114.424 91.4937 114.69 91.6874 115.015C91.8812 115.34 91.978 115.739 91.978 116.212C91.978 116.757 91.8352 117.25 91.5495 117.69C91.2671 118.13 90.8533 118.479 90.3082 118.739C89.7664 118.998 89.108 119.128 88.333 119.128C87.6106 119.128 86.985 119.011 86.4564 118.778C85.931 118.545 85.5172 118.22 85.2151 117.803C84.9163 117.386 84.7471 116.901 84.7077 116.35H85.9687C86.0016 116.731 86.1296 117.046 86.3529 117.296C86.5795 117.542 86.8652 117.726 87.21 117.847C87.5581 117.965 87.9324 118.025 88.333 118.025C88.7993 118.025 89.218 117.949 89.5891 117.798C89.9602 117.644 90.2541 117.43 90.4708 117.158C90.6875 116.882 90.7959 116.56 90.7959 116.192C90.7959 115.857 90.7023 115.585 90.5151 115.375C90.3279 115.164 90.0817 114.994 89.7763 114.862C89.4709 114.731 89.1409 114.616 88.7862 114.517L87.5449 114.163C86.7568 113.936 86.1329 113.613 85.6732 113.192C85.2134 112.772 84.9836 112.222 84.9836 111.542C84.9836 110.978 85.1363 110.485 85.4417 110.065C85.7503 109.641 86.1641 109.313 86.6829 109.079C87.2051 108.843 87.7879 108.725 88.4316 108.725C89.0817 108.725 89.6597 108.841 90.1654 109.075C90.6711 109.304 91.0717 109.62 91.3673 110.02C91.6661 110.421 91.8237 110.876 91.8401 111.385H90.658ZM93.9865 118.951V108.863H97.3951C98.1832 108.863 98.8301 108.997 99.3358 109.267C99.8415 109.533 100.216 109.899 100.459 110.365C100.702 110.831 100.823 111.362 100.823 111.956C100.823 112.55 100.702 113.078 100.459 113.537C100.216 113.997 99.8431 114.358 99.3407 114.621C98.8383 114.88 98.1963 115.01 97.4148 115.01H94.6564V113.907H97.3754C97.9139 113.907 98.3474 113.828 98.6757 113.67C99.0074 113.513 99.2471 113.289 99.3949 113C99.5459 112.708 99.6215 112.36 99.6215 111.956C99.6215 111.552 99.5459 111.199 99.3949 110.897C99.2438 110.595 99.0025 110.362 98.6708 110.198C98.3392 110.03 97.9008 109.946 97.3557 109.946H95.2081V118.951H93.9865ZM98.7348 114.419L101.217 118.951H99.7988L97.3557 114.419H98.7348ZM109.972 111.385V112.37H105.893V111.385H109.972ZM107.115 118.951V110.34C107.115 109.907 107.216 109.546 107.42 109.257C107.624 108.968 107.888 108.751 108.213 108.607C108.538 108.462 108.881 108.39 109.243 108.39C109.528 108.39 109.761 108.413 109.942 108.459C110.123 108.505 110.257 108.548 110.346 108.587L110.011 109.592C109.952 109.572 109.87 109.547 109.765 109.518C109.663 109.488 109.528 109.474 109.361 109.474C108.977 109.474 108.699 109.57 108.528 109.764C108.361 109.958 108.277 110.242 108.277 110.616V118.951H107.115ZM111.601 118.951V111.385H112.724V112.527H112.803C112.941 112.153 113.19 111.849 113.551 111.616C113.913 111.383 114.32 111.266 114.773 111.266C114.858 111.266 114.965 111.268 115.093 111.271C115.221 111.275 115.318 111.28 115.384 111.286V112.468C115.344 112.459 115.254 112.444 115.113 112.424C114.975 112.401 114.829 112.39 114.674 112.39C114.307 112.39 113.978 112.467 113.689 112.621C113.404 112.772 113.177 112.982 113.009 113.252C112.845 113.518 112.763 113.821 112.763 114.163V118.951H111.601ZM119.703 119.108C118.974 119.108 118.346 118.947 117.817 118.625C117.292 118.3 116.886 117.847 116.6 117.266C116.318 116.681 116.177 116.002 116.177 115.227C116.177 114.452 116.318 113.769 116.6 113.178C116.886 112.583 117.283 112.12 117.792 111.789C118.305 111.454 118.902 111.286 119.585 111.286C119.979 111.286 120.368 111.352 120.753 111.483C121.137 111.615 121.487 111.828 121.802 112.124C122.117 112.416 122.368 112.803 122.555 113.286C122.743 113.769 122.836 114.363 122.836 115.069V115.562H117.004V114.557H121.654C121.654 114.13 121.569 113.749 121.398 113.414C121.23 113.079 120.991 112.815 120.679 112.621C120.37 112.427 120.006 112.33 119.585 112.33C119.122 112.33 118.722 112.445 118.383 112.675C118.048 112.902 117.791 113.197 117.61 113.562C117.429 113.926 117.339 114.317 117.339 114.734V115.404C117.339 115.975 117.438 116.46 117.635 116.857C117.835 117.251 118.112 117.552 118.467 117.759C118.822 117.962 119.234 118.064 119.703 118.064C120.009 118.064 120.285 118.021 120.531 117.936C120.781 117.847 120.996 117.716 121.176 117.542C121.357 117.364 121.496 117.144 121.595 116.882L122.718 117.197C122.6 117.578 122.401 117.913 122.122 118.202C121.843 118.488 121.498 118.711 121.088 118.872C120.677 119.029 120.216 119.108 119.703 119.108ZM127.777 119.108C127.048 119.108 126.419 118.947 125.89 118.625C125.365 118.3 124.959 117.847 124.673 117.266C124.391 116.681 124.25 116.002 124.25 115.227C124.25 114.452 124.391 113.769 124.673 113.178C124.959 112.583 125.357 112.12 125.866 111.789C126.378 111.454 126.975 111.286 127.658 111.286C128.053 111.286 128.442 111.352 128.826 111.483C129.21 111.615 129.56 111.828 129.875 112.124C130.19 112.416 130.441 112.803 130.629 113.286C130.816 113.769 130.909 114.363 130.909 115.069V115.562H125.077V114.557H129.727C129.727 114.13 129.642 113.749 129.471 113.414C129.304 113.079 129.064 112.815 128.752 112.621C128.443 112.427 128.079 112.33 127.658 112.33C127.195 112.33 126.795 112.445 126.457 112.675C126.122 112.902 125.864 113.197 125.683 113.562C125.503 113.926 125.412 114.317 125.412 114.734V115.404C125.412 115.975 125.511 116.46 125.708 116.857C125.908 117.251 126.186 117.552 126.54 117.759C126.895 117.962 127.307 118.064 127.777 118.064C128.082 118.064 128.358 118.021 128.604 117.936C128.854 117.847 129.069 117.716 129.249 117.542C129.43 117.364 129.57 117.144 129.668 116.882L130.791 117.197C130.673 117.578 130.474 117.913 130.195 118.202C129.916 118.488 129.571 118.711 129.161 118.872C128.75 119.029 128.289 119.108 127.777 119.108ZM132.461 118.951V118.064L136.756 112.547V112.468H132.599V111.385H138.254V112.311L134.077 117.788V117.867H138.392V118.951H132.461ZM143.137 119.108C142.408 119.108 141.78 118.947 141.251 118.625C140.725 118.3 140.32 117.847 140.034 117.266C139.752 116.681 139.611 116.002 139.611 115.227C139.611 114.452 139.752 113.769 140.034 113.178C140.32 112.583 140.717 112.12 141.226 111.789C141.739 111.454 142.336 111.286 143.019 111.286C143.413 111.286 143.802 111.352 144.187 111.483C144.571 111.615 144.92 111.828 145.236 112.124C145.551 112.416 145.802 112.803 145.989 113.286C146.177 113.769 146.27 114.363 146.27 115.069V115.562H140.438V114.557H145.088C145.088 114.13 145.003 113.749 144.832 113.414C144.664 113.079 144.425 112.815 144.113 112.621C143.804 112.427 143.44 112.33 143.019 112.33C142.556 112.33 142.156 112.445 141.817 112.675C141.482 112.902 141.225 113.197 141.044 113.562C140.863 113.926 140.773 114.317 140.773 114.734V115.404C140.773 115.975 140.872 116.46 141.069 116.857C141.269 117.251 141.546 117.552 141.901 117.759C142.256 117.962 142.668 118.064 143.137 118.064C143.443 118.064 143.719 118.021 143.965 117.936C144.214 117.847 144.43 117.716 144.61 117.542C144.791 117.364 144.93 117.144 145.029 116.882L146.152 117.197C146.034 117.578 145.835 117.913 145.556 118.202C145.277 118.488 144.932 118.711 144.522 118.872C144.111 119.029 143.65 119.108 143.137 119.108ZM152.787 115.424C152.544 115.424 152.335 115.337 152.161 115.163C151.987 114.989 151.9 114.78 151.9 114.537C151.9 114.294 151.987 114.086 152.161 113.912C152.335 113.738 152.544 113.651 152.787 113.651C153.03 113.651 153.238 113.738 153.412 113.912C153.586 114.086 153.673 114.294 153.673 114.537C153.673 114.698 153.632 114.846 153.55 114.98C153.471 115.115 153.365 115.223 153.23 115.306C153.099 115.384 152.951 115.424 152.787 115.424ZM163.187 108.863V118.951H161.966V110.143H161.907L159.444 111.779V110.537L161.966 108.863H163.187ZM166.089 118.951V118.064L169.418 114.419C169.809 113.992 170.131 113.621 170.384 113.306C170.637 112.987 170.824 112.688 170.945 112.409C171.07 112.127 171.133 111.831 171.133 111.523C171.133 111.168 171.047 110.861 170.876 110.602C170.709 110.342 170.479 110.142 170.187 110.001C169.895 109.859 169.566 109.789 169.202 109.789C168.814 109.789 168.476 109.869 168.187 110.03C167.901 110.188 167.68 110.409 167.522 110.695C167.368 110.981 167.29 111.316 167.29 111.7H166.128C166.128 111.109 166.264 110.59 166.537 110.143C166.809 109.697 167.18 109.349 167.65 109.099C168.123 108.85 168.653 108.725 169.241 108.725C169.832 108.725 170.356 108.85 170.812 109.099C171.269 109.349 171.627 109.685 171.886 110.109C172.146 110.533 172.275 111.004 172.275 111.523C172.275 111.894 172.208 112.257 172.073 112.611C171.942 112.963 171.712 113.355 171.384 113.788C171.059 114.219 170.607 114.744 170.029 115.365L167.763 117.788V117.867H172.453V118.951H166.089ZM177.363 119.108C176.733 119.108 176.176 118.949 175.694 118.63C175.211 118.309 174.833 117.855 174.561 117.271C174.288 116.683 174.152 115.989 174.152 115.187C174.152 114.393 174.288 113.703 174.561 113.119C174.833 112.534 175.213 112.083 175.699 111.764C176.185 111.445 176.746 111.286 177.383 111.286C177.876 111.286 178.265 111.368 178.551 111.532C178.84 111.693 179.06 111.877 179.211 112.084C179.365 112.288 179.485 112.455 179.57 112.587H179.669V108.863H180.831V118.951H179.708V117.788H179.57C179.485 117.926 179.363 118.1 179.206 118.31C179.048 118.517 178.823 118.703 178.531 118.867C178.239 119.028 177.85 119.108 177.363 119.108ZM177.521 118.064C177.987 118.064 178.381 117.942 178.703 117.699C179.025 117.453 179.27 117.113 179.437 116.68C179.605 116.243 179.688 115.739 179.688 115.168C179.688 114.603 179.606 114.109 179.442 113.685C179.278 113.258 179.035 112.926 178.713 112.69C178.391 112.45 177.994 112.33 177.521 112.33C177.029 112.33 176.618 112.457 176.29 112.71C175.965 112.959 175.72 113.299 175.556 113.729C175.395 114.156 175.314 114.636 175.314 115.168C175.314 115.706 175.397 116.195 175.561 116.635C175.728 117.072 175.974 117.42 176.3 117.68C176.628 117.936 177.035 118.064 177.521 118.064Z" fill="#565C68"/>
<rect x="296.042" y="100.483" width="95.8061" height="27.9354" rx="13.9677" fill="#E2FDDC"/>
<path d="M308.544 118.951H306.756L310.012 109.704H312.079L315.339 118.951H313.551L311.082 111.6H311.009L308.544 118.951ZM308.603 115.325H313.479V116.671H308.603V115.325ZM320.906 116.034V112.015H322.54V118.951H320.955V117.718H320.883C320.726 118.106 320.469 118.424 320.111 118.671C319.756 118.918 319.318 119.041 318.797 119.041C318.342 119.041 317.941 118.94 317.591 118.738C317.245 118.534 316.974 118.237 316.779 117.849C316.583 117.458 316.485 116.985 316.485 116.431V112.015H318.12V116.178C318.12 116.618 318.24 116.967 318.481 117.226C318.722 117.485 319.038 117.614 319.429 117.614C319.67 117.614 319.903 117.555 320.129 117.438C320.355 117.321 320.54 117.146 320.684 116.914C320.832 116.68 320.906 116.386 320.906 116.034ZM326.795 119.073C326.25 119.073 325.762 118.933 325.332 118.653C324.901 118.373 324.561 117.966 324.311 117.434C324.061 116.901 323.936 116.254 323.936 115.492C323.936 114.721 324.063 114.071 324.316 113.541C324.572 113.009 324.916 112.607 325.35 112.336C325.783 112.062 326.266 111.925 326.799 111.925C327.205 111.925 327.54 111.994 327.801 112.133C328.063 112.268 328.271 112.432 328.425 112.625C328.578 112.815 328.697 112.994 328.781 113.162H328.849V109.704H330.488V118.951H328.881V117.858H328.781C328.697 118.027 328.575 118.206 328.416 118.395C328.256 118.582 328.045 118.741 327.783 118.874C327.522 119.006 327.192 119.073 326.795 119.073ZM327.251 117.732C327.597 117.732 327.892 117.638 328.136 117.452C328.379 117.262 328.565 116.999 328.691 116.661C328.817 116.324 328.881 115.932 328.881 115.483C328.881 115.034 328.817 114.645 328.691 114.314C328.568 113.982 328.384 113.725 328.14 113.541C327.899 113.358 327.603 113.266 327.251 113.266C326.886 113.266 326.582 113.361 326.339 113.55C326.095 113.74 325.911 114.002 325.788 114.336C325.664 114.67 325.603 115.053 325.603 115.483C325.603 115.916 325.664 116.303 325.788 116.643C325.914 116.981 326.099 117.247 326.343 117.443C326.59 117.635 326.892 117.732 327.251 117.732ZM332.23 118.951V112.015H333.864V118.951H332.23ZM333.052 111.031C332.793 111.031 332.57 110.945 332.383 110.774C332.197 110.599 332.103 110.39 332.103 110.146C332.103 109.899 332.197 109.69 332.383 109.518C332.57 109.344 332.793 109.257 333.052 109.257C333.313 109.257 333.536 109.344 333.72 109.518C333.906 109.69 334 109.899 334 110.146C334 110.39 333.906 110.599 333.72 110.774C333.536 110.945 333.313 111.031 333.052 111.031ZM339.008 112.015V113.28H335.021V112.015H339.008ZM336.006 110.354H337.64V116.865C337.64 117.084 337.673 117.253 337.739 117.37C337.809 117.485 337.899 117.563 338.01 117.605C338.122 117.647 338.245 117.668 338.381 117.668C338.483 117.668 338.576 117.661 338.661 117.646C338.748 117.631 338.814 117.617 338.859 117.605L339.135 118.883C339.047 118.913 338.922 118.946 338.76 118.982C338.6 119.018 338.405 119.039 338.173 119.046C337.764 119.058 337.395 118.996 337.067 118.86C336.739 118.722 336.478 118.508 336.286 118.219C336.096 117.93 336.003 117.569 336.006 117.136V110.354ZM343.601 118.951V109.704H347.069C347.779 109.704 348.375 109.827 348.857 110.074C349.342 110.321 349.707 110.667 349.954 111.112C350.204 111.555 350.329 112.071 350.329 112.661C350.329 113.254 350.203 113.769 349.95 114.205C349.7 114.639 349.331 114.974 348.843 115.212C348.356 115.447 347.757 115.564 347.046 115.564H344.577V114.174H346.821C347.236 114.174 347.576 114.116 347.841 114.002C348.106 113.885 348.302 113.715 348.428 113.492C348.557 113.266 348.622 112.989 348.622 112.661C348.622 112.333 348.557 112.053 348.428 111.821C348.299 111.586 348.101 111.409 347.837 111.288C347.572 111.165 347.23 111.103 346.812 111.103H345.276V118.951H343.601ZM348.378 114.761L350.668 118.951H348.798L346.55 114.761H348.378ZM354.77 119.086C354.074 119.086 353.474 118.942 352.968 118.653C352.465 118.361 352.079 117.948 351.808 117.416C351.537 116.88 351.401 116.249 351.401 115.524C351.401 114.81 351.537 114.184 351.808 113.645C352.082 113.103 352.464 112.682 352.955 112.381C353.445 112.077 354.022 111.925 354.684 111.925C355.111 111.925 355.515 111.994 355.894 112.133C356.276 112.268 356.613 112.479 356.905 112.765C357.2 113.051 357.432 113.415 357.601 113.858C357.769 114.297 357.854 114.821 357.854 115.429V115.93H352.169V114.828H356.287C356.284 114.515 356.216 114.237 356.084 113.993C355.951 113.746 355.766 113.552 355.528 113.411C355.293 113.269 355.02 113.198 354.706 113.198C354.372 113.198 354.079 113.28 353.826 113.442C353.573 113.602 353.376 113.812 353.234 114.074C353.096 114.333 353.025 114.618 353.022 114.928V115.889C353.022 116.293 353.096 116.639 353.244 116.928C353.391 117.214 353.597 117.434 353.862 117.587C354.127 117.738 354.437 117.813 354.792 117.813C355.03 117.813 355.245 117.78 355.438 117.714C355.631 117.644 355.798 117.543 355.939 117.411C356.081 117.279 356.187 117.114 356.26 116.919L357.786 117.09C357.689 117.494 357.506 117.846 357.235 118.147C356.967 118.445 356.624 118.677 356.205 118.842C355.787 119.005 355.308 119.086 354.77 119.086ZM361.232 119.091C360.793 119.091 360.397 119.012 360.045 118.856C359.695 118.696 359.418 118.462 359.214 118.151C359.012 117.841 358.911 117.459 358.911 117.005C358.911 116.613 358.983 116.29 359.128 116.034C359.272 115.778 359.47 115.573 359.719 115.42C359.969 115.266 360.251 115.15 360.564 115.072C360.88 114.991 361.206 114.932 361.544 114.896C361.95 114.854 362.28 114.816 362.532 114.783C362.785 114.747 362.969 114.693 363.083 114.621C363.201 114.545 363.259 114.429 363.259 114.273V114.246C363.259 113.906 363.159 113.642 362.957 113.456C362.755 113.269 362.465 113.176 362.085 113.176C361.685 113.176 361.368 113.263 361.133 113.438C360.901 113.612 360.744 113.818 360.663 114.056L359.137 113.839C359.257 113.418 359.456 113.066 359.733 112.783C360.01 112.497 360.349 112.283 360.749 112.142C361.149 111.997 361.592 111.925 362.076 111.925C362.411 111.925 362.743 111.964 363.074 112.042C363.405 112.121 363.708 112.25 363.982 112.431C364.256 112.608 364.475 112.851 364.641 113.158C364.81 113.465 364.894 113.848 364.894 114.309V118.951H363.323V117.998H363.268C363.169 118.191 363.029 118.371 362.848 118.54C362.671 118.705 362.447 118.839 362.176 118.942C361.908 119.041 361.593 119.091 361.232 119.091ZM361.656 117.89C361.985 117.89 362.269 117.825 362.51 117.695C362.751 117.563 362.936 117.388 363.065 117.172C363.198 116.955 363.264 116.719 363.264 116.463V115.646C363.213 115.688 363.125 115.727 363.002 115.763C362.882 115.799 362.746 115.831 362.596 115.858C362.445 115.885 362.296 115.909 362.149 115.93C362.001 115.951 361.873 115.969 361.765 115.984C361.521 116.017 361.303 116.071 361.11 116.147C360.917 116.222 360.765 116.327 360.654 116.463C360.543 116.595 360.487 116.767 360.487 116.978C360.487 117.279 360.597 117.506 360.817 117.659C361.036 117.813 361.316 117.89 361.656 117.89ZM369.111 119.073C368.566 119.073 368.079 118.933 367.648 118.653C367.218 118.373 366.878 117.966 366.628 117.434C366.378 116.901 366.253 116.254 366.253 115.492C366.253 114.721 366.379 114.071 366.632 113.541C366.888 113.009 367.233 112.607 367.666 112.336C368.1 112.062 368.583 111.925 369.116 111.925C369.522 111.925 369.856 111.994 370.118 112.133C370.38 112.268 370.588 112.432 370.741 112.625C370.895 112.815 371.013 112.994 371.098 113.162H371.166V109.704H372.805V118.951H371.197V117.858H371.098C371.013 118.027 370.892 118.206 370.732 118.395C370.573 118.582 370.362 118.741 370.1 118.874C369.838 119.006 369.508 119.073 369.111 119.073ZM369.567 117.732C369.913 117.732 370.208 117.638 370.452 117.452C370.696 117.262 370.881 116.999 371.007 116.661C371.134 116.324 371.197 115.932 371.197 115.483C371.197 115.034 371.134 114.645 371.007 114.314C370.884 113.982 370.7 113.725 370.457 113.541C370.216 113.358 369.919 113.266 369.567 113.266C369.203 113.266 368.899 113.361 368.655 113.55C368.411 113.74 368.228 114.002 368.104 114.336C367.981 114.67 367.919 115.053 367.919 115.483C367.919 115.916 367.981 116.303 368.104 116.643C368.231 116.981 368.416 117.247 368.66 117.443C368.906 117.635 369.209 117.732 369.567 117.732ZM375.562 121.551C375.339 121.551 375.133 121.533 374.944 121.497C374.757 121.464 374.608 121.425 374.497 121.38L374.876 120.107C375.114 120.176 375.326 120.209 375.513 120.206C375.699 120.203 375.863 120.144 376.005 120.03C376.149 119.918 376.271 119.732 376.37 119.47L376.51 119.095L373.995 112.015H375.729L377.328 117.253H377.4L379.003 112.015H380.741L377.964 119.791C377.835 120.158 377.663 120.472 377.45 120.734C377.236 120.999 376.974 121.201 376.664 121.339C376.357 121.481 375.99 121.551 375.562 121.551Z" fill="#10B528"/>
<g filter="url(#filter2_ii_27_122)">
<path d="M408.098 69.489C437.88 69.489 473.911 70.6797 508.53 75.0725C542.873 79.4304 577.06 87.0794 602.392 100.661C628.091 114.441 646.994 135.874 643.952 167.191C641.115 196.389 619.209 230.561 575.764 271.37C549.238 296.287 532.722 315.956 523.57 331.528C514.404 347.125 513.477 357.109 515.262 363.666C517.05 370.236 522.422 376.548 533.233 382.891C544.047 389.235 558.618 394.617 575.924 399.996C609.397 410.399 653.14 420.594 687.347 438.311C722.476 456.506 751.101 484.387 751.101 531.319H725.958C725.958 497.105 706.262 476.061 675.633 460.197C644.081 443.855 604.627 434.856 568.349 423.581C550.779 418.12 533.834 412.042 520.355 404.135C506.874 396.226 495.175 385.496 490.974 370.064C486.769 354.619 490.934 337.642 501.802 319.149C512.685 300.632 531.147 279.082 558.4 253.482C601.003 213.464 616.997 184.65 618.922 164.837C620.642 147.141 611.167 133.535 590.359 122.379C569.183 111.025 538.73 103.843 505.312 99.6024C472.169 95.3969 437.315 94.2228 408.098 94.2228V69.489Z" fill="url(#paint0_linear_27_122)" fill-opacity="0.6"/>
</g>
<defs>
<filter id="filter0_d_27_122" x="439.049" y="531.319" width="484.669" height="207.017" filterUnits="userSpaceOnUse" color-interpolation-filters="sRGB">
<feFlood flood-opacity="0" result="BackgroundImageFix"/>
<feColorMatrix in="SourceAlpha" type="matrix" values="0 0 0 0 0 0 0 0 0 0 0 0 0 0 0 0 0 0 127 0" result="hardAlpha"/>
<feMorphology radius="23.7712" operator="erode" in="SourceAlpha" result="effect1_dropShadow_27_122"/>
<feOffset dy="18.4887"/>
<feGaussianBlur stdDeviation="19.8094"/>
<feComposite in2="hardAlpha" operator="out"/>
<feColorMatrix type="matrix" values="0 0 0 0 0.0588235 0 0 0 0 0.0745098 0 0 0 0 0.0980392 0 0 0 0.28 0"/>
<feBlend mode="normal" in2="BackgroundImageFix" result="effect1_dropShadow_27_122"/>
<feBlend mode="normal" in="SourceGraphic" in2="effect1_dropShadow_27_122" result="shape"/>
</filter>
<filter id="filter1_d_27_122" x="9.53674e-06" y="0" width="424.213" height="182.319" filterUnits="userSpaceOnUse" color-interpolation-filters="sRGB">
<feFlood flood-opacity="0" result="BackgroundImageFix"/>
<feColorMatrix in="SourceAlpha" type="matrix" values="0 0 0 0 0 0 0 0 0 0 0 0 0 0 0 0 0 0 127 0" result="hardAlpha"/>
<feMorphology radius="20.8061" operator="erode" in="SourceAlpha" result="effect1_dropShadow_27_122"/>
<feOffset dy="16.1825"/>
<feGaussianBlur stdDeviation="17.3384"/>
<feComposite in2="hardAlpha" operator="out"/>
<feColorMatrix type="matrix" values="0 0 0 0 0.0588235 0 0 0 0 0.0745098 0 0 0 0 0.0980392 0 0 0 0.28 0"/>
<feBlend mode="normal" in2="BackgroundImageFix" result="effect1_dropShadow_27_122"/>
<feBlend mode="normal" in="SourceGraphic" in2="effect1_dropShadow_27_122" result="shape"/>
</filter>
<filter id="filter2_ii_27_122" x="408.098" y="69.489" width="345.003" height="463.83" filterUnits="userSpaceOnUse" color-interpolation-filters="sRGB">
<feFlood flood-opacity="0" result="BackgroundImageFix"/>
<feBlend mode="normal" in="SourceGraphic" in2="BackgroundImageFix" result="shape"/>
<feColorMatrix in="SourceAlpha" type="matrix" values="0 0 0 0 0 0 0 0 0 0 0 0 0 0 0 0 0 0 127 0" result="hardAlpha"/>
<feOffset dx="2"/>
<feGaussianBlur stdDeviation="1.7"/>
<feComposite in2="hardAlpha" operator="arithmetic" k2="-1" k3="1"/>
<feColorMatrix type="matrix" values="0 0 0 0 1 0 0 0 0 1 0 0 0 0 1 0 0 0 1 0"/>
<feBlend mode="normal" in2="shape" result="effect1_innerShadow_27_122"/>
<feColorMatrix in="SourceAlpha" type="matrix" values="0 0 0 0 0 0 0 0 0 0 0 0 0 0 0 0 0 0 127 0" result="hardAlpha"/>
<feOffset dy="2"/>
<feGaussianBlur stdDeviation="3"/>
<feComposite in2="hardAlpha" operator="arithmetic" k2="-1" k3="1"/>
<feColorMatrix type="matrix" values="0 0 0 0 1 0 0 0 0 1 0 0 0 0 1 0 0 0 1 0"/>
<feBlend mode="normal" in2="effect1_innerShadow_27_122" result="effect2_innerShadow_27_122"/>
</filter>
<linearGradient id="paint0_linear_27_122" x1="486.3" y1="69.489" x2="576.695" y2="531.887" gradientUnits="userSpaceOnUse">
<stop offset="0.0187397" stop-color="#FF7B00"/>
<stop offset="0.5625" stop-color="#E6D8CA"/>
<stop offset="1" stop-color="#771DF5"/>
</linearGradient>
</defs>
</svg>
